<?xml version="1.0" standalone="no"?><!DOCTYPE svg PUBLIC "-//W3C//DTD SVG 1.1//EN" "http://www.w3.org/Graphics/SVG/1.1/DTD/svg11.dtd"><svg t="1638862840824" class="icon" viewBox="0 0 1024 1024" version="1.1" xmlns="http://www.w3.org/2000/svg" p-id="4694" xmlns:xlink="http://www.w3.org/1999/xlink" width="200" height="200"><defs><style type="text/css"></style></defs><path d="M512 79.418c-241.617 0-436.961 195.344-436.961 436.961s195.344 436.961 436.961 436.961c241.617 0 436.961-195.344 436.961-436.961 0-241.617-195.344-436.961-436.961-436.961zM733.049 459.824l-236.471 226.187c-10.287 10.287-20.561 10.287-30.843 0-10.287 5.139-25.698 5.139-30.843 0l-138.798-133.655c-10.287-10.287-10.287-25.698 0-35.989l35.989-35.989c10.287-10.287 25.698-10.287 35.989 0l107.961 102.805 200.484-190.204c10.287-10.287 25.698-10.287 35.989 0l35.989 30.843c-5.139 15.425-5.139 30.843-15.425 35.989z" p-id="4695" data-spm-anchor-id="a313x.7781069.0.i1" class="" fill="#e6007a"></path></svg>