<svg xmlns="http://www.w3.org/2000/svg" viewBox="0 0 23.68 20.02"><defs><style>.cls-1{fill:#e6007a;fill-rule:evenodd;}</style></defs><g id="图层_2" data-name="图层 2"><g id="图层_1-2" data-name="图层 1"><path class="cls-1" d="M22.45,2.2,23.68.27V0H17.05L12.33,12.25,7,0H0V.27L2.24,3.11c.21.21.33.52.3,1.49V15.09c.07.4,0,1.2-.32,1.1L.59,19.42v.41H6.83v-.42L4.32,16.2c-.27.12-.4-.7-.35-1.11V5.44l6.27,14.4H11l5.39-14.4v12c0-.18,0-.11-.19.09l-1.94,2V20h9.4v-.57l-1.18-1.93c-.85-.13-.93-.35-.9.33V2.76C21.52,2.55,21.6,2.33,22.45,2.2Z"/></g></g></svg>