<svg  xmlns="http://www.w3.org/2000/svg" xmlns:xlink="http://www.w3.org/1999/xlink" width="21px" height="20px"><path fill-rule="evenodd"  fill="rgb(230, 0, 122)" d="M20.621,10.472 C20.640,12.591 19.967,14.657 18.703,16.358 C17.486,18.57 15.759,19.325 13.772,19.977 C13.595,20.27 13.406,19.992 13.257,19.884 C13.150,19.782 13.92,19.639 13.100,19.491 L13.100,16.744 C13.158,16.57 12.909,15.379 12.420,14.892 C12.868,14.848 13.313,14.772 13.751,14.663 C14.180,14.548 14.592,14.375 14.975,14.148 C15.376,13.930 15.732,13.639 16.27,13.290 C16.350,12.882 16.593,12.416 16.742,11.917 C16.932,11.279 17.24,10.616 17.14,9.950 C17.37,8.954 16.664,7.990 15.977,7.268 C16.300,6.403 16.263,5.445 15.876,4.607 C15.519,4.542 15.151,4.592 14.824,4.750 C14.406,4.901 14.3,5.93 13.622,5.323 L13.128,5.630 C11.490,5.172 9.757,5.172 8.119,5.630 C7.975,5.530 7.797,5.423 7.568,5.280 C7.211,5.72 6.838,4.895 6.451,4.750 C6.105,4.575 5.712,4.512 5.328,4.572 C4.942,5.418 4.908,6.383 5.235,7.254 C4.557,7.987 4.188,8.952 4.204,9.950 C4.194,10.611 4.285,11.269 4.476,11.903 C4.631,12.399 4.873,12.864 5.192,13.276 C5.480,13.635 5.837,13.932 6.244,14.148 C6.631,14.365 7.42,14.537 7.467,14.663 C7.907,14.772 8.355,14.849 8.806,14.892 C8.431,15.245 8.201,15.724 8.162,16.237 C7.973,16.326 7.773,16.389 7.568,16.423 C7.332,16.467 7.92,16.488 6.852,16.487 C6.523,16.489 6.202,16.386 5.936,16.194 C5.639,15.979 5.395,15.700 5.220,15.378 C5.62,15.109 4.847,14.877 4.590,14.699 C4.399,14.552 4.180,14.445 3.946,14.384 L3.689,14.384 C3.560,14.377 3.431,14.396 3.309,14.441 C3.238,14.484 3.216,14.534 3.245,14.592 C3.279,14.656 3.320,14.716 3.367,14.771 C3.418,14.831 3.476,14.886 3.538,14.935 L3.631,14.992 C3.856,15.113 4.51,15.281 4.204,15.486 C4.364,15.689 4.501,15.910 4.612,16.143 L4.741,16.444 C4.842,16.767 5.42,17.49 5.313,17.252 C5.571,17.439 5.866,17.566 6.179,17.624 C6.476,17.686 6.778,17.717 7.81,17.717 C7.321,17.722 7.560,17.705 7.797,17.667 L8.97,17.617 L8.97,19.491 C8.100,19.641 8.37,19.784 7.925,19.884 C7.774,19.992 7.582,20.26 7.403,19.977 C5.422,19.317 3.705,18.41 2.501,16.337 C1.230,14.647 0.556,12.585 0.583,10.472 C0.572,8.713 1.37,6.983 1.928,5.465 C2.803,3.942 4.68,2.678 5.592,1.804 C7.111,0.913 8.841,0.449 10.602,0.459 C12.363,0.449 14.93,0.913 15.612,1.804 C17.136,2.678 18.401,3.942 19.276,5.465 C20.168,6.983 20.632,8.713 20.621,10.472 L20.621,10.472 Z"/></svg>