<svg 
 xmlns="http://www.w3.org/2000/svg"
 xmlns:xlink="http://www.w3.org/1999/xlink"
 width="20px" height="18px">
<path fill-rule="evenodd"  fill="rgb(230, 0, 122)"
 d="M16.784,16.313 L19.731,2.453 C19.851,1.867 19.781,1.447 19.520,1.194 C19.259,0.940 18.916,0.894 18.487,1.54 L1.168,7.714 C0.780,7.861 0.518,8.27 0.376,8.214 C0.236,8.402 0.219,8.577 0.326,8.744 C0.433,8.911 0.647,9.41 0.968,9.135 L5.398,10.514 L15.681,4.54 C15.962,3.866 16.176,3.828 16.322,3.934 C16.416,4.1 16.390,4.101 16.242,4.234 L7.924,11.734 L7.602,16.293 C7.910,16.293 8.211,16.148 8.505,15.853 L10.670,13.773 L15.160,17.74 C16.16,17.553 16.557,17.300 16.785,16.313 L16.784,16.313 Z"/>
</svg>
