<svg xmlns="http://www.w3.org/2000/svg" viewBox="0 0 120 120"><defs><style>.cls-1{fill:#fff;opacity:0;}.cls-2,.cls-3{fill:#e6007a;}.cls-2{opacity:0.2;}</style></defs><g id="图层_2" data-name="图层 2"><g id="图层_1-2" data-name="图层 1"><circle class="cls-1" cx="60" cy="60" r="60"/><path class="cls-2" d="M91.19,81.39,72.06,48V32.57h2.2a2.3,2.3,0,0,0,2-3.44,2.24,2.24,0,0,0-2-1.16H45.89a2.3,2.3,0,0,0-2,3.44,2.27,2.27,0,0,0,2,1.16h2.16V48L29.16,80.87A8.3,8.3,0,0,0,28,84.79c0,4,2.92,7.24,6.52,7.24H86.15A7.05,7.05,0,0,0,92,84.79,6.39,6.39,0,0,0,91.19,81.39ZM48.09,55.94l3.44-6a4.39,4.39,0,0,0,.52-2V32.57h16V47.93a4,4,0,0,0,.52,2l3.48,6Z"/><path class="cls-3" d="M58.93,70.91a3.94,3.94,0,0,1-2.76,1.16,3.84,3.84,0,0,1-2.76-1.16,4,4,0,0,1-1.16-2.77,3.84,3.84,0,0,1,1.16-2.76,3.94,3.94,0,0,1,2.76-1.16,3.84,3.84,0,0,1,2.76,1.16,3.94,3.94,0,0,1,1.16,2.76,4.16,4.16,0,0,1-1.16,2.77Z"/><path class="cls-3" d="M70,84a6,6,0,1,1,6-6,6,6,0,0,1-6,6Z"/></g></g></svg>