<svg xmlns="http://www.w3.org/2000/svg" viewBox="0 0 120 120"><defs><style>.cls-1{fill:#fff;opacity:0;}.cls-2,.cls-3{fill:#e6007a;}.cls-3{opacity:0.2;}</style></defs><g id="图层_2" data-name="图层 2"><g id="图层_1-2" data-name="图层 1"><circle class="cls-1" cx="60" cy="60" r="60"/><path class="cls-2" d="M26.84,68.22V63.44a1.14,1.14,0,0,1,1.1-1.14l1.35,0a1.15,1.15,0,0,1,1.18,1.14v4.78a1.14,1.14,0,0,1-1.1,1.14l-1.35,0A1.14,1.14,0,0,1,26.84,68.22Z"/><path class="cls-2" d="M90.09,68.17V63.39a1.14,1.14,0,0,1,1.18-1.14l1.35,0a1.14,1.14,0,0,1,1.1,1.14v4.78a1.15,1.15,0,0,1-1.18,1.14l-1.35,0A1.14,1.14,0,0,1,90.09,68.17Z"/><path class="cls-2" d="M52.28,59.22H67.9a5.28,5.28,0,0,1,3.67,1.39,3.91,3.91,0,0,1,1.27,3.3,4.9,4.9,0,0,1-5.12,3.87H52.1a5.28,5.28,0,0,1-3.67-1.39,3.93,3.93,0,0,1-1.27-3.3,4.91,4.91,0,0,1,5.12-3.87Z"/><path class="cls-3" d="M95.18,60.24a2.92,2.92,0,0,0-2.1-.85l-2.9-.13c-.2-9.12-4.88-15.4-11.27-19.32l7-14.3c1.09.51,2.62-1.06,2.76-2.09s-.14-2.79-1.72-3.27a2.92,2.92,0,0,0-3.43.7,2.78,2.78,0,0,0-.2,3.43l-7,14.19a39,39,0,0,0-16.47-3.19A39,39,0,0,0,43.37,38.7L36.28,24.58a2.77,2.77,0,0,0-.22-3.43,2.92,2.92,0,0,0-3.43-.68,2.81,2.81,0,0,0,1.06,5.35l7.2,14.3C34.54,44,30.67,50.5,30.5,59.59H26.88a2.89,2.89,0,0,0-2,.82,2.81,2.81,0,0,0-.85,2v7.06a2.77,2.77,0,0,0,.85,2,2.89,2.89,0,0,0,2,.82h3.59V87.76a4.18,4.18,0,0,0,1.26,3A4.39,4.39,0,0,0,34.79,92l50.4-.1a4.29,4.29,0,0,0,4.32-4.24V72.19h3.61a2.85,2.85,0,0,0,2-.82,2.81,2.81,0,0,0,.85-2V62.31A2.77,2.77,0,0,0,95.18,60.24ZM78,64.22A7.35,7.35,0,0,1,70.8,71H49a6.66,6.66,0,0,1-5.14-2.45A7.94,7.94,0,0,1,42,62.78,7.35,7.35,0,0,1,49.2,56H71.05a6.68,6.68,0,0,1,5.14,2.44A7.92,7.92,0,0,1,78,64.22Z"/></g></g></svg>