<svg xmlns="http://www.w3.org/2000/svg" viewBox="0 0 120 120"><defs><style>.cls-1{fill:#fff;opacity:0;}.cls-2,.cls-3{fill:#e6007a;}.cls-2{opacity:0.2;}</style></defs><g id="图层_2" data-name="图层 2"><g id="图层_1-2" data-name="图层 1"><circle class="cls-1" cx="60" cy="60" r="60"/><path class="cls-2" d="M94.38,48.72,71.11,25.43A5,5,0,1,0,64,32.5l4.81,4.91L56.69,49.6,52.06,45a8.44,8.44,0,0,0-11.93,0l-9.45,9.46a24.54,24.54,0,0,0,34.71,34.7l9.45-9.45a8.44,8.44,0,0,0,0-11.93l-4.59-4.6L82.44,51l4.88,4.83a5,5,0,1,0,7.06-7.07Z"/><rect class="cls-3" x="44.04" y="58.8" width="8.49" height="25.46" rx="4.24" transform="translate(64.72 -13.19) rotate(45)"/></g></g></svg>