<svg xmlns="http://www.w3.org/2000/svg" viewBox="0 0 120 120"><defs><style>.cls-1{fill:#fff;opacity:0;}.cls-2,.cls-3{fill:#e6007a;}.cls-2{opacity:0.2;}</style></defs><g id="图层_2" data-name="图层 2"><g id="图层_1-2" data-name="图层 1"><circle class="cls-1" cx="60" cy="60" r="60"/><path class="cls-2" d="M65.23,74.28A24.64,24.64,0,1,0,40.76,49.65,24.55,24.55,0,0,0,65.23,74.28"/><path class="cls-3" d="M64,56.16a11.52,11.52,0,0,1-5.47-1.46l-1,3.87A13.78,13.78,0,0,0,63.14,60v3.13H66.4V59.71c3.79-.63,5.83-3.12,5.83-6.05s-1.55-4.81-5.46-6.2c-2.84-1-4-1.75-4-2.8s.69-1.89,2.84-1.89a10.2,10.2,0,0,1,4.75,1.16l1-3.72a11.77,11.77,0,0,0-4.81-1.09V36.21H63.3v3.13c-3.52.67-5.57,2.94-5.57,5.88,0,3.19,2.41,4.83,5.93,6,2.48.82,3.53,1.61,3.53,2.87s-1.29,2-3.2,2"/><path class="cls-2" d="M45.52,90.66a15,15,0,1,0-21.12-.07,14.94,14.94,0,0,0,21.12.07"/><path class="cls-3" d="M37.19,83.4a7.05,7.05,0,0,1-3,1.73l1.24,2.08a8.27,8.27,0,0,0,3-1.8l1.35,1.35,1.4-1.4-1.46-1.47c1.36-1.9,1.16-3.86-.1-5.11s-2.74-1.41-5-.32c-1.67.78-2.48,1-2.93.51s-.51-1.11.41-2a6.2,6.2,0,0,1,2.54-1.54l-1.18-2A7.33,7.33,0,0,0,31,75L29.7,73.72l-1.39,1.39,1.35,1.35c-1.23,1.8-1.13,3.66.13,4.92s3.12,1.05,5.15.05c1.41-.72,2.21-.83,2.75-.29s.33,1.44-.5,2.26"/><path class="cls-2" d="M89.69,67A10.25,10.25,0,1,0,100,77.25,10.28,10.28,0,0,0,89.69,67"/><path class="cls-3" d="M95.32,76.45H94a2.54,2.54,0,0,0-2.46-2.34c-1.34,0-2,1-2.53,2.49-.34,1-.67,1.47-1.2,1.47S87,77.54,87,76.74a4.79,4.79,0,0,1,.62-2.3L86,74a5.88,5.88,0,0,0-.59,2.35H84.05v1.36h1.43A2.6,2.6,0,0,0,88,80.19c1.26,0,2-.65,2.6-2.29.43-1.19.74-1.67,1.18-1.67s.78.29.78,1.18a4.35,4.35,0,0,1-.48,2l1.56.42a5.1,5.1,0,0,0,.46-2h1.21V76.45Z"/></g></g></svg>