<svg xmlns="http://www.w3.org/2000/svg" viewBox="0 0 120 120"><defs><style>.cls-1{fill:#fff;opacity:0;}.cls-2,.cls-3{fill:#e6007a;}.cls-2{opacity:0.2;}</style></defs><g id="图层_2" data-name="图层 2"><g id="图层_1-2" data-name="图层 1"><circle class="cls-1" cx="60" cy="60" r="60"/><path class="cls-2" d="M86.86,91.42l-2.42-2.23a6.44,6.44,0,0,0-9.11.37h0a6.44,6.44,0,0,1-9.12.37L65.26,89a6.45,6.45,0,0,0-9,.19l-.75.75a6.43,6.43,0,0,1-8.85.27l-1.8-1.6a6.43,6.43,0,0,0-8.58,0l-3.21,2.86A1.88,1.88,0,0,1,30,90.1V43.15A15.08,15.08,0,0,1,45,28H75A15.08,15.08,0,0,1,90,43.15V90A1.88,1.88,0,0,1,86.86,91.42Z"/><path class="cls-3" d="M70.86,56.72a8,8,0,1,0,8,8A8,8,0,0,0,70.86,56.72ZM74,65.63H67.68a.91.91,0,0,1,0-1.82H74a.91.91,0,0,1,0,1.82Z"/><path class="cls-3" d="M51.27,36.81a11,11,0,1,0,11,11A11,11,0,0,0,51.27,36.81Zm4.36,12.24H52.51v3.12a1.25,1.25,0,0,1-2.49,0V49.05H46.9a1.25,1.25,0,0,1,0-2.49H50V43.44a1.25,1.25,0,0,1,2.49,0v3.12h3.12a1.25,1.25,0,0,1,0,2.49Z"/></g></g></svg>