<svg  xmlns="http://www.w3.org/2000/svg" xmlns:xlink="http://www.w3.org/1999/xlink" width="858px" height="390px"><defs><linearGradient id="PSgrad_0" x1="34.202%" x2="0%" y1="93.969%" y2="0%">  <stop offset="29%" stop-color="rgb(230,0,122)" stop-opacity="1" />  <stop offset="100%" stop-color="rgb(255,255,255)" stop-opacity="1" /></linearGradient><linearGradient id="PSgrad_1" x1="0%" x2="34.202%" y1="0%" y2="93.969%">  <stop offset="29%" stop-color="rgb(230,0,122)" stop-opacity="1" />  <stop offset="100%" stop-color="rgb(255,255,255)" stop-opacity="1" /></linearGradient></defs><path fill-rule="evenodd"  opacity="0.451" fill="rgb(230, 0, 122)" d="M70.978,125.739 C76.738,131.918 76.391,141.605 70.202,147.375 C46.281,169.674 32.463,199.938 31.292,232.594 C30.120,265.249 41.736,296.386 64.0,320.268 C86.264,344.151 116.510,357.920 149.167,359.40 C181.824,360.160 212.983,348.496 236.903,326.197 C243.92,320.427 252.780,320.760 258.541,326.939 C264.301,333.119 263.954,342.806 257.764,348.575 C227.857,376.455 188.900,391.38 148.70,389.638 C107.239,388.238 69.422,371.22 41.586,341.163 C13.750,311.302 0.772,272.373 0.691,231.545 C2.156,190.716 19.433,152.876 49.340,124.997 C55.529,119.227 65.217,119.559 70.978,125.739 Z"/><path fill="url(#PSgrad_0)" d="M70.978,125.739 C76.738,131.918 76.391,141.605 70.202,147.375 C46.281,169.674 32.463,199.938 31.292,232.594 C30.120,265.249 41.736,296.386 64.0,320.268 C86.264,344.151 116.510,357.920 149.167,359.40 C181.824,360.160 212.983,348.496 236.903,326.197 C243.92,320.427 252.780,320.760 258.541,326.939 C264.301,333.119 263.954,342.806 257.764,348.575 C227.857,376.455 188.900,391.38 148.70,389.638 C107.239,388.238 69.422,371.22 41.586,341.163 C13.750,311.302 0.772,272.373 0.691,231.545 C2.156,190.716 19.433,152.876 49.340,124.997 C55.529,119.227 65.217,119.559 70.978,125.739 Z"/><path fill-rule="evenodd"  opacity="0.451" fill="rgb(230, 0, 122)" d="M816.32,169.22 C812.2,165.253 811.794,158.926 815.569,154.889 C830.156,139.290 837.805,118.952 837.107,97.622 C836.408,76.293 827.446,56.525 811.871,41.961 C796.296,27.397 775.972,19.779 754.644,20.511 C733.316,21.243 713.536,30.238 698.948,45.837 C695.174,49.874 688.847,50.91 684.817,46.322 C680.787,42.554 680.580,36.227 684.354,32.190 C702.593,12.686 727.323,1.441 753.989,0.525 C780.656,0.389 806.66,9.134 825.539,27.344 C845.13,45.554 856.218,70.269 857.92,96.937 C857.965,123.604 848.401,149.32 830.163,168.536 C826.389,172.573 820.62,172.790 816.32,169.22 Z"/><path fill="url(#PSgrad_1)" d="M816.32,169.22 C812.2,165.253 811.794,158.926 815.569,154.889 C830.156,139.290 837.805,118.952 837.107,97.622 C836.408,76.293 827.446,56.525 811.871,41.961 C796.296,27.397 775.972,19.779 754.644,20.511 C733.316,21.243 713.536,30.238 698.948,45.837 C695.174,49.874 688.847,50.91 684.817,46.322 C680.787,42.554 680.580,36.227 684.354,32.190 C702.593,12.686 727.323,1.441 753.989,0.525 C780.656,0.389 806.66,9.134 825.539,27.344 C845.13,45.554 856.218,70.269 857.92,96.937 C857.965,123.604 848.401,149.32 830.163,168.536 C826.389,172.573 820.62,172.790 816.32,169.22 Z"/></svg>