<svg  xmlns="http://www.w3.org/2000/svg" xmlns:xlink="http://www.w3.org/1999/xlink" width="21px" height="18px"><path fill-rule="evenodd"  fill="rgb(230, 0, 122)" d="M18.179,5.661 L18.179,5.84 C18.982,4.507 19.672,3.703 20.248,2.898 C19.558,3.249 18.755,3.476 17.952,3.589 C18.755,3.125 19.445,2.208 19.795,1.290 C18.992,1.754 18.189,2.94 17.262,2.332 C16.572,1.527 15.419,0.950 14.275,0.950 C11.979,0.950 10.249,2.795 10.249,5.208 C10.249,5.558 10.249,5.898 10.362,6.249 C7.26,6.22 4.39,4.290 1.959,1.641 C1.382,2.105 1.156,2.795 1.156,3.599 C1.156,5.94 1.846,6.476 2.999,7.290 C2.309,7.290 1.732,7.63 1.156,6.713 C1.156,8.785 2.536,10.630 4.379,10.971 C4.29,11.84 3.689,11.84 3.339,11.84 C3.112,11.84 2.876,11.84 2.536,10.971 C2.999,12.703 4.606,13.960 6.336,13.960 C4.956,15.115 3.226,15.806 1.269,15.806 C0.919,15.806 0.579,15.806 0.353,15.692 C2.196,16.960 4.266,17.651 6.562,17.651 C14.39,17.878 18.179,11.311 18.179,5.661 L18.179,5.661 Z"/></svg>