<svg xmlns="http://www.w3.org/2000/svg" viewBox="0 0 63.46 63.46"><defs><style>.cls-1,.cls-2{fill:#e6007a;}.cls-1{opacity:0.2;}</style></defs><g id="图层_2" data-name="图层 2"><g id="图层_1-2" data-name="图层 1"><path class="cls-1" d="M31.73,63.46A31.73,31.73,0,1,1,63.46,31.73c0,6.5-2.76,11.2-8.19,14-3.27,1.65-6.76,1.84-9.87,2-3.77.19-6.15.38-7.29,2.31-.83,1.4-.23,2.6.79,4.44s2.25,4,.44,6.22c-2.06,2.51-5.14,2.83-7.61,2.83Z"/><path class="cls-2" d="M8.92,28.24a4.35,4.35,0,1,0,4.34-4.35,4.32,4.32,0,0,0-4.34,4.35Z"/><path class="cls-2" d="M19.45,15.17a4.35,4.35,0,1,0,4.35-4.35,4.34,4.34,0,0,0-4.35,4.35Z"/><path class="cls-2" d="M35.63,14.21A4.35,4.35,0,1,0,40,9.87a4.35,4.35,0,0,0-4.35,4.34Z"/><path class="cls-2" d="M45.5,26.43a4.35,4.35,0,1,0,4.35-4.35,4.35,4.35,0,0,0-4.35,4.35Z"/></g></g></svg>