<svg xmlns="http://www.w3.org/2000/svg" viewBox="0 0 72.17 63.95"><defs><style>.cls-1,.cls-2{fill:#e6007a;}.cls-2{opacity:0.2;}</style></defs><g id="图层_2" data-name="图层 2"><g id="图层_1-2" data-name="图层 1"><path class="cls-1" d="M55,55.46a8.5,8.5,0,1,0,4.25-7.36A8.51,8.51,0,0,0,55,55.46Z"/><path class="cls-1" d="M43.87,4.1a4.09,4.09,0,1,0,2-3.55,4.09,4.09,0,0,0-2,3.55Z"/><path class="cls-1" d="M0,46.53A4.1,4.1,0,1,0,2.05,43a4.1,4.1,0,0,0-2,3.55Z"/><path class="cls-2" d="M15.89,35.06h-9a2.84,2.84,0,0,1,0-5.68h11a2.85,2.85,0,0,1,2.67,1.88l1.76,4.91L28.5,6.53a2.84,2.84,0,0,1,5.55,0l8.26,37.81L47.77,17a2.83,2.83,0,0,1,5.46-.36l4.35,12.74H69.33a2.84,2.84,0,1,1,0,5.68H55.56a2.83,2.83,0,0,1-2.69-1.92l-1.6-4.7L45.21,58.72a2.83,2.83,0,0,1-5.55.05L31.34,20.7,25.82,47.17a2.84,2.84,0,0,1-5.45.38Z"/></g></g></svg>