<svg xmlns="http://www.w3.org/2000/svg" viewBox="0 0 77.75 68"><defs><style>.cls-1,.cls-2{fill:#e6007a;}.cls-1{opacity:0.2;}</style></defs><g id="图层_2" data-name="图层 2"><g id="图层_1-2" data-name="图层 1"><path class="cls-1" d="M44,47.88A23.94,23.94,0,1,0,20.18,23.94,23.85,23.85,0,0,0,44,47.88"/><path class="cls-2" d="M42.75,30.27a11.38,11.38,0,0,1-5.31-1.41l-1,3.75A13.25,13.25,0,0,0,41.92,34v3h3.17V33.72c3.68-.61,5.67-3,5.67-5.88s-1.51-4.67-5.32-6c-2.75-1-3.88-1.7-3.88-2.73s.68-1.82,2.76-1.82a9.92,9.92,0,0,1,4.62,1.12l1-3.62a11.55,11.55,0,0,0-4.67-1V10.89H42.08v3c-3.42.65-5.41,2.85-5.41,5.71,0,3.1,2.34,4.7,5.76,5.86,2.41.8,3.43,1.56,3.43,2.78s-1.25,2-3.11,2"/><path class="cls-1" d="M24.81,63.78a14.56,14.56,0,1,0-20.52-.06,14.51,14.51,0,0,0,20.52.06"/><path class="cls-2" d="M16.72,56.73a6.83,6.83,0,0,1-2.9,1.68l1.21,2A8,8,0,0,0,18,58.69L19.27,60l1.36-1.36-1.42-1.42c1.32-1.85,1.13-3.75-.1-5s-2.65-1.36-4.87-.3c-1.61.75-2.4.93-2.84.49s-.49-1.08.4-2A6,6,0,0,1,14.27,49l-1.15-2a7,7,0,0,0-2.46,1.56L9.44,47.33,8.09,48.68,9.4,50c-1.19,1.75-1.1,3.55.13,4.78s3,1,5,0c1.38-.69,2.15-.8,2.68-.27s.32,1.39-.48,2.19"/><path class="cls-1" d="M67.71,40.81a10,10,0,1,0,10,9.95,10,10,0,0,0-10-9.95"/><path class="cls-2" d="M73.18,50H71.91a2.46,2.46,0,0,0-2.39-2.27c-1.3,0-2,1-2.45,2.41-.34,1-.66,1.44-1.17,1.44s-.84-.52-.84-1.3a4.76,4.76,0,0,1,.6-2.23l-1.58-.4a5.79,5.79,0,0,0-.57,2.28H62.24v1.33h1.38a2.54,2.54,0,0,0,2.47,2.37c1.22,0,2-.63,2.52-2.22.42-1.16.71-1.63,1.14-1.63s.76.28.76,1.16A4.22,4.22,0,0,1,70,52.85l1.52.4a4.8,4.8,0,0,0,.44-2h1.19V50Z"/></g></g></svg>