<svg id="图层_1" data-name="图层 1" xmlns="http://www.w3.org/2000/svg" viewBox="0 0 294 121"><path d="M122.84,60.2a8.36,8.36,0,0,1,8-8.68h.39c4.26,0,6.78,2.5,7.52,5.43l-2.68.9a4.64,4.64,0,0,0-4.86-3.66c-2.76,0-5.51,2-5.51,6.07s2.68,6,5.54,6a5,5,0,0,0,5-3.69l2.6.84A7.53,7.53,0,0,1,131.26,69a8.27,8.27,0,0,1-8.42-8.11h0Q122.82,60.52,122.84,60.2Z"/><path d="M144,68.55h-2.74V51.47H144v6.68a4.15,4.15,0,0,1,3.26-1.45c2.84,0,4.17,2,4.17,4.56v7.27h-2.65V61.75a2.23,2.23,0,0,0-1.87-2.51,2.09,2.09,0,0,0-.5,0,2.38,2.38,0,0,0-2.33,2.35.67.67,0,0,0,0,.2Z"/><path d="M157.58,62l2.94-.46c.66-.09.83-.42.83-.83,0-1-.65-1.75-2.17-1.75a2.17,2.17,0,0,0-2.34,2V61l-2.5-.57c.21-2,2-3.75,4.83-3.75,3.54,0,4.89,2,4.89,4.35v5.71a10.3,10.3,0,0,0,.14,1.84h-2.59a7.91,7.91,0,0,1-.11-1.46A4,4,0,0,1,158,69a3.6,3.6,0,0,1-3.88-3.29v-.21C154.1,63.42,155.61,62.25,157.58,62Zm3.78,1.84v-.52l-3,.45a1.57,1.57,0,0,0-1.52,1.56,1.52,1.52,0,0,0,1.54,1.46h.13a2.63,2.63,0,0,0,2.87-2.34A2.49,2.49,0,0,0,161.36,63.81Z"/><path d="M168.7,51.23A1.8,1.8,0,0,1,170.52,53h0a1.79,1.79,0,1,1-1.82-1.8ZM167.37,68.6V57.06h2.7V68.55Z"/><path d="M176.35,68.55h-2.74V57.06h2.67v1.53a3.81,3.81,0,0,1,3.4-1.85c2.81,0,4.18,2,4.18,4.56v7.26h-2.74V61.75a2.2,2.2,0,0,0-2.36-2.51,2.41,2.41,0,0,0-2.4,2.42h0a1.41,1.41,0,0,0,0,.29Z"/><path d="M187.16,68.55V51.47h2.74V68.55Z"/><path d="M194.79,51.23A1.79,1.79,0,1,1,193,53v0A1.78,1.78,0,0,1,194.79,51.23ZM193.44,68.6V57.06h2.72V68.55Z"/><path d="M202.43,68.55H199.7V57.06h2.65v1.53a3.82,3.82,0,0,1,3.4-1.85c2.81,0,4.18,2,4.18,4.56v7.26H207.2V61.75a2.24,2.24,0,0,0-1.88-2.51,2.09,2.09,0,0,0-.5,0,2.41,2.41,0,0,0-2.39,2.42h0v6.89Z"/><path d="M219.27,61.92l4.82,6.63h-3.34l-3.38-4.74L216,65.3v3.26h-2.71V51.47H216V61.75l4.41-4.65H224Z"/><path d="M90.42,46.85l11.83,6.8V67.3l-11.8,6.84L78.61,67.35V53.71l11.81-6.86m0-10-4.34,2.51L74.25,46.19,69.91,48.7V72.38l4.34,2.5,11.84,6.8,4.34,2.5,4.34-2.5,11.81-6.86,4.34-2.5V48.61l-4.34-2.5L94.74,39.32l-4.34-2.5Z"/></svg>