<svg id="图层_1" data-name="图层 1" xmlns="http://www.w3.org/2000/svg" viewBox="0 0 294 121"><path d="M130.32,58.32l10.47,3c2.79.8,3.45,1.68,3.46,4.59,0,1.64,0,3.29,0,4.93a3.43,3.43,0,0,1-3.73,3.65q-6.9,0-13.83,0a3.43,3.43,0,1,1,0-6.84c3.37,0,6.75,0,10.2-.18a8.14,8.14,0,0,0-.86-.35c-3.32-1-6.66-1.91-10-2.88-2.32-.67-3.08-1.66-3.09-4,0-1.78,0-3.56,0-5.34a3.37,3.37,0,0,1,3.66-3.67q7,0,14,0a3.37,3.37,0,0,1,3.63,3.29A3.41,3.41,0,0,1,140.68,58c-3.42.06-6.84,0-10.26,0Z"/><path d="M152.52,57.74v9.9H157c2.44,0,3.92,1.3,3.93,3.4s-1.49,3.43-3.9,3.44c-2.56,0-5.11,0-7.65,0a3.46,3.46,0,0,1-3.8-3.84q0-7.8,0-15.61c0-2.49,1.32-3.81,3.78-3.83a47.69,47.69,0,0,1,5.61.06A4.92,4.92,0,0,1,158,52.6c3.44,3.9,6.75,7.92,10,12a5.38,5.38,0,0,1,.94,2.61,26.3,26.3,0,0,1,0,4,3.38,3.38,0,0,1-3.17,3.33,3.47,3.47,0,0,1-3.62-2.88,1.14,1.14,0,0,1-.07-.41c.53-2.56-.93-4.27-2.47-6-1.85-2.08-3.56-4.28-5.38-6.38A8.08,8.08,0,0,0,152.52,57.74Z"/><path d="M199.85,57.77v8.62c0,.36.05.72.08,1.25,1.59,0,3.11,0,4.66,0,2.28,0,3.78,1.41,3.76,3.45a3.43,3.43,0,0,1-3.69,3.39c-2.7,0-5.39,0-8.08,0A3.38,3.38,0,0,1,193,70.85q0-8,0-16a3.36,3.36,0,0,1,3.56-3.64,46.12,46.12,0,0,1,5.88.06,4.88,4.88,0,0,1,2.93,1.38c3.41,3.88,6.7,7.85,9.92,11.87a5.74,5.74,0,0,1,1,2.73,24.48,24.48,0,0,1,0,3.83,3.42,3.42,0,0,1-3.39,3.41c-1.8,0-3.57-1.39-3.37-3.23.27-2.64-1-4.34-2.6-6.11-1.85-2.08-3.56-4.28-5.38-6.38A7.61,7.61,0,0,0,199.85,57.77Z"/><path d="M181,56.22c1.59-1.35,3.09-2.6,4.56-3.89a3.58,3.58,0,0,1,4-.85c1.6.7,2.08,2.05,2.08,3.69,0,5.21,0,10.41,0,15.62a3.37,3.37,0,0,1-2.34,3.49,3.17,3.17,0,0,1-3.77-1.16,5,5,0,0,1-.71-2.42c-.09-2.73,0-5.47,0-8.64-2.54,2.65-5,2.92-7.35.07l-.24.23v2.77c0,1.91,0,3.83,0,5.75a3.41,3.41,0,1,1-6.82.24c-.1-1.67,0-3.37,0-5.07,0-3.6,0-7.21,0-10.82,0-1.62.45-3,2-3.73a3.56,3.56,0,0,1,4.14.85C177.87,53.64,179.36,54.85,181,56.22Z"/><path d="M107.17,67.57h7.43c0-.54.07-1,.07-1.51,0-3.7,0-7.39,0-11.09,0-2.28,1.42-3.77,3.45-3.77a3.21,3.21,0,0,1,3.37,3.08q.1,8.56,0,17.12a3.14,3.14,0,0,1-3.26,3.06q-7.32.08-14.65,0a3.3,3.3,0,0,1-3.28-3.5q0-8.14,0-16.29a3.42,3.42,0,1,1,6.84.07c0,3.74,0,7.48,0,11.22Z"/><path d="M93.14,62.82c1.63,2,3.18,3.83,4.71,5.69s1.41,3.83-.1,5.12-3.63,1.1-5.16-.71c-2.16-2.55-4.29-5.1-6.4-7.68a3.4,3.4,0,0,1,0-4.83q3.21-3.91,6.49-7.78a3.48,3.48,0,0,1,5.07-.6c1.5,1.3,1.56,3.31.18,5C96.38,58.94,94.8,60.82,93.14,62.82Z"/><path d="M84.5,62.93c0,2.6,0,5.2,0,7.79,0,2.24-1.45,3.79-3.45,3.76a3.45,3.45,0,0,1-3.39-3.7q0-8,0-16a3.43,3.43,0,1,1,6.84.09C84.51,57.56,84.5,60.25,84.5,62.93Z"/><path d="M152.69,43.27a23.66,23.66,0,0,1-1.4,2.21,7.86,7.86,0,0,1-1.87,1.86c-1.7,1-1.78,1.27-.56,2.92a5.63,5.63,0,0,1-1.25-1,2,2,0,0,0-2.6-.8l-4.65,1.39c.38-.53.47-.78.65-.9,3.12-2.05,6.26-4.07,9.39-6.12A1.54,1.54,0,0,1,152.69,43.27Z"/></svg>