<svg id="图层_1" data-name="图层 1" xmlns="http://www.w3.org/2000/svg" viewBox="0 0 294 121"><defs><style>.cls-1{fill-rule:evenodd;}</style></defs><path class="cls-1" d="M71.31,53c0,.32.1.63.17,1.12,2-2.3,4.3-3,6.94-1.44a4.61,4.61,0,0,1,2,4.83c-.5,2.38-1.89,3.49-5.12,4,1.24,4.49-1.3,7.82-6,7.95S60.43,66,60.42,61.42c0-1.75.68-3.08,1.8-3.27,1.54-.25,2.22.89,2.85,2A6.6,6.6,0,0,0,67,62.51c.27.18.57.44.88.25s.22-.68.12-1a14.69,14.69,0,0,0-1.63-3.21,19.83,19.83,0,0,1-2.08-4.39,6.9,6.9,0,0,1,1.11-6.57,17.69,17.69,0,0,1,7.38-5.73C69.84,45.25,70.29,49.09,71.31,53Z"/><path class="cls-1" d="M79.71,72.7A5.59,5.59,0,0,0,81.51,71c-3.78-1.45-5-2.74-4.88-5.28A4.83,4.83,0,0,1,80,61.37c2.42-.71,4.16.05,6,2.69a4.73,4.73,0,0,1,5.8-1,7.85,7.85,0,0,1,4.62,5.74,8,8,0,0,1-2.73,8.38,6.49,6.49,0,0,1-1,.72c-1.33.76-3,.81-3.63,0-.93-1.18-.44-2.38.23-3.48a6,6,0,0,0,1.1-3c0-.27,0-.6-.21-.76s-.62.09-.83.31A16.87,16.87,0,0,0,87.4,73.9c-.67,1.11-1.31,2.24-2.08,3.29a7.2,7.2,0,0,1-7.49,3.17,17.35,17.35,0,0,1-7.64-3.09C74.23,77.56,77.24,75.7,79.71,72.7Z"/><path class="cls-1" d="M92.57,55.2c-.77-.33-.7-.06-.51.57a4.76,4.76,0,0,1-2.32,5.8,4.44,4.44,0,0,1-5.19-.52,4.38,4.38,0,0,1-1.49-5.23c.48-1.2.21-1.48-1-1.73-2.6-.56-4.1-3.61-3.41-6.71,1.07-4.86,6.6-8.56,11.73-6.09a7.29,7.29,0,0,1,1.41.86,2.51,2.51,0,0,1,1,2.59c-.2,1-1.09,1.16-1.88,1.42a5.84,5.84,0,0,1-1.66.15,7.56,7.56,0,0,0-1.79.12c-.53.14-1.38.21-1.29,1s.86.57,1.39.58a36.49,36.49,0,0,1,7.74.54A7.07,7.07,0,0,1,100.5,53a17.92,17.92,0,0,1,1.23,8.44C100,57.61,96.65,56,92.81,55.25h0C92.76,55.13,92.7,55,92.57,55.2Z"/><path class="cls-1" d="M92.79,55.25c3.84.79,7.15,2.35,8.93,6.15,0,3.21-2,5.1-4.58,4.24a3.35,3.35,0,0,1-2.39-3.23c0-.88,0-1.77,0-2.65A5.3,5.3,0,0,0,92.79,55.25Z"/><path class="cls-1" d="M71.31,53c-1-3.91-1.48-7.75,1.43-11.16,1.46-.54,2.92-1,4.34.07a3.35,3.35,0,0,1,1.27,3.46,3.6,3.6,0,0,1-2.48,2.73c-1.88.83-3.72,1.75-4.38,3.95A7.25,7.25,0,0,0,71.31,53Z"/><path class="cls-1" d="M79.71,72.7c-2.47,3-5.48,4.86-9.52,4.58a4,4,0,0,1-2.47-2.8,3.38,3.38,0,0,1,1.47-3.64,3.54,3.54,0,0,1,4,.11c.73.48,1.45,1,2.21,1.42A4.59,4.59,0,0,0,79.71,72.7Z"/><path class="cls-1" d="M92.57,55.2c.13-.16.19-.07.25.06A.51.51,0,0,1,92.57,55.2Z"/><path d="M184.14,64.5a3.79,3.79,0,0,1-.08.52,6.37,6.37,0,0,1-5,4.55,8.3,8.3,0,0,1-3.9-.09,6.43,6.43,0,0,1-4.64-4.35,8.44,8.44,0,0,1,0-5.57,6.37,6.37,0,0,1,5-4.38,8.09,8.09,0,0,1,4.57.27,6.43,6.43,0,0,1,4,4.32.91.91,0,0,1,0,.44,29,29,0,0,1-4.15,0l-.32-.44a3,3,0,0,0-5.12.4,4.88,4.88,0,0,0-.44,2.89,4.22,4.22,0,0,0,.46,1.46,3,3,0,0,0,5.08.39l.32-.45a54.88,54.88,0,0,1,4.19,0Z"/><path d="M146.89,54.42c.05.69,0,1.36,0,2v2c0,.67,0,1.33,0,2s0,1.31,0,2l.13,0s0,0,.06,0a.39.39,0,0,0,.08-.1l.12-.15q1.4-2,2.8-4s0,0,0,0c.53-.07,4.06-.07,4.64,0,.06.2-.11.31-.21.44l-3.74,4.77-.37.5a1.31,1.31,0,0,0,.38.62l3.73,4.62a1.31,1.31,0,0,1,.34.52,36.77,36.77,0,0,1-4.76.06l-.39-.54-2.34-3.48q-.18-.27-.36-.51c-.22.06-.17.21-.17.33V69c0,.21,0,.42,0,.65a1.2,1.2,0,0,1-.27.07h-3.48a.68.68,0,0,1-.17-.05,2.28,2.28,0,0,1-.08-.33,4.47,4.47,0,0,1,0-.52V55.3c0-.28,0-.56,0-.84a4.14,4.14,0,0,1,1.3-.09h1.36A7.32,7.32,0,0,1,146.89,54.42Z"/><path d="M198.68,58.24c.08-.05.11-.09.15-.09l3.48,0,.49,0c.07.21.14.41.2.61l1.77,6.2c.06.19.1.38.17.56a.67.67,0,0,0,.16.18,1.16,1.16,0,0,0,.27-.6l1.77-6.34c.06-.2.13-.39.2-.61l.49,0,3.48,0s.07,0,.14.09-.08.35-.14.53l-3.55,10.3c-.19.53-.13.6-.82.6h-4a.45.45,0,0,1-.48-.34c-.12-.39-.26-.78-.4-1.16l-3.2-9.33C198.79,58.63,198.74,58.43,198.68,58.24Z"/><path d="M140.48,69.62a31.83,31.83,0,0,1-3.92,0,3.59,3.59,0,0,1-.08-.35c0-.12,0-.25,0-.38V55.17c0-.23,0-.46,0-.67.07,0,.1-.1.14-.1h3.77c0,.12.06.24.08.36s0,.3,0,.45V69.62Z"/><path d="M225.93,58.19a28.65,28.65,0,0,1,3.83,0c.17.57,0,1.18.11,1.74.17.06.23,0,.3-.12s.37-.41.58-.6A4.35,4.35,0,0,1,233,58.06a2.67,2.67,0,0,1,.49,0,.57.57,0,0,1,.07.21c0,1.21,0,2.41,0,3.61,0,.09,0,.17,0,.27a1.93,1.93,0,0,1-.71.07c-.42,0-.85.05-1.28.11a1.89,1.89,0,0,0-1.71,1.94c0,.25,0,.51,0,.77v3.87a1.47,1.47,0,0,1-.07.65,1.14,1.14,0,0,1-.3.09h-3.29a.9.9,0,0,1-.23-.08c-.08-.64-.12-7.79-.05-10.91A4.26,4.26,0,0,1,225.93,58.19Z"/><path d="M168.09,58.3a.73.73,0,0,0-.1-.2h-1.28c-.43,0-.86,0-1.29,0a4.1,4.1,0,0,0-1.26.08c-.13.43,0,.87-.14,1.35l-.34-.34a3.18,3.18,0,0,0-1.43-1,4.65,4.65,0,0,0-4.76.93,4.89,4.89,0,0,0-1.24,1.79,8,8,0,0,0-.43,4.43,5.88,5.88,0,0,0,.76,2.11,4.5,4.5,0,0,0,3.33,2.3,4,4,0,0,0,3.9-1.34c0-.05.12-.09.22-.18.15.48,0,1,.13,1.36a24.38,24.38,0,0,0,3.92,0c0-.19,0-.33,0-.48V58.69A2.55,2.55,0,0,0,168.09,58.3ZM164,64.8a2,2,0,0,1-2.14,1.51,2.07,2.07,0,0,1-1.95-1.82c0-.21,0-.43-.07-.72a5.9,5.9,0,0,1,.15-.81,2,2,0,0,1,1.93-1.51,2,2,0,0,1,2.06,1.45A3.08,3.08,0,0,1,164,64.8Z"/><path d="M121.5,59.63a4.4,4.4,0,0,0-3.2-4.22,7.28,7.28,0,0,0-2.22-.33h-5.62a3.19,3.19,0,0,0-.46.08V68.79a4.51,4.51,0,0,0,0,.52,2.21,2.21,0,0,0,.08.35l.29,0h3.22a2.56,2.56,0,0,0,.4-.08V68c0-.51,0-1,0-1.55a10.35,10.35,0,0,1,0-1.58,1,1,0,0,1,.64-.11l2.07,0a5.33,5.33,0,0,0,1.58-.3,4.47,4.47,0,0,0,3-3A5.35,5.35,0,0,0,121.5,59.63Zm-4.14.76a1.23,1.23,0,0,1-1.12,1.08,18.82,18.82,0,0,1-2,.06.49.49,0,0,1-.17-.06,13.87,13.87,0,0,1,0-3.09l.36-.05h1.29a2.34,2.34,0,0,1,.38,0,2.9,2.9,0,0,1,.66.25A1.62,1.62,0,0,1,117.36,60.39Z"/><path d="M134.64,62.76a5.35,5.35,0,0,0-3.47-4.37,7.87,7.87,0,0,0-2.46-.5,17.72,17.72,0,0,0-1.78.25,5.39,5.39,0,0,0-4.19,4.17,6.5,6.5,0,0,0-.07,2.81,5.33,5.33,0,0,0,3.62,4.32,6.78,6.78,0,0,0,4.74,0,5.34,5.34,0,0,0,3.52-4A6.59,6.59,0,0,0,134.64,62.76Zm-4.31,2.53a1.79,1.79,0,0,1-1.78,1,1.75,1.75,0,0,1-1.66-1.21,3.58,3.58,0,0,1-.16-.56c0-.23-.06-.46-.09-.7a3.34,3.34,0,0,1,.29-1.32,1.89,1.89,0,0,1,3.42-.06A3.13,3.13,0,0,1,130.33,65.29Z"/><path d="M197.68,62.91a5.33,5.33,0,0,0-2.91-4.23,6.7,6.7,0,0,0-3.05-.74,15.39,15.39,0,0,0-1.66.22,5.36,5.36,0,0,0-4.16,3.89,6.62,6.62,0,0,0-.18,2.62,5.24,5.24,0,0,0,3.21,4.56,6.7,6.7,0,0,0,5.27.11,5.23,5.23,0,0,0,3.35-3.81A6.61,6.61,0,0,0,197.68,62.91Zm-4.23,2.36a2,2,0,0,1-2.43,1,1.8,1.8,0,0,1-1.07-1,3.34,3.34,0,0,1,0-2.63,1.79,1.79,0,0,1,1.74-1.19,1.83,1.83,0,0,1,1.82,1.17,2.84,2.84,0,0,1,.25,1.31A2.88,2.88,0,0,1,193.45,65.27Z"/><path d="M224,64.66a6.77,6.77,0,0,0-.12-2.63,5.06,5.06,0,0,0-3.25-3.65,6.81,6.81,0,0,0-4.37-.11,5,5,0,0,0-3.53,3.46,7,7,0,0,0,0,4.37,5,5,0,0,0,3.15,3.28,6.34,6.34,0,0,0,4.84-.08,5,5,0,0,0,3-3.14,1.55,1.55,0,0,0,.07-.31c-.09,0-.14-.08-.2-.08h-3.91c-.81.9-1.51,1.11-2.34.72a1.72,1.72,0,0,1-.9-1.83Zm-7.55-2.35a2,2,0,0,1,3.17-.7,1.19,1.19,0,0,1,.36,1.1.56.56,0,0,1-.19.07h-3a2.5,2.5,0,0,1-.35,0A2,2,0,0,1,216.44,62.31Z"/></svg>