<svg id="图层_1" data-name="图层 1" xmlns="http://www.w3.org/2000/svg" viewBox="0 0 294 121"><path d="M88.81,51.93a3.72,3.72,0,1,1,3.76-3.72,3.72,3.72,0,0,1-3.76,3.72Z"/><path d="M85.94,54.84a3.72,3.72,0,1,1-3.71-3.77,3.73,3.73,0,0,1,3.71,3.77Z"/><path d="M115.27,65.13A3.72,3.72,0,1,1,119,61.38,3.73,3.73,0,0,1,115.27,65.13Z"/><path d="M115.28,44.5a3.72,3.72,0,1,1-3.77,3.72,3.71,3.71,0,0,1,3.77-3.72Z"/><path d="M112.37,54.86A3.71,3.71,0,1,1,105,55v-.23a3.72,3.72,0,1,1,7.43-.09A1.77,1.77,0,0,1,112.37,54.86Z"/><path d="M88.8,65.13a3.73,3.73,0,1,1,3.76-3.72A3.77,3.77,0,0,1,88.8,65.13Z"/><path d="M91.71,54.83a3.72,3.72,0,1,1,3.77,3.72,3.72,3.72,0,0,1-3.77-3.72Z"/><path d="M125.59,54.86a3.73,3.73,0,1,1-3.7-3.77A3.73,3.73,0,0,1,125.59,54.86Z"/><path d="M108.65,70.79A2.8,2.8,0,1,1,111.47,68v0A2.82,2.82,0,0,1,108.65,70.79Z"/><path d="M75.66,58.61a2.8,2.8,0,1,1-2.82,2.77v0A2.83,2.83,0,0,1,75.66,58.61Z"/><path d="M95.44,70.79A2.8,2.8,0,1,1,98.22,68h0A2.82,2.82,0,0,1,95.44,70.79Z"/><path d="M82.2,70.79A2.8,2.8,0,1,1,85,68v0A2.82,2.82,0,0,1,82.2,70.79Z"/><path d="M104.8,61.4A2.79,2.79,0,1,1,102,58.61h0A2.79,2.79,0,0,1,104.8,61.4Z"/><path d="M121.86,70.79a2.8,2.8,0,1,1,2.79-2.8v0A2.8,2.8,0,0,1,121.86,70.79Z"/><path d="M131.26,61.36a2.83,2.83,0,1,1-2.9-2.75h.08A2.82,2.82,0,0,1,131.26,61.36Z"/><path d="M77.48,74.6a1.85,1.85,0,1,1-1.84-1.88A1.88,1.88,0,0,1,77.48,74.6Z"/><path d="M128.45,72.73a1.89,1.89,0,1,1-1.84,1.93v0A1.89,1.89,0,0,1,128.45,72.73Z"/><path d="M100.16,74.58a2,2,0,1,1,2.35,1.89,1.68,1.68,0,0,1-.5,0A1.88,1.88,0,0,1,100.16,74.58Z"/><path d="M67.18,68A1.84,1.84,0,0,1,69,66.15h0a1.87,1.87,0,1,1,0,3.73A1.86,1.86,0,0,1,67.18,68Z"/><path d="M136.91,68a1.87,1.87,0,1,1-1.85-1.87A1.84,1.84,0,0,1,136.91,68Z"/><path d="M169.62,70.9h-4.16V58L160,65.5,154.4,58V70.9h-4.16V50.1h4.16L160,58.28l5.44-8.18h4.16Z"/><path d="M192.36,70.9h-4.47l-2-4.85H177.7l-2,4.85h-4.41l8.32-20.8H184Zm-8.11-9-2.32-6.1-2.57,6.1Z"/><path d="M207.41,54.12h-5.68V70.9h-4.06V54.12H192v-4h15.39Z"/><path d="M226.82,70.9h-4.15V61.82h-8.36V70.9h-4.15V50.1h4.15v7.56h8.36V50.1h4.15Z"/></svg>