<svg id="图层_1" data-name="图层 1" xmlns="http://www.w3.org/2000/svg" viewBox="0 0 294 121"><defs><style>.cls-1{fill:none;stroke:#fff;stroke-linejoin:round;stroke-width:1.34px;}.cls-2{fill:#fff;}</style></defs><circle cx="107.77" cy="60.5" r="24"/><path class="cls-1" d="M102.12,76.37c-7,0-12.73-7.11-12.73-15.87s5.7-15.87,12.73-15.87h0c-9.38,7.35-9.38,24.39,0,31.74Z"/><path class="cls-1" d="M113.41,76.37c7,0,12.73-7.11,12.73-15.87s-5.7-15.87-12.73-15.87h0c9.38,7.35,9.38,24.39,0,31.74Z"/><path class="cls-2" d="M109.08,69.44h-2.52a.49.49,0,0,1-.33-.13.46.46,0,0,1-.14-.34V65.5h-4.21a.46.46,0,0,1-.47-.47v-1.5a.45.45,0,0,1,.14-.33.47.47,0,0,1,.33-.14h4.21V61.82h-4.21a.47.47,0,0,1-.33-.14.44.44,0,0,1-.14-.33V59.83a.45.45,0,0,1,.14-.33.47.47,0,0,1,.33-.14H105l-4.69-7.1a.47.47,0,0,1,0-.46.44.44,0,0,1,.41-.24h2.83a.47.47,0,0,1,.43.27s3.6,5.83,4,6.68c.1-.23,3.64-6.67,3.64-6.67a.42.42,0,0,1,.42-.28h2.8a.48.48,0,0,1,.41.69l-4.58,7.11h3.14a.45.45,0,0,1,.33.14.42.42,0,0,1,.14.33v1.52a.4.4,0,0,1-.14.33.45.45,0,0,1-.33.14h-4.24v1.24h4.24a.45.45,0,0,1,.33.14.42.42,0,0,1,.14.33V65a.42.42,0,0,1-.14.34.44.44,0,0,1-.33.13h-4.24V69a.42.42,0,0,1-.14.33.45.45,0,0,1-.32.14Zm-.49-3.32"/><path d="M142.24,69a7,7,0,0,1-2.48-2.17l3.23-3a3.79,3.79,0,0,0,2.81,1.68c1.37,0,2.06-.85,2.06-2.53V51.47h5V62.92A6.89,6.89,0,0,1,151.06,68a6.69,6.69,0,0,1-4.95,1.83A8.18,8.18,0,0,1,142.24,69Z"/><path d="M157.09,51.47h7.74a8.25,8.25,0,0,1,5.46,1.68,5.76,5.76,0,0,1,2,4.67v0a5.88,5.88,0,0,1-2.19,4.85,8.73,8.73,0,0,1-5.57,1.65h-2.48v5.16h-5Zm7.38,9c1.9,0,2.86-.78,2.86-2.35v-.05c0-1.58-1-2.37-2.89-2.37h-2.35v4.77Z"/><path d="M180.5,62.77l-6.86-11.3h5.7l3.72,6.58,3.74-6.58h5.59l-6.86,11.22v6.84h-5Z"/><path d="M195.67,67.23a9,9,0,0,1-2.74-6.68v0a9.1,9.1,0,0,1,2.71-6.68,9.3,9.3,0,0,1,6.81-2.71,9.71,9.71,0,0,1,4.61,1.06,8.89,8.89,0,0,1,3.05,2.71l-3.77,2.91a5,5,0,0,0-3.94-2.11,4,4,0,0,0-3.1,1.39,4.9,4.9,0,0,0-1.21,3.38v0a5,5,0,0,0,1.21,3.43,3.92,3.92,0,0,0,3.1,1.39,4.67,4.67,0,0,0,2.34-.59,7.53,7.53,0,0,0,1.73-1.6l3.76,2.68a10.23,10.23,0,0,1-3.14,2.92,9.7,9.7,0,0,1-4.85,1.16A9,9,0,0,1,195.67,67.23Z"/></svg>