<svg id="图层_1" data-name="图层 1" xmlns="http://www.w3.org/2000/svg" viewBox="0 0 294 121"><polygon points="107.2 48.48 107.2 40.5 83.27 40.5 82.12 40.5 75.29 40.5 75.29 56.46 75.29 59 75.29 60.45 83.27 60.45 83.27 68.42 107.2 68.42 107.2 60.45 83.27 60.45 83.27 59 83.27 56.46 83.27 48.48 107.2 48.48 107.2 60.45 115.18 60.45 115.18 48.48 107.2 48.48"/><polygon points="75.29 70.42 75.29 72.42 75.29 80.39 83.27 80.39 83.27 72.42 83.27 72.42 83.27 68.42 75.29 68.42 75.29 70.42"/><path d="M126.19,56.44v4h-3.1v-12h4.71a8.17,8.17,0,0,1,2.41.3,4.74,4.74,0,0,1,1.67.82,3.23,3.23,0,0,1,1,1.24,4,4,0,0,1,.32,1.55,4.39,4.39,0,0,1-.32,1.64,3.43,3.43,0,0,1-1,1.28,4.87,4.87,0,0,1-1.67.84,8.42,8.42,0,0,1-2.39.29Zm0-2.09h1.61a2.39,2.39,0,0,0,1.73-.52,1.88,1.88,0,0,0,.53-1.44,1.91,1.91,0,0,0-.13-.75,1.6,1.6,0,0,0-.42-.58,2,2,0,0,0-.7-.37,3.15,3.15,0,0,0-1-.13h-1.61Z"/><polygon points="146.81 60.45 143.7 60.45 143.7 55.38 138.29 55.38 138.29 60.45 135.18 60.45 135.18 48.48 138.29 48.48 138.29 53.48 143.7 53.48 143.7 48.48 146.81 48.48 146.81 60.45"/><path d="M161.92,60.45h-2.4a1.22,1.22,0,0,1-.67-.17.89.89,0,0,1-.36-.43l-.78-2.09h-5.07l-.78,2.09a1,1,0,0,1-.36.41,1.15,1.15,0,0,1-.65.19h-2.41l5.15-12h3.17Zm-8.56-4.58H157l-1.23-3.28-.28-.73c-.1-.29-.21-.59-.31-.92q-.15.51-.3.93c-.11.29-.2.53-.3.74Z"/><polygon points="166.6 58.23 171.54 58.23 171.54 60.45 163.51 60.45 163.51 48.48 166.6 48.48 166.6 58.23"/><path d="M186.06,60.45h-2.4a1.22,1.22,0,0,1-.67-.17.89.89,0,0,1-.36-.43l-.79-2.09h-5.06L176,59.85a1,1,0,0,1-.36.41,1.15,1.15,0,0,1-.65.19h-2.42l5.16-12h3.18Zm-8.56-4.58h3.63l-1.23-3.28c-.08-.21-.17-.44-.27-.73s-.22-.59-.32-.92q-.15.51-.3.93c-.11.29-.2.53-.29.74Z"/><path d="M125,68.57a1,1,0,0,1,.25.06.63.63,0,0,1,.2.13,2.39,2.39,0,0,1,.23.22L132,76.07c0-.22,0-.44-.06-.66s0-.42,0-.61V68.55h2.71V80.38H133a1.7,1.7,0,0,1-.59-.1,1.22,1.22,0,0,1-.48-.36l-6.22-7c0,.21,0,.41,0,.61s0,.38,0,.55v6.34h-2.7V68.55h1.62l.33,0"/><polygon points="145.58 68.56 145.58 70.66 140.16 70.66 140.16 73.42 144.31 73.42 144.31 75.45 140.16 75.45 140.16 78.26 145.58 78.26 145.58 80.37 137.08 80.37 137.08 68.56 145.58 68.56"/><polygon points="157.47 68.56 157.47 70.73 153.75 70.73 153.75 80.37 150.69 80.37 150.69 70.73 146.97 70.73 146.97 68.56 157.47 68.56"/><path d="M158.41,68.55H161a1.29,1.29,0,0,1,.67.17.72.72,0,0,1,.35.43l1.81,6.16c.06.2.12.41.18.64a4.46,4.46,0,0,1,.14.71c.06-.25.13-.49.2-.71s.14-.45.21-.64l2.14-6.16a.86.86,0,0,1,.34-.41,1.17,1.17,0,0,1,.65-.19h.91a1.27,1.27,0,0,1,.66.16.81.81,0,0,1,.35.44l2.12,6.16q.1.28.21.6a5.91,5.91,0,0,1,.19.69c0-.24.1-.47.15-.67s.11-.42.16-.61l1.81-6.16a.85.85,0,0,1,.35-.42,1.13,1.13,0,0,1,.65-.17h2.41l-4.08,11.82h-2.77l-2.49-7.34-.13-.38c0-.13-.09-.27-.13-.43,0,.16-.09.3-.13.43l-.13.38-2.52,7.32h-2.77Z"/><path d="M192.47,74.46a5.69,5.69,0,0,1-1.89,4.3A6.48,6.48,0,0,1,188.42,80a8.83,8.83,0,0,1-5.61,0,6.52,6.52,0,0,1-2.17-1.28,5.64,5.64,0,0,1-1.39-1.92,6,6,0,0,1,0-4.77,5.6,5.6,0,0,1,1.39-1.91,6.6,6.6,0,0,1,2.17-1.27,8.78,8.78,0,0,1,5.61,0,6.48,6.48,0,0,1,2.16,1.28,5.63,5.63,0,0,1,1.4,1.91,5.73,5.73,0,0,1,.49,2.38m-3.13,0a4.72,4.72,0,0,0-.26-1.58,3.2,3.2,0,0,0-.73-1.19,3.15,3.15,0,0,0-1.16-.74,4.37,4.37,0,0,0-1.56-.26A4.53,4.53,0,0,0,184,71a3.15,3.15,0,0,0-1.16.74,3.2,3.2,0,0,0-.73,1.19,5,5,0,0,0,0,3.16A3,3,0,0,0,184,78a4.48,4.48,0,0,0,1.58.26,4.6,4.6,0,0,0,1.56-.26A3,3,0,0,0,189.07,76a4.53,4.53,0,0,0,.26-1.59"/><path d="M197.43,76v4.37h-3.06V68.55h4.29a9.46,9.46,0,0,1,2.44.26,4.65,4.65,0,0,1,1.65.74,2.64,2.64,0,0,1,.93,1.11,3.18,3.18,0,0,1,.29,1.39,3.36,3.36,0,0,1-.17,1.09,3.49,3.49,0,0,1-.51,1,3.62,3.62,0,0,1-.84.77,4.41,4.41,0,0,1-1.13.56,3.3,3.3,0,0,1,.57.34,2.23,2.23,0,0,1,.47.5l2.81,4.11H202.4a1.23,1.23,0,0,1-1.12-.52l-2.19-3.43a.9.9,0,0,0-.34-.33,1.28,1.28,0,0,0-.55-.09Zm0-1.89h1.23a3.54,3.54,0,0,0,1.07-.14,2,2,0,0,0,.72-.4,1.58,1.58,0,0,0,.41-.58,2.28,2.28,0,0,0,.12-.73,1.48,1.48,0,0,0-.56-1.22,2.9,2.9,0,0,0-1.76-.44h-1.23Z"/><path d="M210,73.34h.48a1.16,1.16,0,0,0,1-.38l3-3.86a1.22,1.22,0,0,1,.55-.43,2.53,2.53,0,0,1,.77-.12h2.67l-3.91,4.78a2.29,2.29,0,0,1-.45.43,2.18,2.18,0,0,1-.46.28,2.34,2.34,0,0,1,.63.32,2,2,0,0,1,.52.53l4,5.48H216a3.15,3.15,0,0,1-.44,0,1.26,1.26,0,0,1-.33-.1.87.87,0,0,1-.23-.16,2,2,0,0,1-.19-.22l-3-4.11a.86.86,0,0,0-.41-.32,2.22,2.22,0,0,0-.67-.1H210v5h-3.07V68.54H210Z"/></svg>