<svg id="图层_1" data-name="图层 1" xmlns="http://www.w3.org/2000/svg" viewBox="0 0 294 121"><path d="M73.21,42.5H51.61a7.2,7.2,0,0,0-7.2,7.2V71.3a7.2,7.2,0,0,0,7.2,7.2h21.6a7.2,7.2,0,0,0,7.2-7.2V49.7A7.2,7.2,0,0,0,73.21,42.5ZM64.13,70.79H59V55.36H52.13V50.21h12Zm6-15.43a2.58,2.58,0,1,1,2.57-2.57A2.58,2.58,0,0,1,70.13,55.36Z"/><path d="M115.77,58.47a3.64,3.64,0,0,0-3.89-3.67h-4.51V66.2h2.8V62h.94l2,4.24h3.25l-2.46-4.76A3.27,3.27,0,0,0,115.77,58.47Zm-4,1.15h-1.58V57.31h1.58a1.16,1.16,0,1,1,0,2.31Z"/><polygon points="121 66.2 128.75 66.2 128.75 63.7 123.81 63.7 123.81 61.7 128.03 61.7 128.03 59.2 123.81 59.2 123.81 57.3 128.75 57.3 128.75 54.8 121 54.8 121 66.2"/><polygon points="136.93 54.8 132.78 66.2 135.72 66.2 136.05 65.19 136.05 65.19 136.28 64.5 136.28 64.5 138.08 59.12 140.08 65.45 140.08 65.45 140.31 66.2 143.24 66.2 139.09 54.8 136.93 54.8"/><polygon points="216.03 54.8 211.89 66.2 214.82 66.2 215.15 65.19 215.15 65.19 215.38 64.5 215.38 64.5 217.19 59.12 219.19 65.45 219.18 65.45 219.41 66.2 222.34 66.2 218.19 54.8 216.03 54.8"/><path d="M152.15,59.27l-1.37-.2a1.3,1.3,0,0,1-.79-.33.79.79,0,0,1-.22-.53c0-.5.4-1.06,1.37-1.06a2.8,2.8,0,0,1,2.17.68l1.76-1.77a5.1,5.1,0,0,0-3.85-1.36c-2.59,0-4.16,1.52-4.16,3.61a3.17,3.17,0,0,0,.79,2.29,3.87,3.87,0,0,0,2.29,1l1.37.2a1.35,1.35,0,0,1,.76.3,1,1,0,0,1,.22.67c0,.66-.53,1-1.63,1a3.72,3.72,0,0,1-2.55-.8l-1.79,1.79a5.54,5.54,0,0,0,4.32,1.51c2.4,0,4.4-1.27,4.4-3.59a3.35,3.35,0,0,0-.84-2.5A3.85,3.85,0,0,0,152.15,59.27Z"/><path d="M165.93,62.13a1.53,1.53,0,1,1-3,0V54.8h-2.8v7.4a4.33,4.33,0,0,0,8.65,0V54.8h-2.81Z"/><path d="M182.45,58.47a3.64,3.64,0,0,0-3.89-3.67h-4.51V66.2h2.8V62h.94l2,4.24h3.25l-2.46-4.76A3.27,3.27,0,0,0,182.45,58.47Zm-4,1.15h-1.59V57.31h1.59a1.16,1.16,0,1,1,0,2.31Z"/><polygon points="187.69 66.2 195.44 66.2 195.44 63.7 190.49 63.7 190.49 61.7 194.72 61.7 194.72 59.2 190.49 59.2 190.49 57.3 195.44 57.3 195.44 54.8 187.69 54.8 187.69 66.2"/><polygon points="203.42 54.8 200.62 54.8 200.62 66.2 208.21 66.2 208.21 63.7 203.42 63.7 203.42 54.8"/><polygon points="232.79 60.53 229.14 54.8 226.69 54.8 226.69 66.2 229.49 66.2 229.49 60.47 233.15 66.2 235.59 66.2 235.59 54.8 232.79 54.8 232.79 60.53"/><path d="M248.4,55.92a4.28,4.28,0,0,0-3.08-1.12H241.1V66.2h4.22a4.28,4.28,0,0,0,3.08-1.12c1.33-1.33,1.18-2.79,1.18-4.58S249.73,57.25,248.4,55.92Zm-1.92,7.14a1.45,1.45,0,0,1-1.35.64H243.9V57.3h1.23a1.45,1.45,0,0,1,1.35.64c.22.32.3.64.3,2.56S246.7,62.74,246.48,63.06Z"/><polygon points="91.31 57.77 94.73 57.77 94.73 66.2 97.73 66.2 97.73 57.77 97.73 57.77 97.73 54.77 91.31 54.77 91.31 57.77"/><path d="M101.17,54.77a1.58,1.58,0,1,0,1.58,1.58A1.58,1.58,0,0,0,101.17,54.77Z"/></svg>