<svg id="图层_1" data-name="图层 1" xmlns="http://www.w3.org/2000/svg" viewBox="0 0 294 121"><path d="M182.8,56.66a7.44,7.44,0,0,0-4.26-4.6h0a12.42,12.42,0,0,0-2.12-.41c-3-.15-6.11-.06-9.16-.06-1.49,0-2,.6-2,2.09,0,1.7,0,3.39,0,5.1v1.9l0,6.39c0,1.86.48,2.35,2.37,2.35,2.51,0,5,0,7.53,0a11.24,11.24,0,0,0,2.24-.19,7.4,7.4,0,0,0,5-3.61h0c1-2.12.82-4.42.88-6.68C183,58.2,183,57.41,182.8,56.66Zm-3.26,7.13a3.88,3.88,0,0,1-3.78,2.38c-2.19.07-4.38,0-6.57,0-.51,0-.7-.15-.7-.69,0-2.24,0-4.49,0-6.73h0c0-1.12,0-2.25,0-3.37,0-.45.17-.6.61-.59,2.28,0,4.56-.06,6.83,0a3.78,3.78,0,0,1,3.88,3.48A11.78,11.78,0,0,1,179.54,63.79Z"/><path d="M154.81,62.09c0-.45.12-.92-.34-1.24,0-2.82,0-5.65,0-8.47,0-.59-.15-.85-.78-.81a12.49,12.49,0,0,1-1.73,0c-.62,0-.78.22-.77.8,0,1.87,0,3.74,0,5.62,0,.61-.13.88-.81.87q-4.94,0-9.87,0c-.63,0-.78-.22-.77-.81,0-1.87,0-3.74,0-5.62,0-.71-.22-.9-.88-.86s-1.39,0-2.08,0c-.26-.2-.42,0-.57.16a3.35,3.35,0,0,0-.16,1.54q0,7,0,14.09c0,2.5.17,2.66,2.64,2.56,1.13,0,1.38-.28,1.41-1.39,0-1.5,0-3,0-4.5,0-1.19.17-1.35,1.36-1.36,2,0,4.09,0,6.14-.06.94.13,1.88-.08,2.81.12.4.28.32.71.33,1.1,0,1.59,0,3.17,0,4.76,0,1,.34,1.3,1.39,1.32a6,6,0,0,1,1.12,0c1.22,0,1.49-.26,1.54-1.48a18.26,18.26,0,0,0,0-2A41.31,41.31,0,0,0,154.81,62.09Z"/><path d="M202.57,68.77c0-.82,0-1.65,0-2.47a2.59,2.59,0,0,0-1.1-.11h-10.2a1.74,1.74,0,0,1-1-.12h0a.81.81,0,0,1-.68-.84h0a2.53,2.53,0,0,1-.11-1.19c0-2.73,0-5.46,0-8.2,0-.85.26-1,1.07-1,3.72,0,7.44,0,11.15,0,.7,0,.93-.23.86-.89a9.58,9.58,0,0,0-.14-2.39.42.42,0,0,1,0-.27,6,6,0,0,0-2.35-.12,7,7,0,0,0-2.09.06h0v.3h-7.11c-1.32.17-2.67-.2-3.95.33a2.38,2.38,0,0,0-.61,1.74q0,6.21.05,12.44a4.72,4.72,0,0,0,4.17,3.43h11.43C202.38,69.45,202.58,69.25,202.57,68.77Z"/><path d="M130.22,59.13a20.63,20.63,0,0,0-4.15-.33h0c-1.76,0-3.51.06-5.27,0A1.69,1.69,0,0,1,119.14,57a1.75,1.75,0,0,1,1.51-2,2.17,2.17,0,0,1,1.1-.12h9.6c.41,0,.84.05.82-.56h0c-.13-.91.09-1.84-.13-2.74h0c-1.93.09-3.87.07-5.8,0-1.46,0-2.93.07-4.39,0a5.73,5.73,0,0,0-5.62,3.08c-.25.11,0,.39-.2.54a9.65,9.65,0,0,0,0,3.39c0,.84,0,1.66,1.09,1.92a4.4,4.4,0,0,0,1.72,1.2,10.79,10.79,0,0,0,3.66.48c2.1,0,4.2,0,6.3,0a1.77,1.77,0,0,1,1.73,1.8,1.87,1.87,0,0,1-1.3,2c-1.72.16-3.44,0-5.16.06-1.13,0-2.25,0-3.37,0-.3,0-.59,0-.69-.25-1,0-2.06-.07-3.09,0s-1.23.3-1.28,1.25a5.11,5.11,0,0,0,.09,1.46,1.05,1.05,0,0,0,.26.61l0,.19,5.87,0a3,3,0,0,1,1.12.09h0l1.72,0c1.49,0,3,.07,4.48-.09a4.93,4.93,0,0,0,4.51-4.46C134,62.18,133,60.47,130.22,59.13Z"/><path d="M224,52.37a1.16,1.16,0,0,0-.29-1,5,5,0,0,0-2.85-.22.63.63,0,0,0-.53,1V55a4.31,4.31,0,0,0-.26,1.17c-.16,1.95-.09,3.91-.12,5.86a1.38,1.38,0,0,1-.15.95,27.3,27.3,0,0,1-2.45-2.49,3.21,3.21,0,0,0-1.57-1.15l-.14-.14a2.66,2.66,0,0,0-.79-1.3c-1.06-1.06-2.16-2.08-3.11-3.24a3.4,3.4,0,0,0-1.82-1.38c-.35-.34-.71-.66-1-1-1.23-1.25-2-1.22-3.1.14q0,8.18,0,16.36a1.43,1.43,0,0,0,.13.76h0c.72,0,1.44-.09,2.15,0s.94-.2.93-.92c0-3.49,0-7,0-10.47a1.54,1.54,0,0,1,.13-1,7.4,7.4,0,0,1,1.5,1.51.65.65,0,0,0,.2.71c1.3,1.24,2.35,2.75,4,3.63l5.67,5.85a4.1,4.1,0,0,0,1.15.88l.31,0a.92.92,0,0,0,1.13,0,2,2,0,0,0,1-1.89c0-3.09.07-6.17,0-9.25C224,56.49,224,54.43,224,52.37Z"/><path d="M205.56,69.16v.17h0l.28.16h0A.74.74,0,0,1,205.56,69.16Z"/><path d="M161.46,54c0-2.42,0-2.4-2.4-2.38-.67,0-.82.25-.82.86,0,2.68,0,5.36,0,8v6.75c0,2.16,0,2.12,2.17,2.17.86,0,1.06-.28,1-1.09C161.45,63.55,161.46,58.77,161.46,54Z"/><path d="M191.24,61c0,.53.22.8.77.82.33,0,.7,0,.91.34A1,1,0,0,1,193,62a2.42,2.42,0,0,1,1.27-.18h5.2c1,0,1.14-.16,1.17-1.15,0-1.41-.08-1.52-1.5-1.52H195.8a2.08,2.08,0,0,1-1.1-.17,1.45,1.45,0,0,1-.12-.19h-3.15A7.11,7.11,0,0,0,191.24,61Z"/><path d="M194.7,59a2.18,2.18,0,0,0,1.1.17c1.13,0,2.25,0,3.38,0,1.43,0,1.54.11,1.5,1.52,0,1-.16,1.14-1.17,1.15-1.73,0-3.46,0-5.19,0a2.29,2.29,0,0,0-1.27.18,1.09,1.09,0,0,0-.13.17h0c2.43,0,4.85,0,7.27,0,.66,0,1-.14.89-.86a7.49,7.49,0,0,1,0-1.64c.08-.72-.24-.87-.89-.86-1.84,0-3.69,0-5.54,0h-.07Z"/><path d="M192,61.86c-.54,0-.77-.29-.77-.82a7.64,7.64,0,0,1,.19-2.24h-.22c-.71.37-.33,1-.34,1.53-.05,1.8,0,1.8,1.73,1.84.11,0,.22,0,.33,0h0C192.71,61.85,192.34,61.87,192,61.86Z"/><path d="M192.91,62.21h0Z"/><path d="M191.3,55.07l-.11-.09v.1Z"/><path d="M194.58,58.8h.08a.57.57,0,0,0-.13-.08Z"/><path d="M97.29,48.07a35.31,35.31,0,0,0-13.92,7.65c-4.94,4.64-1.58,8.79-1.55,8.83S80,61.21,84.39,57.1a39.49,39.49,0,0,1,13.77-7.19c1-.3,2.08-.54,3.11-.73h.07l1.31-2.12-.32,0A27.37,27.37,0,0,0,97.29,48.07Z"/><path d="M102.88,42.13c-.84-.71-1.67-1.26-1.68-1.27l0,0h-.06A39.1,39.1,0,0,0,95.7,42c-5.56,1.58-13,4.83-17.08,11.31-1.92,2.94-.37,6.46-.37,6.46l0-.9c0-.09-.27-9.58,19.17-15.12,1.71-.49,3.53-.93,5.44-1.33l.33-.07Z"/><path d="M104.06,43.37a39,39,0,0,0-6.15,1.29,40.23,40.23,0,0,0-14,7c-2.8,2.17-4.57,4.79-4.85,7.19-.15,1.17,1.22,3.66,1.22,3.66L80,61.6s-1.24-4.06,5-8.72a33.92,33.92,0,0,1,11.41-5.63c2.22-.63,4.35-1,6.7-1.48l.08,0,0-.08c.17-.38,1-2,1-2.06l.14-.27Z"/><path d="M76.88,55.57c.23-3.77,3.08-7.25,8.48-10.34a36.45,36.45,0,0,1,9.45-4.15A34.4,34.4,0,0,1,100.17,40l-2-1.42a31.13,31.13,0,0,0-4.44,1C77.07,44.29,75,52.48,75.19,55.77c.32,5.74,7.08,9.82,7.08,9.82S76.53,61.18,76.88,55.57Z"/><path d="M77.08,72.93A35.31,35.31,0,0,0,91,65.28c4.94-4.64,1.58-8.79,1.55-8.83S94.36,59.79,90,63.9a39.49,39.49,0,0,1-13.77,7.19,31.78,31.78,0,0,1-3.11.73H73L71.72,74l.32,0A27.37,27.37,0,0,0,77.08,72.93Z"/><path d="M71.49,78.87c.84.71,1.67,1.26,1.68,1.27l0,0h.06A39.1,39.1,0,0,0,78.67,79c5.56-1.58,13-4.83,17.08-11.31,1.92-2.94.38-6.46.38-6.46l0,.9c0,.09.27,9.58-19.17,15.12-1.71.49-3.53.93-5.44,1.33l-.33.07Z"/><path d="M70.31,77.63a39,39,0,0,0,6.15-1.29,40.23,40.23,0,0,0,14-7c2.8-2.17,4.57-4.79,4.86-7.19.14-1.17-1.23-3.66-1.23-3.66l.28.89s1.24,4.06-5,8.72A33.92,33.92,0,0,1,78,73.75c-2.22.63-4.35,1-6.7,1.48l-.08,0,0,.08c-.17.38-1,2-1,2.06l-.14.27Z"/><path d="M97.49,65.43c-.23,3.77-3.08,7.25-8.48,10.34a36.45,36.45,0,0,1-9.45,4.15A34.4,34.4,0,0,1,74.2,81l2,1.42a31.13,31.13,0,0,0,4.44-1C97.3,76.71,99.36,68.52,99.18,65.23c-.32-5.74-7.08-9.82-7.08-9.82S97.84,59.82,97.49,65.43Z"/></svg>