<svg id="图层_1" data-name="图层 1" xmlns="http://www.w3.org/2000/svg" viewBox="0 0 294 121"><path d="M205.13,59.52a10.48,10.48,0,0,0-15.62-8.59,11.47,11.47,0,0,0-4.9,14.15,10.6,10.6,0,0,0,13.5,6,10.84,10.84,0,0,0,7-10.59C205.13,60.15,205.15,59.84,205.13,59.52Zm-10.62,5.15a3,3,0,0,1-2.95-1.84c-.89-2-.43-4.28,1.07-5.19a3.06,3.06,0,0,1,3.24-.18,3.63,3.63,0,0,1,1.81,3.21C197.7,63,196.35,64.6,194.51,64.67Z"/><path d="M182.79,48.41c-4.35-1.22-8.4-.72-11.95,2.18-3.07,2.5-4.28,6-4.59,9.79a10.52,10.52,0,0,0,2.95,8.86c3.67,3.6,8.78,3.45,12.93,1.59a1,1,0,0,0,.4-.69c.14-1.11.21-2.21.31-3.31.1-1.3.21-2.57.33-4-.56.24-1,.45-1.42.64a8.8,8.8,0,0,1-4.26.81,3.17,3.17,0,0,1-3.05-2.47,5.11,5.11,0,0,1,3.07-5.67,8.85,8.85,0,0,1,5-.43,2.28,2.28,0,0,0,.12-.4c.26-2,.5-3.93.79-5.87C183.51,48.86,183.39,48.57,182.79,48.41Z"/><path d="M160.5,48.79c-.16-.55-.47-.55-.9-.51-2.57.15-5.14.31-7.71.39a1.08,1.08,0,0,0-1.2.95c-2,6.78-4,13.55-6.06,20.33-.08.27-.17.55-.32,1-.26-.42-.43-.69-.59-1-1.86-3.27-3.72-6.55-5.62-9.79a1.11,1.11,0,0,1,.1-1.43c2.37-3.21,4.69-6.45,7-9.67.17-.25.35-.5.57-.85-2.69-.21-5.24-.38-7.78-.6a1,1,0,0,0-1,.51c-1.38,2.18-2.79,4.33-4.19,6.49-.13.2-.29.41-.45.62l-.15,0c.19-2.38.36-4.76.55-7.19l-7.84-.4c-.19,8.64-.37,17.21-.55,25.81,2.41-.1,4.67-.21,7-.29.11-2.49.19-4.87.3-7.49.33.42.48.61.64.83,1.36,1.93,2.72,3.85,4.06,5.79a.91.91,0,0,0,1.07.47c1.3-.28,2.61-.5,3.92-.71.93-.15,1.84-.31,2.77-.45l.28,0c.46-.07.93-.12,1.39-.16a14.5,14.5,0,0,1,2.35.23l4.76.45c.26-1.16.52-2.19.7-3.23.09-.41.23-.6.68-.58.91,0,1.84,0,2.76,0a.91.91,0,0,1,.63.5,21,21,0,0,1,.69,2.59c.12.6.42.72,1,.64,1.5-.23,3-.42,4.5-.63l3-.39a2,2,0,0,0-.07-.43C164.67,63.26,162.56,56,160.5,48.79ZM154.43,63c.38-1.77.74-3.53,1.12-5.29h.2c.38,1.74.76,3.47,1.16,5.28Z"/><circle cx="95.36" cy="52" r="6.5"/><circle cx="108.4" cy="58.79" r="4.41"/><circle cx="115.02" cy="49.47" r="3.81"/><path d="M106.5,52.09a2,2,0,1,0-2-2A2,2,0,0,0,106.5,52.09Z"/><path d="M114.79,61.76a1.4,1.4,0,1,0,1.4-1.4A1.39,1.39,0,0,0,114.79,61.76Z"/><circle cx="113.88" cy="70.38" r="5.12"/><circle cx="96.57" cy="67.9" r="7.43"/></svg>