<svg id="图层_1" data-name="图层 1" xmlns="http://www.w3.org/2000/svg" viewBox="0 0 294 121"><path d="M85.41,52.55l11.92-6.87a1.3,1.3,0,0,1,1.32,0l7.5,4.33a1.32,1.32,0,0,1,.48,1.81,1.05,1.05,0,0,1-.2.27l-2.56,2.56a1.32,1.32,0,0,1-1.6.22l-3.62-2.09a1.31,1.31,0,0,0-1.35,0L84.75,60.1V53.7A1.33,1.33,0,0,1,85.41,52.55Z"/><path d="M106.18,71l-7.54,4.36a1.32,1.32,0,0,1-1.33,0L85.4,68.44a1.31,1.31,0,0,1-.66-1.14V61.49l6.14-3.56v5.81a1.33,1.33,0,0,0,.66,1.15l5.79,3.33a1.3,1.3,0,0,0,1.32,0l3.66-2.11a1.35,1.35,0,0,1,1.6.22l2.55,2.55a1.34,1.34,0,0,1,0,1.88A1.64,1.64,0,0,1,106.18,71Z"/><path d="M154.31,48.7v18c0,1.24-.52,1.38-1.68,1.38H143.5a1.35,1.35,0,0,1-1-.36c-.13-.13-.37-.1-.37-1.23V48.7h-4.62V67a5.16,5.16,0,0,0,1.58,3.83,5.79,5.79,0,0,0,4.23,1.47h9.75a5.84,5.84,0,0,0,4.14-1.53,5.15,5.15,0,0,0,1.69-4.2V48.7Z"/><path d="M182.27,59.93a4.73,4.73,0,0,0-3.6-1.47H170.3a1.53,1.53,0,0,1-1.23-.46,1.36,1.36,0,0,1-.41-1.15V54.43a1.53,1.53,0,0,1,.38-1.16c.17-.17.43-.38,1.43-.38h13V48.7H168.8a4.85,4.85,0,0,0-4.14,2.16,5.43,5.43,0,0,0-.63,3v4.38a4.25,4.25,0,0,0,1,3.11,4.52,4.52,0,0,0,3.32,1.27h8.81a1.9,1.9,0,0,1,1.22.32,1.29,1.29,0,0,1,.56,1v2.38c0,1.16-.22,1.14-.35,1.27a1.81,1.81,0,0,1-1.31.46H164v4.21h14.19a5.11,5.11,0,0,0,5.4-5.52V64A5.81,5.81,0,0,0,182.27,59.93Z"/><polygon points="189.13 48.7 189.13 52.9 196.84 52.9 196.84 72.29 201.46 72.29 201.46 52.9 209.25 52.9 209.25 48.7 189.13 48.7"/><path d="M132.78,58.48c.12-1.37,0-4.61,0-4.61A4.88,4.88,0,0,0,130,49.25a7.29,7.29,0,0,0-3.35-.58l-8.7,0-5.45,0,2.07,4.21H126c1,0,2.17.18,2.17,1.6v3.43c0,1.1-.55,1.6-1.79,1.6H112.48v12.8h4.62v-8.6h7l3.19,8.61h5.51s-3.25-8.7-3.35-8.91,1.37-.5,2.29-1.5S132.67,59.85,132.78,58.48Z"/></svg>