<svg id="图层_1" data-name="图层 1" xmlns="http://www.w3.org/2000/svg" viewBox="0 0 294 121"><path d="M105.34,60.5a9,9,0,1,0-9-9.06,9,9,0,1,0-9,9.06,9,9,0,1,0,.09,0,9,9,0,0,0,9-8.94A9,9,0,0,0,105.34,60.5Zm-9,9a9,9,0,1,1,9,9h0a9,9,0,0,1-9-9Zm49.76.22h3.71V46.56h-3.7ZM132.54,58.39a4,4,0,0,1,3-1.31,3.48,3.48,0,0,1,2.52.87,4.06,4.06,0,0,1,1.25,2l3.33-1.21a6.79,6.79,0,0,0-2.4-3.6,7.24,7.24,0,0,0-4.74-1.51A7.67,7.67,0,0,0,129.85,56a8.81,8.81,0,0,0,0,11.84,7.77,7.77,0,0,0,5.76,2.37,7.07,7.07,0,0,0,4.68-1.51,7.35,7.35,0,0,0,2.49-3.58L139.55,64a4.3,4.3,0,0,1-1.31,2,3.73,3.73,0,0,1-2.6.87,4.18,4.18,0,0,1-3.1-1.32,5,5,0,0,1-1.25-3.58,4.81,4.81,0,0,1,1.25-3.53Zm25.8,7.17a4.17,4.17,0,0,0,3.11,1.31,4.06,4.06,0,0,0,3.07-1.3,5,5,0,0,0,1.28-3.65,4.79,4.79,0,0,0-1.28-3.58A4.08,4.08,0,0,0,161.44,57a4.19,4.19,0,0,0-3.1,1.31,4.92,4.92,0,0,0-1.25,3.58,5.15,5.15,0,0,0,1.25,3.65Zm3.11-11.9A7.75,7.75,0,0,1,167.24,56a8.82,8.82,0,0,1,0,11.88,8.33,8.33,0,0,1-11.58,0,8.91,8.91,0,0,1,0-11.87,7.85,7.85,0,0,1,5.8-2.33Zm19.18,16.06,6.11-15.58h-3.9l-4,11.13-4.13-11.13h-4.1l6.34,15.58Zm11-9.5h7.64a3.54,3.54,0,0,0-1.05-2.47,3.71,3.71,0,0,0-2.79-1,3.56,3.56,0,0,0-2.68,1.06,3.66,3.66,0,0,0-1.12,2.41Zm8.06,4.07,3.14,1a7,7,0,0,1-2.53,3.55,7.33,7.33,0,0,1-4.51,1.38,7.83,7.83,0,0,1-5.67-2.28,8.13,8.13,0,0,1-2.29-6.07A8.12,8.12,0,0,1,190,56,7.76,7.76,0,0,1,201,55.88a8.39,8.39,0,0,1,2,5.89,3.58,3.58,0,0,1-.1,1.18H191.5a4.08,4.08,0,0,0,1.28,2.92,4.27,4.27,0,0,0,3,1.15A3.74,3.74,0,0,0,199.66,64.29Zm16-6.46V54.06a4.78,4.78,0,0,0-1-.1,5.14,5.14,0,0,0-2.75.74,4.12,4.12,0,0,0-1.76,1.95v-2.5h-3.61V69.73h3.71V62.31c0-3.05,1.39-4.58,4.19-4.58A7.17,7.17,0,0,1,215.66,57.83Z"/></svg>