<svg id="图层_1" data-name="图层 1" xmlns="http://www.w3.org/2000/svg" viewBox="0 0 294 121"><path d="M88.94,55.6c0-.47,0-.94,0-1.4s.23-.92.82-.83a29.38,29.38,0,0,1,3.51.67c2.1.66,4.2,1.31,6.42.82,1.32-.3,2.58-.8,3.89-1.12a13.44,13.44,0,0,1,7.91.38,21.48,21.48,0,0,0,3.56.86c.56.1.76.33.75.86,0,.92,0,1.83,0,2.74s-.15,1.09-1,.92A45.12,45.12,0,0,1,110,58.37a9.62,9.62,0,0,0-6.27,0,14.82,14.82,0,0,1-10.17.44,33.82,33.82,0,0,0-4-1c-.47-.1-.68-.3-.66-.78S88.94,56.09,88.94,55.6Z"/><path d="M115.79,65.25c0,.47,0,.94,0,1.4,0,.63-.27.83-.86.78a16.43,16.43,0,0,1-4.48-.9,10.1,10.1,0,0,0-7.26,0,15.16,15.16,0,0,1-7.45.72,33.85,33.85,0,0,1-3.37-.84,23.25,23.25,0,0,0-2.6-.47c-.62-.07-.86-.33-.84-1,0-.94,0-1.88,0-2.82,0-.58.26-.87.8-.78a32,32,0,0,1,4.48.91,10.26,10.26,0,0,0,6.89.14,16.91,16.91,0,0,1,9.05-.75c.6.1,1.19.35,1.8.5,1,.25,2.06.51,3.11.68.52.08.75.26.74.77s0,1,0,1.57Z"/><path d="M102.32,74.76H90c-1.08,0-1.09,0-1.09-1.08,0-.88,0-1.77,0-2.66,0-.47.2-.66.64-.67H114.7c1.08,0,1.09,0,1.09,1.09v2.27c0,1.06,0,1.06-1.11,1.06Z"/><path d="M172.69,60.27V73.65c0,1.07,0,1.08-1.11,1.08s-2.29,0-3.44,0a.94.94,0,0,1-.73-.54c-.2-.82-.51-.92-1.27-.4A10.91,10.91,0,0,1,164.08,75a7.74,7.74,0,0,1-5.64-.06,9.1,9.1,0,0,1-5.27-4.6,11.34,11.34,0,0,1-.52-9.66,10.11,10.11,0,0,1,2.64-4,8.52,8.52,0,0,1,5.14-2.33,8.33,8.33,0,0,1,5.24,1.11c.2.13.33.34.53.46a8.65,8.65,0,0,0,.87.41,3.48,3.48,0,0,0,.29-1c0-2.81,0-5.63,0-8.45,0-1.09,0-1.12,1.15-1.12h3.13c1,0,1,.07,1,1ZM162.42,70.48c3.11.17,5.37-2.67,5.32-5.63-.06-3.18-2.14-5.58-5.35-5.6a5.47,5.47,0,0,0-5.24,5.62c0,2.94,2.48,5.79,5.27,5.6Z"/><path d="M189.85,62.76a3.58,3.58,0,0,0-3-4,5.45,5.45,0,0,0-5.38,1.72.66.66,0,0,1-1.06.11c-.88-.67-1.8-1.29-2.73-1.91-.55-.37-.28-.74,0-1a9.81,9.81,0,0,1,6.41-3.2,14.8,14.8,0,0,1,5.73.41,7.13,7.13,0,0,1,4.64,4,8.71,8.71,0,0,1,.66,3.19c.08,4,0,8.09,0,12.13,0,.48-.19.63-.65.62-1.25,0-2.51,0-3.76,0-.63,0-.84-.22-.79-.82a2,2,0,0,0-.2-.71,4,4,0,0,0-.58.31,7.79,7.79,0,0,1-5.6,1.92,7.28,7.28,0,0,1-5.76-3,6.17,6.17,0,0,1-.56-6.5c1.35-2.73,3.74-3.73,6.51-4.06a11,11,0,0,1,5.67.8A2.17,2.17,0,0,0,189.85,62.76Zm-4.78,8.57a4.9,4.9,0,0,0,4.77-3.71c.17-.71-.05-1.08-.65-1.25-1.89-.55-3.85-1-5.72-.08a2.4,2.4,0,0,0-1.27,3.42A3.49,3.49,0,0,0,185.07,71.33Z"/><path d="M128.15,65.11c0-1.57,0-3.13,0-4.7,0-.6-.22-.86-.81-.84h-1.8c-.6,0-.92-.27-.91-.9,0-1,0-1.93,0-2.89,0-.6.29-.85.87-.84s1.15,0,1.72,0,.94-.27.93-.93c0-1.38,0-2.77,0-4.15,0-.71.24-1,1-.93,1.17.05,2.34,0,3.52,0,.58,0,.84.2.83.82,0,1.4,0,2.81,0,4.22,0,.69.23,1,1,1,1,0,2,0,3.05,0,.54,0,.76.23.76.75,0,1,0,2.08,0,3.13,0,.58-.26.77-.82.76-1.06,0-2.13,0-3.2,0-.41,0-.74.11-.74.6,0,2.71,0,5.42.12,8.13.07,2,1.63,2.32,3.2,2,.87-.17,1-.1,1.24.76s.48,1.65.76,2.45.27,1-.56,1.32a7.92,7.92,0,0,1-7.16-.36,5.4,5.4,0,0,1-2.79-4.6c-.05-1.59,0-3.18,0-4.77Z"/><path d="M199.76,60.31V46.85c0-1,0-1.05,1.06-1.05s2.24,0,3.36,0c.62,0,.89.2.89.85q0,13.68,0,27.37c0,.56-.25.73-.76.73-1.22,0-2.45,0-3.67,0-.7,0-.9-.26-.89-.92C199.77,69.31,199.76,64.81,199.76,60.31Z"/><path d="M148.14,64.82v8.91c0,1,0,1-1,1s-2.24,0-3.36,0c-.61,0-.89-.17-.89-.84q0-9,0-18c0-.77.34-1,1-1,1.1,0,2.19,0,3.29,0,.71,0,1,.28,1,1C148.13,58.88,148.14,61.85,148.14,64.82Z"/><path d="M148.86,48.93c.21,1.8-1.69,3.39-3.4,3.37a3.47,3.47,0,0,1-3.34-3.45,3.34,3.34,0,0,1,3.32-3.35h0A3.24,3.24,0,0,1,148.86,48.93Z"/></svg>