<svg id="图层_1" data-name="图层 1" xmlns="http://www.w3.org/2000/svg" viewBox="0 0 294 121"><path d="M112,55.52a6.71,6.71,0,0,0-2.09-.91,12.84,12.84,0,0,0-3-.32h-2.79l-2.31,2.31V69.9h5a14.2,14.2,0,0,0,2.91-.27,6.61,6.61,0,0,0,2.25-1A7,7,0,0,0,114.24,66a8.28,8.28,0,0,0,.89-3.91,8.74,8.74,0,0,0-.83-3.93A6.85,6.85,0,0,0,112,55.52Zm-1.09,9.16a3.67,3.67,0,0,1-1.45,1.69,3.79,3.79,0,0,1-1.18.47,9.2,9.2,0,0,1-1.89.13h-.91V57.21h.91a9.3,9.3,0,0,1,1.75.11,4.2,4.2,0,0,1,1.14.41,3.73,3.73,0,0,1,1.59,1.72,6.26,6.26,0,0,1,.51,2.63A6.41,6.41,0,0,1,110.92,64.68Z"/><path d="M122.73,57.76a5.5,5.5,0,0,0-4.26,1.67A6.53,6.53,0,0,0,116.94,64a6.5,6.5,0,0,0,1.52,4.57,6.31,6.31,0,0,0,8.55,0A6.51,6.51,0,0,0,128.54,64,6.58,6.58,0,0,0,127,59.44,5.48,5.48,0,0,0,122.73,57.76Zm2.12,8a3.42,3.42,0,0,1-.5,1.08,1.61,1.61,0,0,1-.71.58,2.4,2.4,0,0,1-1.84,0,1.73,1.73,0,0,1-.72-.59,3.17,3.17,0,0,1-.47-1.14,7.22,7.22,0,0,1-.16-1.67,6.76,6.76,0,0,1,.18-1.79,3.3,3.3,0,0,1,.49-1.12,1.79,1.79,0,0,1,.74-.59,2.53,2.53,0,0,1,.87-.15,2.38,2.38,0,0,1,.91.18,1.67,1.67,0,0,1,.73.61,3.46,3.46,0,0,1,.47,1.12A7.78,7.78,0,0,1,125,64,7.44,7.44,0,0,1,124.85,65.8Z"/><path d="M132.64,58.13,131,59.81V69.9h3.4V62a6.27,6.27,0,0,1,1.19-.36,6.9,6.9,0,0,1,1.28-.1c.22,0,.48,0,.8,0a2.78,2.78,0,0,1,.7.12h.3V58.13Z"/><path d="M149.06,58.78a7,7,0,0,0-4.19-1,14.05,14.05,0,0,0-2.42.22c-.8.14-1.4.27-1.75.37v2.84H141c.27-.12.73-.29,1.37-.51a5.45,5.45,0,0,1,1.79-.33,4.83,4.83,0,0,1,2.11.37,1.39,1.39,0,0,1,.72,1.36v.06c-1,.07-2,.16-2.9.29a7.67,7.67,0,0,0-2.34.68,3.44,3.44,0,0,0-1.46,1.29,3.68,3.68,0,0,0-.52,2.1,3.62,3.62,0,0,0,1,2.65,3.4,3.4,0,0,0,2.53,1l5.26-.32,1.77-1.76V61.9A3.75,3.75,0,0,0,149.06,58.78Zm-2.08,8a3.11,3.11,0,0,1-.92.6,2.68,2.68,0,0,1-1,.24,3.36,3.36,0,0,1-.94-.11,1.36,1.36,0,0,1-.52-.3,1,1,0,0,1-.28-.44,3.05,3.05,0,0,1-.06-.6,1.42,1.42,0,0,1,.27-.89,1.68,1.68,0,0,1,.78-.52,7,7,0,0,1,1.21-.26c.54-.08,1-.13,1.5-.18Z"/><path d="M215.35,58.13l-1.69,1.68V69.9h3.42V62a6.5,6.5,0,0,1,1.19-.36,7,7,0,0,1,1.29-.1c.21,0,.47,0,.8,0a2.7,2.7,0,0,1,.69.12h.29V58.13Z"/><path d="M176.28,58.78a6.93,6.93,0,0,0-4.18-1,14.17,14.17,0,0,0-2.43.22c-.8.14-1.39.27-1.75.37v2.84h.31c.28-.12.74-.29,1.37-.51a5.5,5.5,0,0,1,1.79-.33,4.88,4.88,0,0,1,2.12.37,1.4,1.4,0,0,1,.71,1.35v.06c-1,.07-2,.16-2.89.3a7.39,7.39,0,0,0-2.34.67,3.53,3.53,0,0,0-1.47,1.29,3.88,3.88,0,0,0-.52,2.1,3.57,3.57,0,0,0,1,2.65,3.37,3.37,0,0,0,2.52,1l5.26-.31,1.77-1.77V61.89A3.69,3.69,0,0,0,176.28,58.78Zm-2.08,8a3.11,3.11,0,0,1-.92.6,2.59,2.59,0,0,1-1,.24,3.31,3.31,0,0,1-.94-.11,1.22,1.22,0,0,1-.53-.3.92.92,0,0,1-.29-.44,2.43,2.43,0,0,1-.05-.6,1.41,1.41,0,0,1,.26-.89,1.79,1.79,0,0,1,.78-.52,7.37,7.37,0,0,1,1.22-.26c.53-.08,1-.13,1.49-.18Z"/><path d="M155.53,56.3V69.89h3.6V63.23h6v-3h-6V57.31h6.46v-3h-8.05C156.75,55.08,156.33,55.52,155.53,56.3Z"/><path d="M186.22,57.8a8.09,8.09,0,0,0-2.34.35,5.14,5.14,0,0,0-3.36,3.07,8.29,8.29,0,0,0,0,5.56,5.11,5.11,0,0,0,1.3,1.93,5.37,5.37,0,0,0,2,1.13,8,8,0,0,0,2.53.37,7,7,0,0,0,1.93-.24,9,9,0,0,0,1.67-.67V66.08h-.48q-.21.23-.45.45a4,4,0,0,1-.57.44,3.28,3.28,0,0,1-.85.39,4,4,0,0,1-1.15.16,2.67,2.67,0,0,1-2.13-.88,3.79,3.79,0,0,1-.75-2.58,4.16,4.16,0,0,1,.73-2.6,2.42,2.42,0,0,1,2.08-1,3.19,3.19,0,0,1,1.07.15,4.32,4.32,0,0,1,.85.38,4.69,4.69,0,0,1,.68.49l.48.44h.48V58.75a8.35,8.35,0,0,0-1.71-.68A7.39,7.39,0,0,0,186.22,57.8Z"/><path d="M195.76,54.77h-3.4v3.36H191v2.56h1.39v5.5a4,4,0,0,0,1,3,4.26,4.26,0,0,0,2.95.89,12.58,12.58,0,0,0,1.5-.09,9.22,9.22,0,0,0,1.16-.25V67.21h-.29a2,2,0,0,1-.59.23,2.4,2.4,0,0,1-.7.13,1.75,1.75,0,0,1-1-.22,1.11,1.11,0,0,1-.46-.58,2.31,2.31,0,0,1-.15-.83V60.69H199V58.13h-3.19Z"/><path d="M206,57.76a5.48,5.48,0,0,0-4.26,1.67A6.58,6.58,0,0,0,200.19,64a6.51,6.51,0,0,0,1.53,4.57A5.5,5.5,0,0,0,206,70.26a5.44,5.44,0,0,0,4.27-1.67A6.65,6.65,0,0,0,211.77,64a6.58,6.58,0,0,0-1.52-4.58A5.44,5.44,0,0,0,206,57.76Zm2.12,8a3.32,3.32,0,0,1-.5,1.08,1.61,1.61,0,0,1-.71.58,2.4,2.4,0,0,1-1.84,0,1.73,1.73,0,0,1-.72-.59,3.17,3.17,0,0,1-.47-1.14,8.9,8.9,0,0,1,0-3.46,3.06,3.06,0,0,1,.5-1.12,1.7,1.7,0,0,1,.73-.59,2.57,2.57,0,0,1,.87-.15,2.34,2.34,0,0,1,.91.18,1.67,1.67,0,0,1,.73.61,3.07,3.07,0,0,1,.47,1.12,7.24,7.24,0,0,1,.17,1.74A7.44,7.44,0,0,1,208.11,65.8Z"/><polygon points="228.6 65.74 226.07 58.13 222.5 58.13 226.62 69.81 224.94 74.21 228.62 74.21 234.5 58.13 231.01 58.13 228.6 65.74"/><polygon points="231.14 57.2 234.73 57.2 235.47 55.52 231.77 55.52 231.14 57.2"/><path d="M73.51,57.14a17.94,17.94,0,0,1-1.13-4.27c-.18-1.15-.32-2.39-.48-3.76,0,0,0-.08,0-.11l-5.82,1.39a1.56,1.56,0,0,0-1.33,1.75,1.58,1.58,0,0,0,.62,1L77.87,63a2.88,2.88,0,0,0,2.37,1l.27-.11a8.17,8.17,0,0,1-.75-.34C76.29,61.49,74.52,59.48,73.51,57.14Z"/><path d="M86.59,59.36a.76.76,0,0,0-.49-.24,4.6,4.6,0,0,0-1.09.25,25.19,25.19,0,0,1-3.23.61c.42.5,1.31,1.21,1.87,1.83a4.6,4.6,0,0,1,.49.67l4-1.59-.28-.3A17,17,0,0,0,86.59,59.36Z"/><path d="M91,56.3l-5.07-3.82a2.9,2.9,0,0,0,.6,1.17,24.71,24.71,0,0,1,5,5.25A2.38,2.38,0,0,0,91,56.3Z"/><path d="M68.86,64.68a3.26,3.26,0,0,0-.43-.55,7,7,0,0,0-.74-.58l-.39-.26-1.18,4.85.38.26a4.75,4.75,0,0,0,.83.51,1.38,1.38,0,0,0,.56.12,1.12,1.12,0,0,0,.83-.4,2.88,2.88,0,0,0,.51-1.16,4,4,0,0,0,.1-1.46A3.22,3.22,0,0,0,68.86,64.68Z"/><path d="M77.22,64l-12.53-9.8a1.69,1.69,0,0,0-2.37.28A2,2,0,0,0,62,55L58.61,67.46a1.68,1.68,0,0,0,.57,1.84l11.67,9.8a1.7,1.7,0,0,0,2.38-.27,1.76,1.76,0,0,0,.29-.54L77.8,65.88A1.7,1.7,0,0,0,77.22,64Zm-6.4,4.58A3.39,3.39,0,0,1,70,70.29a2,2,0,0,1-1.28.63,2.38,2.38,0,0,1-1.09-.2A7.37,7.37,0,0,1,66.32,70l-2.11-1.47,1.62-6.61,1.27-.45,1.19.84a7.54,7.54,0,0,1,1.22,1,4.93,4.93,0,0,1,.78,1.09,5.89,5.89,0,0,1,.66,2,5.77,5.77,0,0,1-.13,2.19Z"/><path d="M92.21,62.32a2,2,0,0,1-2.56-.06,3.94,3.94,0,0,1-.45-.36l-5,1.94a1.83,1.83,0,0,1-1.66.65l-2.7,1.06a1.89,1.89,0,0,0-.95,1L74.5,79.39a.86.86,0,0,0,.55,1.07.83.83,0,0,0,.54,0l11.08-4.26a3.15,3.15,0,0,0,1.72-1.82l4.16-12.3a.85.85,0,0,0,0-.32A1.22,1.22,0,0,1,92.21,62.32Zm-4.88,5.39-3,1.09-.46,1.51,2.77-1-.48,1.58-2.77,1-1.07,3.48L80.66,76l2.18-7.1,1.25-1.39,3.73-1.36Z"/><path d="M91.54,58.9a24.71,24.71,0,0,0-5-5.25,2.9,2.9,0,0,1-.6-1.17c-.1-.33-.17-.68-.26-1a15.88,15.88,0,0,1-.44-2.66c-.06-.59.38-1.23.53-1.89a38.4,38.4,0,0,0,.88-4,5.57,5.57,0,0,0,0-2.19c-.24-1-4,1.87-4.65,2.35a7.37,7.37,0,0,0-2.29-.72A10.38,10.38,0,0,0,75,43c-1.3-.91-3.46-2.73-4.21-2.45s-.35,1.66-.21,2.5c.32,1.94,1.11,4.16,1.34,5.95a.25.25,0,0,0,0,.12c.16,1.36.31,2.6.49,3.76a17.08,17.08,0,0,0,1.13,4.26c1,2.34,2.78,4.35,6.25,6.39a8.17,8.17,0,0,0,.74.35,9.24,9.24,0,0,0,1.6.57,3.89,3.89,0,0,0,.47,0,1.85,1.85,0,0,0,1.67-.65.93.93,0,0,0,.16-.51,1.93,1.93,0,0,0-.27-.87,4.41,4.41,0,0,0-.5-.66c-.54-.62-1.44-1.33-1.86-1.83a25,25,0,0,0,3.22-.6,3.84,3.84,0,0,1,1.1-.25.78.78,0,0,1,.48.23q.69.59,1.32,1.23l.28.3c.33.35.69.72,1,1a4.94,4.94,0,0,0,.44.36,2.06,2.06,0,0,0,2.57,0,1.17,1.17,0,0,0,.38-.55,1.65,1.65,0,0,0,0-1A8.38,8.38,0,0,0,91.54,58.9ZM84,49.47a1.55,1.55,0,0,1-1,.81.73.73,0,0,1-.61-.1.44.44,0,0,1-.14-.39v-.12s-.08-.05-.11-.05a.25.25,0,0,0-.25.23v.35a2.49,2.49,0,0,1,0,.47v0c-.19.77-1.37,1-2,1h-.21a1.11,1.11,0,0,1-.8-.49.26.26,0,0,1,.1-.26.57.57,0,0,0,.2-.36,1,1,0,0,0,0-.25,1.43,1.43,0,0,0-.87-1.06c-.31-.13-.35-.13-.4-.08a.22.22,0,0,0-.05.22.37.37,0,0,0,.23.24,1,1,0,0,1,.66.82v.11a1,1,0,0,1-.6.83,1.2,1.2,0,0,1-1.09.08,1.67,1.67,0,0,1-.68-.58,1,1,0,0,1-.14-.27c0-.15-.07-.18-.33-.2-1.3,0-1.44-.53-1.55-.93a.37.37,0,0,0,0-.14.53.53,0,0,1,.17-.63.26.26,0,0,1,.29,0c.34.26.53.29.63.26.29,0,.37.11.48.29s.1.15.18.25.18.21.3.18a.31.31,0,0,0,.19-.25s0-.09,0-.1a.81.81,0,0,1-.47-.71.56.56,0,0,1,.25-.5A.26.26,0,0,0,76.4,48a.06.06,0,0,0,0-.06.21.21,0,0,0,0-.11.17.17,0,0,0-.13-.07.32.32,0,0,0-.23.06.67.67,0,0,0-.16.27,1.06,1.06,0,0,0,0,.19c0,.15-.06.34-.3.36a1,1,0,0,1-.74-.3l-.07-.07a1.44,1.44,0,0,1-.21-1.36,1.81,1.81,0,0,1,1.71-1.18h.13l0,.5a1.7,1.7,0,0,0,.59,1.07,1.65,1.65,0,0,0,1.37.16.35.35,0,0,0,.18-.16.16.16,0,0,0,0-.11.56.56,0,0,0-.48-.14,1.21,1.21,0,0,1-1.27-.9,1.39,1.39,0,0,1,1-1.49,1,1,0,0,1,.8,0,1,1,0,0,1,.53.48.35.35,0,0,0,.2.23.3.3,0,0,0,.21,0c.11-.15.61-.82,1.23-.78a1.23,1.23,0,0,1,.93.5,1.8,1.8,0,0,1,1.2.24,1.21,1.21,0,0,1,.53.85A1.85,1.85,0,0,1,83,47.62a1.52,1.52,0,0,1-1,.58c-.54.08-.61.11-.65.34a.13.13,0,0,0,.08.1,1.19,1.19,0,0,0,1.15-.15,2.49,2.49,0,0,0,.42-.44c.21-.27.4-.5.65-.54h0a.36.36,0,0,1,.33.16A2.38,2.38,0,0,1,84,49.47Z"/><path d="M84,47.68a.36.36,0,0,0-.33-.16h0c-.25,0-.44.27-.65.54a2.55,2.55,0,0,1-.43.44,1.17,1.17,0,0,1-1.14.15.13.13,0,0,1-.08-.1c0-.23.11-.27.65-.34a1.51,1.51,0,0,0,1-.57,1.84,1.84,0,0,0,.22-1.48,1.21,1.21,0,0,0-.53-.85,1.81,1.81,0,0,0-1.2-.24,1.26,1.26,0,0,0-.93-.5c-.62,0-1.12.63-1.23.78a.26.26,0,0,1-.21,0,.35.35,0,0,1-.2-.23,1,1,0,0,0-.53-.48,1,1,0,0,0-.8,0,1.39,1.39,0,0,0-1,1.49,1.2,1.2,0,0,0,1.28.87.6.6,0,0,1,.48.15.12.12,0,0,1,0,.11.26.26,0,0,1-.17.15,1.58,1.58,0,0,1-1.37-.16,1.55,1.55,0,0,1-.59-1.06l0-.5h-.13a1.8,1.8,0,0,0-1.71,1.18,1.4,1.4,0,0,0,.21,1.35l.07.08a1,1,0,0,0,.74.3c.24,0,.26-.21.3-.37a1.62,1.62,0,0,1,0-.19.54.54,0,0,1,.16-.26.31.31,0,0,1,.22-.06.17.17,0,0,1,.14.06.28.28,0,0,1,0,.12.06.06,0,0,1,0,.06.29.29,0,0,1-.14.17.56.56,0,0,0-.24.49.82.82,0,0,0,.47.72s0,.06,0,.1a.31.31,0,0,1-.19.24c-.12,0-.24-.09-.3-.17l-.18-.25c-.11-.19-.19-.32-.48-.29a1,1,0,0,1-.64-.27c-.07-.06-.19,0-.28,0a.53.53,0,0,0-.17.64.65.65,0,0,1,0,.13c.11.4.25.9,1.54.94.27,0,.3,0,.34.2a.94.94,0,0,0,.14.26,1.62,1.62,0,0,0,.68.59,1.2,1.2,0,0,0,1.09-.08,1,1,0,0,0,.6-.83v-.11a1,1,0,0,0-.66-.83.33.33,0,0,1-.23-.24.19.19,0,0,1,0-.21c0-.06.09-.05.4.07a1.46,1.46,0,0,1,.87,1.07,1,1,0,0,1,0,.24.57.57,0,0,1-.2.36.28.28,0,0,0-.1.27c.07.23.46.44.8.49h.21c.6,0,1.78-.24,2-1v0a2.59,2.59,0,0,0,0-.48v-.34a.24.24,0,0,1,.25-.23s.1,0,.11,0v.12a.42.42,0,0,0,.14.38.7.7,0,0,0,.61.11,1.54,1.54,0,0,0,1-.82A2.17,2.17,0,0,0,84,47.68Zm-.16,1.69a1.32,1.32,0,0,1-.88.68.44.44,0,0,1-.4,0c-.06-.06-.06-.07-.07-.22v-.12a.3.3,0,0,0-.34-.27h0a.48.48,0,0,0-.48.45V50h0a2.27,2.27,0,0,1,0,.58s0,0,0,0c-.19.71-1.57.85-1.91.8a.85.85,0,0,1-.59-.32l0,0a.85.85,0,0,0,.29-.56,1.13,1.13,0,0,0,0-.26,1.66,1.66,0,0,0-1-1.24,1.11,1.11,0,0,0-.43-.12.29.29,0,0,0-.23.1.44.44,0,0,0-.11.44.58.58,0,0,0,.39.4.85.85,0,0,1,.5.63v.1a.82.82,0,0,1-.49.61,1,1,0,0,1-.88.07,1.36,1.36,0,0,1-.53-.42,1,1,0,0,1-.17-.27c-.08-.3-.24-.36-.55-.38-1.12,0-1.22-.4-1.33-.76a.57.57,0,0,0,0-.14.35.35,0,0,1,0-.3.22.22,0,0,1,.1-.09,1.16,1.16,0,0,0,.77.3c.14,0,.15,0,.27.17a1.81,1.81,0,0,0,.18.27.55.55,0,0,0,.56.27.53.53,0,0,0,.35-.44.32.32,0,0,0-.14-.34.63.63,0,0,1-.36-.51.36.36,0,0,1,.13-.29.5.5,0,0,0,.25-.32.48.48,0,0,0,0-.17.5.5,0,0,0-.08-.2.47.47,0,0,0-.31-.16.54.54,0,0,0-.4.13.85.85,0,0,0-.27.48s0,.06,0,.09,0,.17-.09.17a.65.65,0,0,1-.43-.13.93.93,0,0,1-.18-.16,1.27,1.27,0,0,1-.17-1.15,1.51,1.51,0,0,1,1.36-1l0,.24a1.77,1.77,0,0,0,.72,1.28,1.93,1.93,0,0,0,.62.23,1.73,1.73,0,0,0,.6,0,1,1,0,0,0,.38-.1.49.49,0,0,0,.31-.32.36.36,0,0,0-.1-.31.82.82,0,0,0-.67-.22,1,1,0,0,1-1-.69,1.18,1.18,0,0,1,.82-1.23.78.78,0,0,1,.6,0,.76.76,0,0,1,.4.35.57.57,0,0,0,.34.37.58.58,0,0,0,.43-.05l0,0s.49-.73,1-.7a1,1,0,0,1,.8.46l0,.07.09,0a1.66,1.66,0,0,1,1.09.19,1,1,0,0,1,.43.7,1.65,1.65,0,0,1-.18,1.3A1.25,1.25,0,0,1,82,48c-.5.07-.78.12-.84.53a.36.36,0,0,0,.19.34,1.41,1.41,0,0,0,1.4-.16,2.42,2.42,0,0,0,.47-.49c.18-.21.34-.42.5-.44s.06,0,.11.07A2.24,2.24,0,0,1,83.8,49.37Z"/><path d="M81.87,46.92a.16.16,0,0,0,.07-.18.2.2,0,0,0-.08-.14h-.07a1.24,1.24,0,0,1-1-.2c-.28-.23-.17-.86-.16-.93s-.16-.15-.18-.15-.19,0-.26.2A1.18,1.18,0,0,0,81,47,1.14,1.14,0,0,0,81.87,46.92Z"/><path d="M81.35,47.26a1.24,1.24,0,0,0,.65-.15.41.41,0,0,0,.16-.48.35.35,0,0,0-.3-.26h-.09a1,1,0,0,1-.8-.15c-.14-.12-.11-.52-.08-.72a.42.42,0,0,0-.41-.41.44.44,0,0,0-.49.34,1.52,1.52,0,0,0,.39,1.49A1.33,1.33,0,0,0,81.35,47.26Zm-1.14-1.75c.08-.2.17-.2.27-.19s.18,0,.18.15-.13.69.16.93a1.22,1.22,0,0,0,1,.2h.07a.19.19,0,0,1,.09.14.18.18,0,0,1-.08.18,1.17,1.17,0,0,1-1.58-.53,1.15,1.15,0,0,1-.08-.87Z"/><path d="M79.75,49.16h0a.39.39,0,0,0,.3-.18,1.24,1.24,0,0,0,.21-.68A1.7,1.7,0,0,0,80,47.15l-.06,0h0c-.09,0-.2.08-.19.2a.44.44,0,0,0,.07.19,1.1,1.1,0,0,1,.16.46,1.69,1.69,0,0,1-.16.8,1.07,1.07,0,0,1-.15.22v0A.2.2,0,0,0,79.75,49.16Z"/><path d="M79.75,49.4h0a.65.65,0,0,0,.49-.29,1.49,1.49,0,0,0,.26-.79A1.83,1.83,0,0,0,80.1,47a.33.33,0,0,0-.3-.06.45.45,0,0,0-.36.44.77.77,0,0,0,.1.29.82.82,0,0,1,.13.37,1.24,1.24,0,0,1-.12.65.8.8,0,0,1-.13.19.28.28,0,0,0,0,.29A.47.47,0,0,0,79.75,49.4Zm-.16-.4a1.07,1.07,0,0,0,.15-.22,1.58,1.58,0,0,0,.16-.8,1.1,1.1,0,0,0-.16-.46.44.44,0,0,1-.07-.19c0-.12.1-.17.19-.2h0l.06,0a1.7,1.7,0,0,1,.31,1.15,1.24,1.24,0,0,1-.21.68.39.39,0,0,1-.3.18h0a.25.25,0,0,1-.17-.11v0Z"/></svg>