<svg id="图层_1" data-name="图层 1" xmlns="http://www.w3.org/2000/svg" viewBox="0 0 294 121"><defs><style>.cls-1{fill:#fff;}</style></defs><rect x="92.91" y="40.5" width="40" height="40" rx="10.61"/><polygon class="cls-1" points="103.67 53.5 109.08 52.39 107.97 57.8 103.67 53.5"/><polygon class="cls-1" points="108.82 52.65 104.08 53.62 107.84 57.39 108.82 52.65"/><path class="cls-1" d="M119.28,63.2l1.58,1.59,2.74-2.74a3.68,3.68,0,1,0-5.2-5.2l-9.86,9.85a5.28,5.28,0,0,1-7.45,0,5.28,5.28,0,0,1,0-7.45l4.45-4.45,1.13,1.12-4.46,4.46a3.68,3.68,0,0,0,5.21,5.2l9.85-9.85a5.27,5.27,0,1,1,7.45,7.45L122,65.91l1.58,1.59-5.41,1.11Z"/><path class="cls-1" d="M121.7,65.91,124.58,63a5.06,5.06,0,0,0-7.16-7.16l-3.88,3.88-2.1,2.1-3.88,3.87a3.88,3.88,0,0,1-5.49-5.49l4.31-4.31-.84-.83-4.31,4.31a5.07,5.07,0,1,0,7.17,7.16l3.87-3.88,2.11-2.1,3.87-3.88a3.89,3.89,0,1,1,5.49,5.5l-2.88,2.88-1.46-1.47-1,4.74,4.74-1Z"/><path d="M144.87,46.16h5.56l4.49,12.63h-5.18L149.23,57h-3.17l-.51,1.84h-5.18Zm1.89,7.63h1.77l-.88-3.21Z"/><path d="M154.58,46.16h4.76l3.3,5.94V46.16h4.82V58.79h-4.69l-3.38-6.06v6.06h-4.81Z"/><path d="M171,53.54l-3.91-7.38h5l1.57,3.72,1.46-3.72H180l-3.92,7.38v5.25H171Z"/><path d="M142.54,70.87a10.22,10.22,0,0,0,1.57,1,3.44,3.44,0,0,0,1.59.4,1.6,1.6,0,0,0,.53-.08.75.75,0,0,0,.32-.18.6.6,0,0,0,.17-.23.71.71,0,0,0,0-.24.73.73,0,0,0-.14-.45,1.15,1.15,0,0,0-.38-.3,4.75,4.75,0,0,0-.54-.2l-.65-.18-1-.31a4.87,4.87,0,0,1-1.24-.6,3.71,3.71,0,0,1-1-1.09,3.11,3.11,0,0,1-.44-1.72,4.57,4.57,0,0,1,.31-1.62,4.05,4.05,0,0,1,.94-1.42,4.48,4.48,0,0,1,1.61-1,6.61,6.61,0,0,1,2.34-.37,8.48,8.48,0,0,1,1.75.16,9,9,0,0,1,1.36.38,6.48,6.48,0,0,1,1,.42l.51.3-1.46,2.78a8.85,8.85,0,0,0-1.2-.56,3.24,3.24,0,0,0-1.13-.2,2,2,0,0,0-.8.16.58.58,0,0,0-.37.58.61.61,0,0,0,.14.42,1.28,1.28,0,0,0,.39.27,3.36,3.36,0,0,0,.56.18c.21,0,.43.1.67.16a10.74,10.74,0,0,1,1.39.45,4.52,4.52,0,0,1,1.18.71,3.34,3.34,0,0,1,.81,1.08,3.43,3.43,0,0,1,.31,1.55,4.36,4.36,0,0,1-.41,1.91A4.17,4.17,0,0,1,150,74.53a5.27,5.27,0,0,1-1.79.89,8.28,8.28,0,0,1-2.31.31,7.14,7.14,0,0,1-1.08-.09,7,7,0,0,1-1.23-.29,8.73,8.73,0,0,1-1.4-.62,10.35,10.35,0,0,1-1.57-1Z"/><path d="M159.09,75.35h-4.75l-3.73-12.63H156l1.35,6.18L159,62.72h4.16l1.62,6.18,1.35-6.18h5.43l-3.73,12.63h-4.75l-2-7.08Z"/><path d="M173.44,62.72H179l4.49,12.63h-5.18l-.5-1.84h-3.18l-.5,1.84H169Zm1.9,7.63h1.76l-.88-3.21Z"/><path d="M183.15,62.72h6.59a6.34,6.34,0,0,1,2.49.42,4.27,4.27,0,0,1,1.54,1.07,3.79,3.79,0,0,1,.79,1.42,5.12,5.12,0,0,1,.23,1.43,5.21,5.21,0,0,1-.23,1.46,3.68,3.68,0,0,1-.79,1.41A4.28,4.28,0,0,1,192.23,71a6.34,6.34,0,0,1-2.49.42H188.2v3.92h-5Zm5,5.43h.56a1.68,1.68,0,0,0,.61-.1,1,1,0,0,0,.37-.25.84.84,0,0,0,.18-.35,1.6,1.6,0,0,0,.05-.39,1.1,1.1,0,0,0-.13-.59.8.8,0,0,0-.31-.32,1.15,1.15,0,0,0-.4-.12l-.37,0h-.56Z"/><circle cx="198.21" cy="73.54" r="2.88"/></svg>