<svg id="图层_1" data-name="图层 1" xmlns="http://www.w3.org/2000/svg" viewBox="0 0 294 121"><path d="M184.8,73.39l-13-28.57a.4.4,0,0,0-.36-.22h-6.68a.37.37,0,0,0-.35.22L151.91,71.65a.38.38,0,0,0,0,.37l2.58,4.23a.36.36,0,0,0,.33.19H159a.35.35,0,0,0,.35-.23l2.56-5.48h12.47l2.53,5.48a.42.42,0,0,0,.35.22h4.5a.36.36,0,0,0,.28-.1l2.72-2.49A.4.4,0,0,0,184.8,73.39Zm-1.36.55-1.85,1.69h-3.38l1.86-1.7Zm-6.26-5.46,2.27,5-2.1,1.94-2.3-5Zm.13-1H163.38l1.41-3.06h10.77a.32.32,0,0,0,.17,0,.4.4,0,0,0,.18-.52l-8.42-18.45h3.67l12.68,27.79h-3.67l-2.5-5.51a.4.4,0,0,0-.36-.22ZM171,63.6h-5.9l2.94-6.38Zm.84,0-5.51-11.87a.38.38,0,0,0-.69,0L154.79,75.22l-2.09-3.43L165,45.37h1.66l8.31,18.23ZM166,52.83l1.6,3.46-5.23,11.39a.39.39,0,0,0,.37.54h13.54L174.43,70H161.61a.38.38,0,0,0-.34.22l-2.56,5.48h-3.27Z"/><path d="M148.19,45.77l-5-1.26H143l-5,1.27a.4.4,0,0,0-.29.38V74.85a.4.4,0,0,0,.29.38l5,1.24.12,0,.11,0,5-1.27a.38.38,0,0,0,.29-.37V46.14A.41.41,0,0,0,148.19,45.77Zm-.47.88V74.33l-4.22-1.1V47.74Zm-8-.49,3.42-.87,3.42.86L143.1,47Zm6.85,28.67-3.43.88-3.43-.87,3.43-.91Zm-3.81-27.09v25.5l-4.21,1.1V46.66Z"/><path d="M114.12,44.57a.4.4,0,0,0-.22.06l-4.57,3a.47.47,0,0,0-.17.33V73.66a.41.41,0,0,0,.24.35L115,76.45a.32.32,0,0,0,.14,0l.08,0h0a26.92,26.92,0,0,0,7.18-1.69c5-2,8.18-5.28,9.24-9.56a15,15,0,0,0,.35-3.34c.06-.61.48-6.13-2.36-10.53C127.05,47.29,120.8,44.57,114.12,44.57Zm-.05,24.58a16.1,16.1,0,0,0,5.62-.33,11.12,11.12,0,0,0,5.08-2.54c.15-.14.28-.28.41-.42a9.39,9.39,0,0,1-1,1.83c-2.32,3.2-8.15,5.48-14.21,5.57V48.17l3.77-2.49V68.75A.41.41,0,0,0,114.07,69.15Zm10.17-3.42a11,11,0,0,1-5.62,2.53V54.36c2.12.57,6.68,1.9,7.38,6.41a.91.91,0,0,1,0,.23,5.65,5.65,0,0,1-1.79,4.73Zm.57,2.42a11.55,11.55,0,0,0,2-7.54c-.79-5.11-5.92-6.48-8.12-7.06h0V51c5.61.48,12.28,2.72,12.63,10.62a14.75,14.75,0,0,1-.32,3.44c-1.26,5.08-5.46,7.71-8.76,9a25.84,25.84,0,0,1-6.93,1.64L111.31,74c5.83-.38,11.21-2.69,13.5-5.83Zm-6.58-18a.39.39,0,0,0-.39.39V68.38a14.93,14.93,0,0,1-3.34.05V45.36c6.3.1,12.11,2.67,14.51,6.41A14.27,14.27,0,0,1,131,57C129.11,53,124.73,50.62,118.23,50.16Z"/></svg>