<svg id="图层_1" data-name="图层 1" xmlns="http://www.w3.org/2000/svg" viewBox="0 0 294 121"><path d="M98.66,41.68c-.24-.06-.47-.15-.71-.22H72.05a6.26,6.26,0,0,1-.61.21,6.83,6.83,0,0,0-5.25,5.17c-.06.24-.15.47-.23.71v25.9c.15.48.27,1,.44,1.44a6.9,6.9,0,0,0,4.94,4.43c.24.06.48.15.71.22H98c.54-.17,1.09-.3,1.62-.51a6.77,6.77,0,0,0,4.14-4.5c.11-.36.22-.72.34-1.08V47.55a19.4,19.4,0,0,0-1-2.63A6.6,6.6,0,0,0,98.66,41.68Zm1.7,29.65c-1.63.52-3.24,1.11-4.9,1.5s-2.63-.08-3.22-1.81c-.46-1.37-.65-1.82-2.42-.8-1,.54-1.83,1.24-2.74,1.87-.34.24-.67.61-1,.66a2.11,2.11,0,0,1-1.46-.25c-.24-.18-.24-.89-.1-1.27.34-.92.83-1.77,1.16-2.75-1,.82-2,1.68-3.05,2.46a43.27,43.27,0,0,1-3.85,2.6,5.51,5.51,0,0,1-2.34.68c-2,.13-3.12-1.07-2.79-3.08s.77-3.91,1.17-5.87c.07-.37.15-.73.26-1.27-1.07,0-2,0-3,0-.2,0-.38-.28-.57-.43.21-.14.4-.38.61-.41.82-.1,1.65-.15,2.47-.18.57,0,.82-.25.94-.82.47-2.24,1-4.45,1.49-6.69.19-1,.66-1.38,1.81-1.2-.19,1.29-.39,2.58-.58,3.87s-.4,2.62-.6,4c.15,0,.25.1.32.08,3.34-1,6.34-2.64,8.39-5.58a7.55,7.55,0,0,0,1.28-3c.43-2.61-1.37-4.59-4.26-5a16.37,16.37,0,0,0-7.84,1l-1,.34A1.48,1.48,0,0,1,75.59,48c3.2-1.14,6.44-1.76,9.79-.86,2.39.63,4.23,1.91,4.71,4.54a6.14,6.14,0,0,1-.81,4A13,13,0,0,1,84,61c-1.88,1-3.94,1.68-5.91,2.54-.32.14-.74.45-.79.74-.33,1.9-.6,3.82-.82,5.74,0,.45.08,1.24.33,1.34a2,2,0,0,0,1.59-.15c2.21-1.38,4.35-2.85,6.52-4.28a6.61,6.61,0,0,1,1.37-.85c.46-.17,1.16-.32,1.46-.09s.36,1,.29,1.42a15.92,15.92,0,0,1-.75,2.34,13.55,13.55,0,0,1,1.53-.89A9.49,9.49,0,0,1,91,68.11a2.22,2.22,0,0,1,2.65,1.64c.69,1.77.88,1.93,2.81,1.73,1.23-.13,2.44-.4,3.66-.6a1.16,1.16,0,0,1,.8.09A2.42,2.42,0,0,1,100.36,71.33Z"/><path d="M119.61,47H112V73.57h3.38V63h4.39c5.81,0,9.8-2.61,9.8-8.24C129.59,49,125.6,47,119.61,47Zm-.26,13.32H115.4V49.68h3.81c4.68,0,7,1.24,7,5.08S124,60.28,119.35,60.28Z"/><path d="M140.3,53.35a14.77,14.77,0,0,0-7.77,2.58l1.31,2.28a10.87,10.87,0,0,1,5.91-2.1c3.23,0,4.07,2.43,4.07,5-8.39.94-12.12,3.09-12.12,7.37,0,3.56,2.46,5.59,5.77,5.59A10.56,10.56,0,0,0,144,71.21h.11l.29,2.36h2.72V61.44C147.12,56.58,145.09,53.35,140.3,53.35Zm3.52,15.43c-1.92,1.7-3.49,2.61-5.41,2.61s-3.48-.91-3.48-3.16c0-2.54,2.25-4.17,8.89-5Z"/><path d="M159.79,71.35c-2.28,0-3-1.38-3-3.81v-11h5.34V53.86h-5.34V48.34H154l-.39,5.52L150.5,54v2.5h2.94V67.47c0,4,1.42,6.57,5.63,6.57a12.27,12.27,0,0,0,3.63-.73L162,70.85A7.05,7.05,0,0,1,159.79,71.35Z"/><path d="M169.67,57.45h-.11l-.29-3.59h-2.72V73.57h3.3V60.9c1.31-3.38,3.34-4.54,5-4.54a4.61,4.61,0,0,1,1.93.33l.61-2.91a4.24,4.24,0,0,0-2.1-.43C173,53.35,171.05,55,169.67,57.45Z"/><path d="M187,53.35a14.77,14.77,0,0,0-7.77,2.58l1.31,2.28a10.87,10.87,0,0,1,5.91-2.1c3.24,0,4.07,2.43,4.07,5-8.39.94-12.12,3.09-12.12,7.37,0,3.56,2.46,5.59,5.77,5.59a10.56,10.56,0,0,0,6.53-2.83h.11l.29,2.36h2.72V61.44C193.84,56.58,191.81,53.35,187,53.35Zm3.52,15.43c-1.92,1.7-3.48,2.61-5.41,2.61s-3.48-.91-3.48-3.16c0-2.54,2.25-4.17,8.89-5Z"/><path d="M208.18,71.28c-3.63,0-6.1-3-6.1-7.55s2.62-7.62,6.18-7.62a5.69,5.69,0,0,1,4,1.78l1.71-2.22a8.46,8.46,0,0,0-5.77-2.32c-5.05,0-9.51,3.81-9.51,10.38s4,10.31,9.25,10.31a9.46,9.46,0,0,0,6.36-2.5l-1.42-2.22A6.92,6.92,0,0,1,208.18,71.28Z"/><path d="M227.39,70.85a7.11,7.11,0,0,1-2.25.5c-2.29,0-3-1.38-3-3.81v-11h5.33V53.86h-5.33V48.34h-2.76l-.4,5.52-3.09.18v2.5h2.94V67.47c0,4,1.42,6.57,5.63,6.57a12.14,12.14,0,0,0,3.63-.73Z"/></svg>