<svg id="图层_1" data-name="图层 1" xmlns="http://www.w3.org/2000/svg" viewBox="0 0 294 121"><path d="M122.47,62.33A11.81,11.81,0,0,1,117.74,60a4.4,4.4,0,0,1-1.48-3.36,4.64,4.64,0,0,1,1.8-3.73,7.23,7.23,0,0,1,4.72-1.49,7.85,7.85,0,0,1,3.51.76,5.64,5.64,0,0,1,2.4,2.11,5.27,5.27,0,0,1,.84,2.94H127a3.51,3.51,0,0,0-1.11-2.74,4.49,4.49,0,0,0-3.12-1,4.65,4.65,0,0,0-2.92.83,2.75,2.75,0,0,0-1,2.28,2.47,2.47,0,0,0,1,2,9.78,9.78,0,0,0,3.38,1.48,15.39,15.39,0,0,1,3.73,1.49,5.55,5.55,0,0,1,2,1.88,4.81,4.81,0,0,1,.65,2.54,4.52,4.52,0,0,1-1.81,3.73,7.84,7.84,0,0,1-4.86,1.39,9,9,0,0,1-3.68-.75,6.33,6.33,0,0,1-2.65-2.07,5.14,5.14,0,0,1-.92-3h2.54a3.32,3.32,0,0,0,1.28,2.74,5.42,5.42,0,0,0,3.43,1,5,5,0,0,0,3.07-.82A2.62,2.62,0,0,0,127,66a2.54,2.54,0,0,0-1-2.17A10.76,10.76,0,0,0,122.47,62.33Z"/><path d="M145.52,53.79h-6.16V70.87h-2.51V53.79h-6.14V51.71h14.81Z"/><path d="M155.12,63.12h-4.5v7.75h-2.54V51.71h6.34a7.48,7.48,0,0,1,5,1.48,5.3,5.3,0,0,1,1.74,4.29,5.12,5.12,0,0,1-1,3.12,5.77,5.77,0,0,1-2.69,2l4.5,8.14v.15h-2.71Zm-4.5-2.06h3.88a4.33,4.33,0,0,0,3-1,3.27,3.27,0,0,0,1.12-2.6,3.46,3.46,0,0,0-1.06-2.73,4.45,4.45,0,0,0-3.06-1h-3.86Z"/><path d="M175.82,65.87h-8l-1.81,5h-2.61l7.32-19.16h2.21l7.33,19.16h-2.6Zm-7.26-2.08h6.52l-3.28-9Z"/><path d="M192.45,53.79H186.3V70.87h-2.53V53.79h-6.13V51.71h14.81Z"/><path d="M208,61.91a11.85,11.85,0,0,1-.94,4.92,7.17,7.17,0,0,1-2.69,3.2,7.41,7.41,0,0,1-10.25-2.19,7.11,7.11,0,0,1-.53-1,11.55,11.55,0,0,1-1-4.78V60.7a11.84,11.84,0,0,1,1-4.88,7.52,7.52,0,0,1,10-3.68,6.28,6.28,0,0,1,.81.43,7.11,7.11,0,0,1,2.71,3.23,11.66,11.66,0,0,1,1,4.91Zm-2.51-1.24a8.5,8.5,0,0,0-1.37-5.22,4.56,4.56,0,0,0-3.83-1.83,4.48,4.48,0,0,0-3.77,1.83,8.44,8.44,0,0,0-1.41,5v1.4a8.66,8.66,0,0,0,1.38,5.2,4.89,4.89,0,0,0,7.62.11,8.48,8.48,0,0,0,1.38-5.12Z"/><path d="M216.67,62.33A11.87,11.87,0,0,1,211.93,60a4.42,4.42,0,0,1-1.47-3.36,4.64,4.64,0,0,1,1.8-3.73A7.23,7.23,0,0,1,217,51.46a7.92,7.92,0,0,1,3.52.76,5.67,5.67,0,0,1,2.39,2.11,5.29,5.29,0,0,1,.84,2.94H221.2a3.51,3.51,0,0,0-1.11-2.74,4.53,4.53,0,0,0-3.12-1,4.63,4.63,0,0,0-2.92.83,2.75,2.75,0,0,0-1,2.28,2.47,2.47,0,0,0,1,2,9.78,9.78,0,0,0,3.38,1.48,15.39,15.39,0,0,1,3.73,1.49,5.55,5.55,0,0,1,2,1.88,4.75,4.75,0,0,1,.65,2.52A4.5,4.5,0,0,1,222,69.73a7.77,7.77,0,0,1-4.86,1.39,9,9,0,0,1-3.68-.74,6.36,6.36,0,0,1-2.65-2.08,5,5,0,0,1-.91-3h2.53a3.34,3.34,0,0,0,1.28,2.75,5.48,5.48,0,0,0,3.43,1,4.92,4.92,0,0,0,3.07-.82A2.64,2.64,0,0,0,221.24,66a2.59,2.59,0,0,0-1-2.17A11.27,11.27,0,0,0,216.67,62.33Z"/><path d="M97.22,69.67a5.67,5.67,0,0,1-11.34,0h0a5.61,5.61,0,0,1,.58-2.48l-2.4-2,0,0a8.76,8.76,0,1,0,7.54-4.28H70.22l5.65,4.46V64H91.55A5.65,5.65,0,0,1,97.22,69.67Z"/><path d="M85.38,51.32a5.68,5.68,0,1,1,10.77,2.49l2.39,1.94.06,0a8.8,8.8,0,1,0-7.55,4.27h21.33l-5.65-4.45V57H91A5.67,5.67,0,0,1,85.38,51.32Z"/></svg>