<svg id="图层_1" data-name="图层 1" xmlns="http://www.w3.org/2000/svg" viewBox="0 0 294 121"><path d="M60.54,45h.1l.1,0,.08,0,.08,0,.11,0,.05,0,.09.06.08.08.08.08.06.09.07.1,7.19,14.19H86.9l8-14.26.09-.13.08-.08.1-.09.1-.06.13-.06.11,0,.09,0H96l.12,0,.07,0,.13.06,0,0,.1.07.08.09.06.08.06.1,0,.09,0,.14,0,.11,0,.13q.43,13.45-3.1,21t-15,14.61a.89.89,0,0,1-.45.15h-.15a1,1,0,0,1-.53-.15C69.83,76.84,64.76,72,62.38,66.93q-3.47-7.32-2.92-20.28l0-.76,0-.08,0-.12,0-.13,0-.06,0,0,0-.07.06-.08.11-.1.09-.07.12-.07.06,0,.09,0,.08,0,.09,0h.15Zm25.7,16.56H69.78l8.33,16ZM61.51,49.9c0,6.7,1,12,2.81,15.9S70,73.61,75.64,77.46Zm33.21,0L80.26,77.38c6.2-3.82,9.6-8,11.47-11.83s2.87-9.14,3-15.65Zm29,2.12v2H111.37a1.06,1.06,0,0,0-1.07.9v9.52a1,1,0,0,0,.95,1h12.44v2H111.37a3.16,3.16,0,0,1-3.22-2.9V55.1a3.14,3.14,0,0,1,3-3.07h12.5ZM147,52v2H135v4.87h9.3V61H135v4.53H147v2H132.87V52Zm22.73,0a3.12,3.12,0,0,1,3.13,2.91v4a3.11,3.11,0,0,1-3,3.08H168l5.13,5.57H170.5L165.2,62H159v5.57h-2.09V52Zm28.14,0v2.06h-6.7V67.57H189V54.08h-6.7V52Zm9.89,0V67.57h-1.41V52Zm13.46,0v6.83h5.06L231.94,52h2.67L228,60.08l5.82,7.49h-2.43L226,61h-4.82v6.59h-2.15V52Zm-51.91,2.12H159v5.65h10.3a1,1,0,0,0,1-.87V55.13a1,1,0,0,0-1-1ZM78.5,39.32l.12,0,13.25,3.76a.93.93,0,0,1,.68,1.18,1,1,0,0,1-1.17.65l-.12,0L78.32,41.24,65.68,44.91a1.06,1.06,0,0,1-1.25-.51l-.05-.1a.93.93,0,0,1,.56-1.15l.11,0,13-3.76a1.05,1.05,0,0,1,.5,0Zm0,0"/></svg>