<svg id="图层_1" data-name="图层 1" xmlns="http://www.w3.org/2000/svg" xmlns:xlink="http://www.w3.org/1999/xlink" viewBox="0 0 294 121"><defs><style>.cls-1{fill:none;}.cls-2{fill:#0e0e2a;}.cls-3,.cls-8{isolation:isolate;}.cls-3{opacity:0.6;}.cls-4{clip-path:url(#clip-path);}.cls-5{clip-path:url(#clip-path-2);}.cls-6{clip-path:url(#clip-path-3);}.cls-7{clip-path:url(#clip-path-4);}.cls-8{opacity:0.9;}.cls-9{clip-path:url(#clip-path-5);}.cls-10{clip-path:url(#clip-path-6);}.cls-11{clip-path:url(#clip-path-7);}.cls-12{clip-path:url(#clip-path-8);}.cls-13{clip-path:url(#clip-path-9);}</style><clipPath id="clip-path"><rect class="cls-1" x="57" y="59.24" width="2.24" height="2.57"/></clipPath><clipPath id="clip-path-2"><rect class="cls-1" x="90.67" y="59.24" width="2.24" height="2.57"/></clipPath><clipPath id="clip-path-3"><rect class="cls-1" x="73.5" y="44.62" width="2.92" height="3.35"/></clipPath><clipPath id="clip-path-4"><rect class="cls-1" x="73.63" y="73.34" width="2.65" height="3.04"/></clipPath><clipPath id="clip-path-5"><rect class="cls-1" x="65.46" y="52.52" width="1.98" height="2.26"/></clipPath><clipPath id="clip-path-6"><rect class="cls-1" x="65.46" y="66.29" width="1.98" height="2.26"/></clipPath><clipPath id="clip-path-7"><rect class="cls-1" x="82.48" y="52.52" width="1.98" height="2.26"/></clipPath><clipPath id="clip-path-8"><rect class="cls-1" x="82.48" y="66.29" width="1.98" height="2.26"/></clipPath><clipPath id="clip-path-9"><rect class="cls-1" x="72.65" y="50.08" width="4.62" height="5.3"/></clipPath></defs><path class="cls-2" d="M75,63.87A3.38,3.38,0,1,0,72,60.53,3.16,3.16,0,0,0,75,63.87"/><g class="cls-3"><g class="cls-4"><path class="cls-2" d="M58.12,61.81A1.3,1.3,0,1,0,57,60.53a1.21,1.21,0,0,0,1.12,1.28"/></g></g><g class="cls-3"><g class="cls-5"><path class="cls-2" d="M91.79,61.81a1.3,1.3,0,1,0-1.12-1.28,1.21,1.21,0,0,0,1.12,1.28"/></g></g><g class="cls-3"><g class="cls-6"><path class="cls-2" d="M75,48A1.69,1.69,0,1,0,73.5,46.3,1.58,1.58,0,0,0,75,48"/></g></g><g class="cls-3"><g class="cls-7"><path class="cls-2" d="M75,76.38a1.53,1.53,0,1,0-1.33-1.52A1.43,1.43,0,0,0,75,76.38"/></g></g><g class="cls-8"><g class="cls-9"><path class="cls-2" d="M66.45,54.79a1.15,1.15,0,1,0-1-1.14,1.07,1.07,0,0,0,1,1.14"/></g></g><g class="cls-8"><g class="cls-10"><path class="cls-2" d="M66.45,68.55a1.14,1.14,0,0,0,0-2.26,1.14,1.14,0,0,0,0,2.26"/></g></g><g class="cls-8"><g class="cls-11"><path class="cls-2" d="M83.47,54.79a1.15,1.15,0,1,0-1-1.14,1.07,1.07,0,0,0,1,1.14"/></g></g><g class="cls-8"><g class="cls-12"><path class="cls-2" d="M83.47,68.55a1.14,1.14,0,1,0-1-1.13,1.06,1.06,0,0,0,1,1.13"/></g></g><path class="cls-2" d="M66.45,62.43a1.92,1.92,0,1,0-1.66-1.9,1.79,1.79,0,0,0,1.66,1.9"/><path class="cls-2" d="M83.47,62.43a1.92,1.92,0,1,0-1.67-1.9,1.8,1.8,0,0,0,1.67,1.9"/><g class="cls-8"><g class="cls-13"><path class="cls-2" d="M75,55.38a2.68,2.68,0,1,0-2.31-2.65A2.5,2.5,0,0,0,75,55.38"/></g></g><path class="cls-2" d="M75,71a2.68,2.68,0,1,0-2.31-2.65A2.5,2.5,0,0,0,75,71"/><polygon class="cls-2" points="132.06 56.44 134.7 61.66 129.56 71.82 124.26 71.82 132.06 56.44"/><polygon class="cls-2" points="146.84 71.82 141.54 71.82 140.44 69.66 132.91 54.75 135.55 49.57 146.84 71.82"/><polygon class="cls-2" points="158.88 71.82 149.15 71.82 149.15 49.57 153.68 49.57 153.68 66.31 154.37 66.31 158.88 71.82"/><polygon class="cls-2" points="161.86 66.31 161.86 71.82 160.96 71.82 156.43 66.31 161.86 66.31"/><polygon class="cls-2" points="172.22 56.44 174.86 61.66 169.72 71.82 164.42 71.82 172.22 56.44"/><polygon class="cls-2" points="187 71.82 181.7 71.82 180.6 69.66 173.07 54.75 175.71 49.57 187 71.82"/><polygon class="cls-2" points="237 49.57 226.93 61.86 226.93 67.34 212.33 49.57 218.72 49.57 218.84 49.69 224.65 56.8 230.6 49.57 237 49.57"/><polygon class="cls-2" points="222.38 64.35 226.91 69.86 226.91 71.82 222.38 71.82 222.38 64.35"/><path class="cls-2" d="M109.12,57.38c.14-.22.29-.43.45-.64a4,4,0,0,1,6.51,0,5.36,5.36,0,0,1,.69,1.06h4.89A11.37,11.37,0,0,0,118,51.53a8.08,8.08,0,0,0-5.2-2,8.52,8.52,0,0,0-7,3.94l-.21.32,3.23,4Z"/><path class="cls-2" d="M115.44,65.31a4,4,0,0,1-2.62,1,4.14,4.14,0,0,1-3.25-1.64,6.27,6.27,0,0,1-1.35-4,6.36,6.36,0,0,1,.06-.87v-.22l-3.48-4.26-.23.57a12.87,12.87,0,0,0-.89,4.8,12.38,12.38,0,0,0,2.68,7.88,8.32,8.32,0,0,0,6.45,3.26,7.91,7.91,0,0,0,4.6-1.51v1.51H122v-9.3h-8.17Z"/><polygon class="cls-2" points="189.31 71.82 195.97 71.82 200.65 67.25 197.32 63.9 189.31 71.82"/><polygon class="cls-2" points="203.99 63.9 200.65 67.25 205.33 71.82 211.98 71.82 203.99 63.9"/><polygon class="cls-2" points="210.01 56.14 210.01 49.59 200.65 58.89 191.29 49.59 191.29 56.14 200.65 65.33 210.01 56.14"/></svg>