<svg id="图层_1" data-name="图层 1" xmlns="http://www.w3.org/2000/svg" viewBox="0 0 294 121"><path d="M107.05,59.21a8.76,8.76,0,0,0-7.19,3.61A12.91,12.91,0,0,0,97,71.19a7.76,7.76,0,0,0,1.82,5.38,6,6,0,0,0,4.8,2,8.72,8.72,0,0,0,6.9-3.4,13.46,13.46,0,0,0,3.12-8.75,8.55,8.55,0,0,0-1.53-5.26A6.19,6.19,0,0,0,107.05,59.21Zm.11,14.37a4.94,4.94,0,0,1-3.46,1.48,2.74,2.74,0,0,1-2.26-1,4.33,4.33,0,0,1-.81-2.83,10,10,0,0,1,1.76-6,5.21,5.21,0,0,1,4.47-2.43c2,0,3,1.25,3,3.73A10.26,10.26,0,0,1,107.16,73.58Zm109.51-5.43a1.73,1.73,0,0,0-2.15,1c-1.58,4-3.5,5.94-5.88,5.94-1.25,0-1.87-1.08-1.87-3.11a44,44,0,0,1,1-6.85l.51-2.37h4.85a1.72,1.72,0,0,0,1.7-1.42,1.75,1.75,0,0,0-1.37-2.06l-.33,0h-4l.81-4a1.83,1.83,0,0,0-1.41-2.17,2,2,0,0,0-.35,0,1.76,1.76,0,0,0-1.75,1.42l-1,4.69H194a8.75,8.75,0,0,0-7.2,3.66,12.91,12.91,0,0,0-2.89,8.37,10.48,10.48,0,0,0,.28,2.43A4.07,4.07,0,0,1,181.27,75a1.76,1.76,0,0,1-1.52-.62,3.62,3.62,0,0,1-.46-2,32.58,32.58,0,0,1,.81-6.06L183,52.63a1.8,1.8,0,1,0-3.5-.81h0l-1.7,8.36a7.6,7.6,0,0,0-4-1.08,9.36,9.36,0,0,0-7.35,3.4,12.94,12.94,0,0,0-2.94,8.6A9.8,9.8,0,0,0,164,74a4,4,0,0,1-2.49,1,2,2,0,0,1-1.62-.62,3.12,3.12,0,0,1-.51-2,22.06,22.06,0,0,1,.56-4,1.84,1.84,0,0,0-1.46-2.18l-.15,0a1.81,1.81,0,0,0-2,1.36,15.28,15.28,0,0,1-2.49,5.38A4.83,4.83,0,0,1,150.1,75a2.23,2.23,0,0,1-1.91-1.13,5.53,5.53,0,0,1-.75-3A9.4,9.4,0,0,1,149.19,65a5.5,5.5,0,0,1,4.64-2.38,7.23,7.23,0,0,1,2.72.56,1.6,1.6,0,0,0,1.62-.11,1.73,1.73,0,0,0,.6-2.39,1.67,1.67,0,0,0-.83-.72,7.5,7.5,0,0,0-1.41-.46,10.82,10.82,0,0,0-2.66-.39,9.41,9.41,0,0,0-7.28,3.4,11,11,0,0,0-2.32,4.18h0c-1.76,5.57-4,8.29-6.73,8.29a2.34,2.34,0,0,1-2-.91,3.43,3.43,0,0,1-.62-2.2,2.57,2.57,0,0,1,.05-.73A9.61,9.61,0,0,0,139.07,68a7.68,7.68,0,0,0,1.62-4.63c0-2.83-1.53-4.25-4.64-4.25a8.12,8.12,0,0,0-5.77,2.38l1.93-8.9a1.8,1.8,0,0,0-1.39-2.12,2.22,2.22,0,0,0-.37,0,1.74,1.74,0,0,0-1.75,1.41l-5.26,24.56a1.77,1.77,0,0,0,1.37,2.11,1.55,1.55,0,0,0,.37,0h0a1.77,1.77,0,0,0,1.69-1.47l1.62-7.52a14.33,14.33,0,0,1,1.13-2.89A8.58,8.58,0,0,1,132,64a5.32,5.32,0,0,1,3.56-1.3,1.2,1.2,0,0,1,1.36,1,2,2,0,0,1,0,.35,4.07,4.07,0,0,1-1.7,3,7.19,7.19,0,0,1-3.68,1.76c-.11,1.07-.17,1.87-.17,2.32A8.94,8.94,0,0,0,133,76.57a5.29,5.29,0,0,0,4.53,2,7.89,7.89,0,0,0,6.17-3.06l.68-.81a6.41,6.41,0,0,0,1.07,1.82,5.52,5.52,0,0,0,4.52,2A7.36,7.36,0,0,0,156.1,75c.73,2.38,2.42,3.51,5.26,3.51a6.84,6.84,0,0,0,4.34-1.61,5.62,5.62,0,0,0,4.05,1.53,7.35,7.35,0,0,0,6.16-3.51c.74,2.38,2.43,3.51,5.26,3.51A7,7,0,0,0,186,76.58a6,6,0,0,0,4.58,1.87,8.68,8.68,0,0,0,6.9-3.39,13.44,13.44,0,0,0,3.12-8.72,10,10,0,0,0-.68-3.78h4.7l-.45,2a43.75,43.75,0,0,0-1.14,7.19c0,4.41,1.82,6.67,5.38,6.67,4,0,7.07-2.71,9.22-8.09a1.61,1.61,0,0,0-.81-2.14ZM176.56,66a16.28,16.28,0,0,1-2.78,6.86,5,5,0,0,1-3.84,2.2A2.31,2.31,0,0,1,168,73.92a5.58,5.58,0,0,1-.73-2.93A9.34,9.34,0,0,1,169,65.05a5.25,5.25,0,0,1,7.26-1.54A5.59,5.59,0,0,1,177,64Zm19.69,4.25a16.35,16.35,0,0,1-2,3.28,4.9,4.9,0,0,1-3.45,1.53,2.72,2.72,0,0,1-2.26-1,4.33,4.33,0,0,1-.81-2.83,10,10,0,0,1,1.75-6,5.31,5.31,0,0,1,4.47-2.43c2,0,3.06,1.25,3.06,3.73a11.68,11.68,0,0,1-.76,3.79ZM122.38,50.44a1.78,1.78,0,0,0-1.76,1.42l-5.26,24.55a1.79,1.79,0,0,0,1.37,2.12,2.45,2.45,0,0,0,.38,0,1.78,1.78,0,0,0,1.76-1.42l5.26-24.55a1.8,1.8,0,0,0-1.44-2.12ZM84.75,45a12.94,12.94,0,0,0-12.9,12.89,13.23,13.23,0,0,0,.68,4.19A1.78,1.78,0,1,0,75.9,61a8.35,8.35,0,0,1-.5-3.28,9.3,9.3,0,1,1,9.86,9.56s-1.81.11-2.71.23a8.63,8.63,0,0,0-1,.19.12.12,0,0,1-.17,0,.12.12,0,0,1,0-.14L81.67,66l1.7-7.69a1.76,1.76,0,1,0-3.45-.74s-4,18.79-4,19a1.72,1.72,0,0,0,1.26,2.07l.09,0a1.73,1.73,0,0,0,2.08-1.27s0-.06,0-.09c.06-.22.57-2.72.57-2.72a4.58,4.58,0,0,1,3.79-3.6c.39-.06,2-.17,2-.17a12.89,12.89,0,0,0-1-25.72Z"/><path d="M220.42,74.72a2.15,2.15,0,0,0-2.54,1.68h0A2.13,2.13,0,0,0,219.52,79h0a2.1,2.1,0,0,0,2.52-1.58l0-.12A2.24,2.24,0,0,0,220.42,74.72Z"/></svg>