<svg id="图层_1" data-name="图层 1" xmlns="http://www.w3.org/2000/svg" viewBox="0 0 294 121"><path d="M65.1,51.81l12.36,7A14.41,14.41,0,0,1,75.28,60a1.93,1.93,0,0,1-1.4-.18c-2-1.07-4-2.21-6.09-3.39V75.39L84.52,65.9c-1.62-.89-3-1.7-4.42-2.4-.27-.13-.8.15-1.15.34-2.81,1.58-5.61,3.18-8.44,4.79-.68-2.39-.42-3,1.58-4.06,2.35-1.3,4.67-2.66,7-3.95.33-.19.87-.39,1.14-.25,3.2,1.74,6.37,3.54,9.86,5.5l-25,14.2Z"/><path d="M62.62,47.68V68.41c0,3.56,0,7.12,0,10.68,0,2.61,0,2.61-2.66,3.7V43L95.09,62.79c-2,1.79-2.25,1.85-4.37.65Q78.78,56.74,66.85,50C65.52,49.23,64.17,48.52,62.62,47.68Z"/><path d="M103.53,61.15c0-5.33,3.43-8.45,7.51-8.45a6.59,6.59,0,0,1,4.74,2.07l-1.7,2.06a4.17,4.17,0,0,0-3-1.36c-2.45,0-4.28,2.1-4.28,5.57s1.66,5.64,4.21,5.64a4.48,4.48,0,0,0,3.34-1.6l1.71,2a6.55,6.55,0,0,1-5.16,2.38C106.85,69.47,103.53,66.55,103.53,61.15Z"/><path d="M118.43,56.94h2.62l.22,2.16h.08a4.24,4.24,0,0,1,3.48-2.47,3.52,3.52,0,0,1,1.44.26l-.57,2.78a3.6,3.6,0,0,0-1.27-.2c-1,0-2.12.63-2.81,2.4v7.3h-3.19Z"/><path d="M127.64,73.84l.59-2.47a3.13,3.13,0,0,0,.86.16,2.35,2.35,0,0,0,2.29-1.86l.22-.72-4.76-12h3.23L132,62.61c.38,1.1.68,2.28,1,3.46h.11c.28-1.14.59-2.32.87-3.46l1.69-5.67h3.08l-4.35,12.6c-1.07,2.88-2.38,4.54-5.11,4.54A5.09,5.09,0,0,1,127.64,73.84Z"/><path d="M140.8,56.94h2.62l.22,1.26h.08a5.85,5.85,0,0,1,3.61-1.57c3,0,4.8,2.47,4.8,6.23,0,4.19-2.51,6.61-5.2,6.61a4.54,4.54,0,0,1-3-1.33l.09,2v3.71H140.8Zm8,6c0-2.34-.74-3.63-2.42-3.63A3.45,3.45,0,0,0,144,60.54v5.37a3.39,3.39,0,0,0,2.22.92C147.7,66.83,148.83,65.56,148.83,62.9Z"/><path d="M154.71,64.89V59.47H153V57.09l1.87-.15.38-3.28h2.68v3.28h3v2.53h-3v5.42c0,1.39.57,2,1.66,2a3.51,3.51,0,0,0,1.2-.26l.53,2.34a8.21,8.21,0,0,1-2.58.45C155.83,69.47,154.71,67.64,154.71,64.89Z"/><path d="M162.25,63.07c0-4.08,2.82-6.44,5.88-6.44S174,59,174,63.07s-2.82,6.4-5.87,6.4S162.25,67.11,162.25,63.07Zm8.47,0c0-2.31-.93-3.82-2.59-3.82s-2.6,1.51-2.6,3.82.93,3.78,2.6,3.78S170.72,65.37,170.72,63.07Z"/><path d="M181.1,61.15c0-5.33,3.45-8.45,7.76-8.45a6.81,6.81,0,0,1,5,2.07l-1.73,2.06A4.21,4.21,0,0,0,189,55.47c-2.69,0-4.57,2.1-4.57,5.57s1.62,5.64,4.78,5.64a3.3,3.3,0,0,0,2-.61V62.88h-2.87V60.23h5.75v7.3a7.6,7.6,0,0,1-5.24,1.94C184.44,69.47,181.1,66.55,181.1,61.15Z"/><path d="M196.55,63.07c0-4,2.77-6.44,5.7-6.44,3.36,0,5.11,2.47,5.11,5.85a6.49,6.49,0,0,1-.15,1.47h-7.54A3.21,3.21,0,0,0,203.06,67a5,5,0,0,0,2.75-.86l1.09,2a7.7,7.7,0,0,1-4.28,1.35C199.21,69.47,196.55,67.09,196.55,63.07Zm8.06-1.24c0-1.66-.75-2.71-2.32-2.71a2.76,2.76,0,0,0-2.66,2.71Z"/><path d="M209.24,63.07c0-4,2.77-6.44,5.7-6.44,3.36,0,5.11,2.47,5.11,5.85A6,6,0,0,1,219.9,64h-7.54A3.23,3.23,0,0,0,215.75,67a5,5,0,0,0,2.75-.86l1.09,2a7.7,7.7,0,0,1-4.28,1.35C211.9,69.47,209.24,67.09,209.24,63.07Zm8.06-1.24c0-1.66-.74-2.71-2.32-2.71a2.76,2.76,0,0,0-2.66,2.71Z"/><path d="M222.7,51.74h3.12V62.22h.09l4.24-5.28h3.49l-4.24,5L234,69.17h-3.47l-3-5.07-1.77,2v3.06H222.7Z"/></svg>