<svg  xmlns="http://www.w3.org/2000/svg" xmlns:xlink="http://www.w3.org/1999/xlink" width="1366px" height="513px"><defs><linearGradient id="PSgrad_0" x1="0%" x2="0%" y1="100%" y2="0%">  <stop offset="14%" stop-color="rgb(255,255,255)" stop-opacity="1" />  <stop offset="82%" stop-color="rgb(248,221,235)" stop-opacity="1" /></linearGradient></defs><path fill-rule="evenodd"  fill="rgb(255, 255, 255)" d="M0.0,454.428 C73.709,398.942 184.766,326.262 318.999,336.151 C573.211,354.878 592.123,242.240 701.0,136.5 C809.876,29.769 1005.700,179.311 1199.999,41.756 C1259.412,0.304 1315.802,-6.768 1365.999,5.591 L1365.999,512.999 L0.0,512.999 L0.0,454.428 Z"/><path fill="url(#PSgrad_0)" d="M0.0,454.428 C73.709,398.942 184.766,326.262 318.999,336.151 C573.211,354.878 592.123,242.240 701.0,136.5 C809.876,29.769 1005.700,179.311 1199.999,41.756 C1259.412,0.304 1315.802,-6.768 1365.999,5.591 L1365.999,512.999 L0.0,512.999 L0.0,454.428 Z"/></svg>