<svg xmlns="http://www.w3.org/2000/svg" xmlns:xlink="http://www.w3.org/1999/xlink" viewBox="0 0 931.28 524.85"><defs><style>.cls-1,.cls-42{font-size:9.1px;}.cls-1,.cls-2,.cls-21,.cls-22,.cls-37,.cls-39,.cls-4,.cls-42,.cls-54,.cls-6{fill:#e6007a;}.cls-1,.cls-2,.cls-37,.cls-54{font-family:PingFangTC-Medium, PingFang TC;font-weight:500;}.cls-2{font-size:9.1px;}.cls-3{fill:url(#未命名的渐变_11);}.cls-5{fill:url(#未命名的渐变_11-2);}.cls-6{font-size:12.13px;}.cls-21,.cls-22,.cls-39,.cls-42,.cls-6{font-family:PingFangTC-Semibold, PingFang TC;font-weight:600;}.cls-12,.cls-23,.cls-24,.cls-25,.cls-26,.cls-27,.cls-28,.cls-29,.cls-30,.cls-31,.cls-32,.cls-43,.cls-44,.cls-45,.cls-7,.cls-8,.cls-9{stroke:#e6007a;}.cls-10,.cls-12,.cls-44,.cls-45,.cls-7{stroke-miterlimit:10;}.cls-44,.cls-45,.cls-7{stroke-width:1.41px;}.cls-7{fill:url(#未命名的渐变_57);}.cls-10,.cls-12,.cls-23,.cls-24,.cls-25,.cls-26,.cls-27,.cls-28,.cls-29,.cls-30,.cls-31,.cls-32,.cls-43,.cls-8,.cls-9{fill:none;}.cls-23,.cls-24,.cls-25,.cls-26,.cls-27,.cls-28,.cls-29,.cls-30,.cls-31,.cls-32,.cls-43,.cls-8,.cls-9{stroke-linejoin:bevel;}.cls-9{stroke-dasharray:1.97 1.97;}.cls-10{stroke:#f8ddeb;stroke-dasharray:2.44;}.cls-11{fill:url(#未命名的渐变_6);}.cls-12{stroke-linecap:round;stroke-dasharray:4;}.cls-13{fill:url(#未命名的渐变_57-2);}.cls-14{fill:url(#未命名的渐变_6-2);}.cls-15{fill:#f8ddeb;}.cls-16{fill:url(#未命名的渐变_11-3);}.cls-17{fill:url(#未命名的渐变_6-3);}.cls-18{fill:url(#未命名的渐变_6-4);}.cls-19{fill:url(#未命名的渐变_6-5);}.cls-20{fill:url(#未命名的渐变_11-4);}.cls-21{font-size:6.06px;}.cls-22{font-size:3.84px;}.cls-23{stroke-dasharray:2.05 2.05;}.cls-24{stroke-dasharray:1.99 1.99;}.cls-25{stroke-dasharray:2.02 2.02;}.cls-26{stroke-dasharray:1.94 1.94;}.cls-27{stroke-dasharray:1.88 1.88;}.cls-28{stroke-dasharray:1.98 1.98;}.cls-29{stroke-dasharray:1.98 1.98;}.cls-30{stroke-dasharray:2 2;}.cls-31{stroke-dasharray:2 2;}.cls-32{stroke-dasharray:2.01 2.01;}.cls-33{fill:#e696c0;}.cls-34{fill:url(#未命名的渐变_62);}.cls-35{fill:url(#未命名的渐变_62-2);}.cls-36{fill:url(#未命名的渐变_62-3);}.cls-37{font-size:9.1px;}.cls-38{fill:url(#未命名的渐变_11-5);}.cls-39,.cls-54{font-size:7.58px;}.cls-40{fill:url(#未命名的渐变_11-6);}.cls-41{fill:url(#未命名的渐变_11-7);}.cls-43{stroke-dasharray:2;}.cls-44{fill:url(#未命名的渐变_57-3);}.cls-45{fill:url(#未命名的渐变_57-4);}.cls-46{fill:url(#未命名的渐变_11-8);}.cls-47{fill:url(#未命名的渐变_11-9);}.cls-48{fill:url(#未命名的渐变_11-10);}.cls-49{fill:url(#未命名的渐变_11-11);}.cls-50{fill:url(#未命名的渐变_11-12);}.cls-51{fill:url(#未命名的渐变_11-13);}.cls-52{fill:url(#未命名的渐变_11-14);}.cls-53{fill:url(#未命名的渐变_11-15);}.cls-55{fill:url(#未命名的渐变_6-6);}.cls-56{fill:url(#未命名的渐变_6-7);}.cls-57{fill:url(#未命名的渐变_6-8);}.cls-58{fill:url(#未命名的渐变_6-9);}.cls-59{fill:url(#未命名的渐变_6-10);}.cls-60{fill:url(#未命名的渐变_6-11);}.cls-61{fill:url(#未命名的渐变_6-12);}.cls-62{fill:url(#未命名的渐变_6-13);}.cls-63{fill:url(#未命名的渐变_6-14);}.cls-64{fill:url(#未命名的渐变_6-15);}.cls-65{fill:url(#未命名的渐变_6-16);}.cls-66{fill:url(#未命名的渐变_6-17);}</style><linearGradient id="未命名的渐变_11" x1="0.35" y1="210.59" x2="106.46" y2="210.59" gradientUnits="userSpaceOnUse"><stop offset="0" stop-color="#fff"/><stop offset="1" stop-color="#fff"/></linearGradient><linearGradient id="未命名的渐变_11-2" x1="16.94" y1="242.94" x2="91.94" y2="167.95" xlink:href="#未命名的渐变_11"/><linearGradient id="未命名的渐变_57" x1="46.68" y1="189.6" x2="60.14" y2="176.14" gradientUnits="userSpaceOnUse"><stop offset="0" stop-color="#fff"/><stop offset="1" stop-color="#e6519f"/></linearGradient><linearGradient id="未命名的渐变_6" x1="321.16" y1="274.2" x2="458.67" y2="136.69" gradientUnits="userSpaceOnUse"><stop offset="0" stop-color="#fff"/><stop offset="1" stop-color="#f8ddeb"/></linearGradient><linearGradient id="未命名的渐变_57-2" x1="369.49" y1="193.74" x2="381.94" y2="193.74" xlink:href="#未命名的渐变_57"/><linearGradient id="未命名的渐变_6-2" x1="395.43" y1="138.23" x2="409.08" y2="138.23" xlink:href="#未命名的渐变_6"/><linearGradient id="未命名的渐变_11-3" x1="399.79" y1="138.23" x2="404.71" y2="138.23" xlink:href="#未命名的渐变_11"/><linearGradient id="未命名的渐变_6-3" x1="363.01" y1="138.74" x2="381.88" y2="138.74" xlink:href="#未命名的渐变_6"/><linearGradient id="未命名的渐变_6-4" x1="325.73" y1="158.29" x2="352.47" y2="158.29" xlink:href="#未命名的渐变_6"/><linearGradient id="未命名的渐变_6-5" x1="315" y1="188.6" x2="330.56" y2="188.6" xlink:href="#未命名的渐变_6"/><linearGradient id="未命名的渐变_11-4" x1="319.52" y1="188.6" x2="326.04" y2="188.6" xlink:href="#未命名的渐变_11"/><linearGradient id="未命名的渐变_62" x1="-360.03" y1="-390.36" x2="-354.08" y2="-390.36" gradientTransform="translate(-148.25 913.33) rotate(82.64)" gradientUnits="userSpaceOnUse"><stop offset="0" stop-color="#fff"/><stop offset="1" stop-color="#e6007a"/></linearGradient><linearGradient id="未命名的渐变_62-2" x1="-377.72" y1="-418.75" x2="-373.13" y2="-418.75" xlink:href="#未命名的渐变_62"/><linearGradient id="未命名的渐变_62-3" x1="-61.29" y1="-177.35" x2="-54.96" y2="-177.35" gradientTransform="translate(46.84 627.64) rotate(53.41)" xlink:href="#未命名的渐变_62"/><linearGradient id="未命名的渐变_11-5" x1="11.85" y1="458.58" x2="94.97" y2="458.58" xlink:href="#未命名的渐变_11"/><linearGradient id="未命名的渐变_11-6" x1="325.71" y1="461.62" x2="453.13" y2="461.62" xlink:href="#未命名的渐变_11"/><linearGradient id="未命名的渐变_11-7" x1="337.12" y1="496.24" x2="440.56" y2="421.76" xlink:href="#未命名的渐变_11"/><linearGradient id="未命名的渐变_57-3" x1="362.83" y1="443.73" x2="372.56" y2="434.01" xlink:href="#未命名的渐变_57"/><linearGradient id="未命名的渐变_57-4" x1="399.38" y1="440.75" x2="419.9" y2="440.75" xlink:href="#未命名的渐变_57"/><linearGradient id="未命名的渐变_11-8" x1="645.34" y1="140.2" x2="646.39" y2="194.22" xlink:href="#未命名的渐变_11"/><linearGradient id="未命名的渐变_11-9" x1="645.63" y1="167.38" x2="645.63" y2="221.38" xlink:href="#未命名的渐变_11"/><linearGradient id="未命名的渐变_11-10" x1="645.63" y1="189.18" x2="645.63" y2="243.18" xlink:href="#未命名的渐变_11"/><linearGradient id="未命名的渐变_11-11" x1="645.63" y1="212.81" x2="645.63" y2="266.81" xlink:href="#未命名的渐变_11"/><linearGradient id="未命名的渐变_11-12" x1="645.63" y1="237.38" x2="645.63" y2="291.39" xlink:href="#未命名的渐变_11"/><linearGradient id="未命名的渐变_11-13" x1="827.97" y1="247.43" x2="929.44" y2="174.37" xlink:href="#未命名的渐变_11"/><linearGradient id="未命名的渐变_11-14" x1="827.97" y1="242.88" x2="929.44" y2="169.82" xlink:href="#未命名的渐变_11"/><linearGradient id="未命名的渐变_11-15" x1="578.13" y1="35.56" x2="713.12" y2="35.56" xlink:href="#未命名的渐变_11"/><linearGradient id="未命名的渐变_6-6" x1="603.45" y1="36.93" x2="609.47" y2="36.93" xlink:href="#未命名的渐变_6"/><linearGradient id="未命名的渐变_6-7" x1="592.66" y1="36.93" x2="598.68" y2="36.93" xlink:href="#未命名的渐变_6"/><linearGradient id="未命名的渐变_6-8" x1="581.86" y1="36.93" x2="587.88" y2="36.93" xlink:href="#未命名的渐变_6"/><linearGradient id="未命名的渐变_6-9" x1="636.6" y1="36.93" x2="642.62" y2="36.93" xlink:href="#未命名的渐变_6"/><linearGradient id="未命名的渐变_6-10" x1="625.81" y1="36.93" x2="631.82" y2="36.93" xlink:href="#未命名的渐变_6"/><linearGradient id="未命名的渐变_6-11" x1="615.01" y1="36.93" x2="621.03" y2="36.93" xlink:href="#未命名的渐变_6"/><linearGradient id="未命名的渐变_6-12" x1="669.75" y1="36.93" x2="675.77" y2="36.93" xlink:href="#未命名的渐变_6"/><linearGradient id="未命名的渐变_6-13" x1="658.96" y1="36.93" x2="664.97" y2="36.93" xlink:href="#未命名的渐变_6"/><linearGradient id="未命名的渐变_6-14" x1="648.16" y1="36.93" x2="654.18" y2="36.93" xlink:href="#未命名的渐变_6"/><linearGradient id="未命名的渐变_6-15" x1="702.9" y1="36.93" x2="708.92" y2="36.93" xlink:href="#未命名的渐变_6"/><linearGradient id="未命名的渐变_6-16" x1="692.11" y1="36.93" x2="698.12" y2="36.93" xlink:href="#未命名的渐变_6"/><linearGradient id="未命名的渐变_6-17" x1="681.31" y1="36.93" x2="687.33" y2="36.93" xlink:href="#未命名的渐变_6"/></defs><g id="图层_2" data-name="图层 2"><g id="图层_1-2" data-name="图层 1"><text class="cls-1" transform="translate(157.76 196.05)">Deposit/Withdraw</text><text class="cls-1" transform="translate(735.02 196.05)">Transaction Fee</text><text class="cls-1" transform="translate(890.41 330.57) rotate(90)">Bad Debts</text><text class="cls-2" transform="translate(588.69 385.9) rotate(-25.64)">Fee charge by protocol</text><text class="cls-1" transform="translate(168.08 221.34)">Mint/Destory</text><circle class="cls-3" cx="53.41" cy="210.59" r="53.06"/><path class="cls-4" d="M53.41,157.89a52.7,52.7,0,1,1-52.7,52.7,52.76,52.76,0,0,1,52.7-52.7m0-.71a53.41,53.41,0,1,0,53.41,53.41,53.41,53.41,0,0,0-53.41-53.41Z"/><circle class="cls-5" cx="53.41" cy="206.48" r="53.06"/><path class="cls-4" d="M53.41,153.77A52.71,52.71,0,1,1,.71,206.48a52.77,52.77,0,0,1,52.7-52.71m0-.7a53.41,53.41,0,1,0,53.41,53.41,53.41,53.41,0,0,0-53.41-53.41Z"/><text class="cls-6" transform="translate(40.07 240.04)">User</text><path class="cls-7" d="M43.89,182.87a9.52,9.52,0,1,0,9.52-9.52,9.52,9.52,0,0,0-9.52,9.52Z"/><path class="cls-4" d="M71.25,208a3.89,3.89,0,0,1-.83,2.65c-2.5,3-9.16,5.17-17,5.17s-14.51-2.14-17-5.17a4.6,4.6,0,0,1,0-5.3c2.5-3,9.16-5.17,17-5.17s14.51,2.14,17,5.17a3.8,3.8,0,0,1,.83,2.65Z"/><polygon class="cls-4" points="142.25 210.89 132.38 205.94 142.25 200.99 142.25 210.89"/><polygon class="cls-4" points="244.75 200.99 254.63 205.94 244.75 210.89 244.75 200.99"/><line class="cls-8" x1="142.25" y1="205.94" x2="143.25" y2="205.94"/><line class="cls-9" x1="145.22" y1="205.94" x2="242.75" y2="205.94"/><line class="cls-8" x1="243.74" y1="205.94" x2="244.74" y2="205.94"/><circle class="cls-10" cx="389.42" cy="205.94" r="112.84"/><circle class="cls-11" cx="389.42" cy="205.94" r="97.24"/><path class="cls-12" d="M443.07,239c-6.83,0-14.1-1.67-22.5-3.61-9.47-2.18-20.21-4.65-31.15-4.65s-21.68,2.47-31.15,4.65c-8.41,1.94-15.67,3.61-22.5,3.61"/><path class="cls-4" d="M389.42,137.19h-2l-.46,0a.5.5,0,0,0,0,1h0c.79,0,1.6,0,2.4,0a.51.51,0,0,0,.5-.5.5.5,0,0,0-.5-.5Zm-4.83.16h0c-.42,0-.84.06-1.27.1h-.18l-1,.1a.5.5,0,0,0,.05,1h.06c.79-.08,1.59-.15,2.39-.21a.5.5,0,0,0,0-1Zm-4.81.51h-.16c-.59.08-1.18.17-1.76.27h-.15l-.41.07a.5.5,0,0,0,.09,1h.08c.79-.14,1.59-.27,2.38-.38a.5.5,0,0,0-.07-1Zm-4.77.85h-.1l-.3.06h-.38l-.13,0h0l-.13,0h-.91l-.53.13a.5.5,0,0,0,.13,1l.12,0c.77-.19,1.56-.38,2.34-.54a.5.5,0,0,0,.38-.6.49.49,0,0,0-.49-.39Zm-4.68,1.18-.14,0-1.46.44h-.34l0,0h0l-.48.15a.52.52,0,0,0-.32.64.5.5,0,0,0,.48.34l.15,0c.76-.25,1.53-.49,2.3-.71a.5.5,0,0,0,.34-.62.51.51,0,0,0-.48-.36Zm-4.6,1.52-.17,0c-.76.28-1.52.58-2.27.89a.49.49,0,0,0-.27.65.5.5,0,0,0,.46.31.65.65,0,0,0,.19,0c.74-.3,1.49-.6,2.24-.87a.5.5,0,0,0,.29-.65.49.49,0,0,0-.47-.32Zm-4.47,1.84a.45.45,0,0,0-.2,0H361l0,0h0l0,0h0l-.06,0h0l-.07,0h0c-.62.29-1.24.58-1.86.89a.5.5,0,0,0,.23.94.44.44,0,0,0,.22-.05c.71-.35,1.44-.7,2.17-1a.5.5,0,0,0-.21-.95Zm-4.33,2.15a.53.53,0,0,0-.24.06l-1.1.61h0l-.06,0h0l0,0h0l0,0h0l0,0h0l0,0h0l0,0h0l0,0h-.06l0,0h0l0,0h0l0,0H355l0,0h-.19l0,0h0l0,0h0l-.06,0h0a.5.5,0,0,0,.26.93.47.47,0,0,0,.25-.07c.69-.41,1.39-.8,2.09-1.18a.51.51,0,0,0,.2-.68.49.49,0,0,0-.44-.26Zm-4.17,2.45a.5.5,0,0,0-.26.08l-.67.43h0l0,0h0l0,0h0l0,0h0l0,0h0l0,0h0l0,0h-.1l-.06,0h0l-.05,0h0l-.06,0h0l-.06,0h0l-.06,0h0l0,0h0l0,0h-.15l0,0h0l0,0h0l-.37.26a.5.5,0,0,0,.28.91.47.47,0,0,0,.28-.09c.66-.45,1.33-.9,2-1.33a.5.5,0,0,0,.16-.69.51.51,0,0,0-.43-.23Zm-4,2.75a.55.55,0,0,0-.3.09l-.73.55h0l-.06,0h0l-.05,0h0l-.05,0h0l0,0h0l0,0h0l0,0h0l0,0h0l0,0h0l0,0h0l0,0h0l0,0h0l0,0h0l0,0h0l0,0h0l0,0h0l-.06.05h0l-.51.4a.5.5,0,0,0-.08.7.5.5,0,0,0,.4.19.51.51,0,0,0,.31-.11c.62-.5,1.26-1,1.9-1.46a.5.5,0,0,0,.1-.7.49.49,0,0,0-.4-.2Zm-3.78,3a.49.49,0,0,0-.32.12l0,0h0l0,0h0l0,0h0l0,0h-.05l-.06,0h0l-1.61,1.43a.5.5,0,0,0,0,.71.49.49,0,0,0,.37.16.46.46,0,0,0,.33-.13c.59-.54,1.19-1.08,1.8-1.6a.5.5,0,0,0-.33-.88Zm-3.55,3.28a.54.54,0,0,0-.36.14l-.37.38h0l-.06.05h0l-.05,0h0l-.05,0h0l-.05.05h0l0,0h0l0,0h0v0h0l0,0h0l0,0h0l0,0h0l0,0h0l0,0h0l0,0h0l0,0h0l0,0h0l0,0h0v0h0v0h0l0,0h0l0,0h0l0,0h0l0,0h0l0,0h0l0,0h0l0,0h0l0,0h0v0l0,0h0l0,0h0v0l0,0h0l0,0h0v0h0l0,0h0a.49.49,0,0,0,0,.7.51.51,0,0,0,.34.14.49.49,0,0,0,.37-.16c.55-.58,1.11-1.16,1.68-1.72a.5.5,0,0,0-.35-.85Zm-3.32,3.52a.51.51,0,0,0-.38.16c-.53.62-1.06,1.24-1.58,1.87a.5.5,0,0,0,.08.7.51.51,0,0,0,.31.11.5.5,0,0,0,.39-.18c.5-.62,1-1.23,1.55-1.83a.51.51,0,0,0,0-.71.54.54,0,0,0-.33-.12Zm-3.06,3.74a.49.49,0,0,0-.4.2l0,0h0l0,.06h0l0,0h0l0,0h0l0,0h0v0h0l0,0h0v0h0v0h0v0h0l0,0v0h0v0l0,0h0v0h0v0h0l0,0h0v0h0v0h0v0h0l0,0v0h0v0h0v0l0,0h0v0h0l0,0h0l0,0h0l0,0h0l0,0h0l0,0h0v0h0l0,.06h0l0,.06h0l-.5.69a.51.51,0,0,0,.13.7.47.47,0,0,0,.28.09.48.48,0,0,0,.41-.21c.46-.65.94-1.3,1.42-1.94a.49.49,0,0,0-.39-.8Zm-2.8,3.95a.48.48,0,0,0-.41.23c-.08.11-.16.23-.23.35h0l0,.06h0v0h0l0,0h0v0h0v0h0v0h0l0,.06h0l-.69,1.1h0l0,.06h0v0h0v0h0v0h0l0,0h0l0,.07a.48.48,0,0,0,.17.68.49.49,0,0,0,.25.08.5.5,0,0,0,.43-.25c.42-.68.85-1.36,1.28-2a.5.5,0,0,0-.14-.69.57.57,0,0,0-.28-.08Zm-2.5,4.14a.52.52,0,0,0-.44.25l-.24.45h0l0,.07h0l0,.06h0v0h0l0,0h0v0h0v0h0v.06h0v0h0v0h0v0l0,0h0v0h0v0h0v0h0l0,0h0v0h0v.06h0v0h0v.06h0v0h0v0h0v0h0l0,0h0v0h0v0h0v0h0v0h0v0h0v0h0v.06h0v.06h0v.06h0v0l0,0h0v0h0v0h0v0h0l0,0h0v0h0v0a.5.5,0,0,0,.22.67.46.46,0,0,0,.23.06.49.49,0,0,0,.44-.27c.37-.71.75-1.42,1.14-2.12a.5.5,0,0,0-.44-.74Zm-2.2,4.3a.52.52,0,0,0-.46.29c-.27.57-.53,1.15-.78,1.73h0v0h0v0h0v0h0v.05h0c-.05.11-.09.22-.14.34a.5.5,0,0,0,.26.65.48.48,0,0,0,.2,0,.51.51,0,0,0,.46-.31c.31-.73.64-1.47,1-2.19a.49.49,0,0,0-.24-.66.54.54,0,0,0-.21-.05Zm-1.9,4.45a.48.48,0,0,0-.46.32l-.24.62h0l0,.07h0v0h0v0h0v.08h0v0h0v0h0v0h0v0h0v0h0v0h0v0h0v0h0v0h0l0,.07h0v0h0v0h0v0h0l0,.07h0l0,.07h0l0,.07h0l0,.07h0v0h0v0h0v0h0v0h0v0h0v.06h0v.08h0l0,.07h0a2.09,2.09,0,0,1-.08.23.51.51,0,0,0,.31.64l.17,0a.5.5,0,0,0,.47-.34c.26-.75.53-1.51.82-2.25a.5.5,0,0,0-.29-.65.57.57,0,0,0-.18,0Zm-1.57,4.57a.51.51,0,0,0-.48.36l-.09.31h0v.1h0v0h0v0h0v0h0v0h0v0h0v0h0l0,.06h0l0,.07h0l0,.11h0l0,.07h0l0,.07h0l0,.07h0v0h0l0,.07h0l0,.07h0v0h0v0h0v.07h0v0h0v.08h0v0h0v0h0l0,.07h0c-.06.2-.11.4-.16.6a.5.5,0,0,0,.35.61l.13,0a.5.5,0,0,0,.48-.37c.21-.77.43-1.55.66-2.31a.5.5,0,0,0-.33-.62.4.4,0,0,0-.15,0Zm-1.24,4.68a.5.5,0,0,0-.49.39l-.12.55h0v0h0v0h0v0h0v0h0v.05h0v0h0v0h0v.05h0c0,.13-.06.26-.08.39h0V192h0v0h0v0h0v0h0v0h0v0h0v0h0v0h0v0h0v0h0v0h0v0h0v0h0v0h0v0h0v0h0v0h0v0h0v0h0v0h0v0h0v0h0v.05h0v0h0v0h0v0h0v0h0a.51.51,0,0,0,.39.59h.1a.5.5,0,0,0,.49-.4c.15-.79.31-1.58.49-2.35a.5.5,0,0,0-.38-.6ZM322,195a.5.5,0,0,0-.5.42l-.15,1h0v.05h0v0h0v0h0v0h0v0h0v0h0v0h0v.05h0c0,.35-.09.71-.13,1.07a.49.49,0,0,0,.43.55h.06a.5.5,0,0,0,.5-.44c.09-.79.2-1.59.32-2.38A.5.5,0,0,0,322,195Zm-.57,4.8a.52.52,0,0,0-.5.46q-.09,1.22-.15,2.43a.49.49,0,0,0,.47.52h0a.5.5,0,0,0,.5-.47c0-.8.09-1.61.15-2.4a.5.5,0,0,0-.46-.54Zm-.22,4.83a.49.49,0,0,0-.5.49v.15h0v0h0c0,.14,0,.28,0,.42h0v0h0v0h0v0h0v0h0v0h0v0h0v0h0V206h0v0h0v0h0v0h0v0h0v0h0v0h0v.07h0v0h0v0h0v0h0v0h0v0h0v0h0v0h0v.16h0v0h0v0h0v0h0V207h0v0h0v0h0v0h0v0h0v0h0v.13h0v0h0v0h0v0h0v0h0v.14a.5.5,0,0,0,.5.49h0a.5.5,0,0,0,.49-.51c0-.52,0-1.05,0-1.59,0-.27,0-.54,0-.81a.5.5,0,0,0-.5-.51Zm.12,4.83h0a.51.51,0,0,0-.47.53c0,.56.09,1.09.14,1.61h0v0h0v0h0v0h0v0h0v0h0v0h0v0h0v0h0v0h0v0h0v0h0v0h0v0h0v0h0v0h0l.06.44a.5.5,0,0,0,.49.44h.06a.5.5,0,0,0,.44-.55c-.1-.75-.17-1.55-.23-2.37a.5.5,0,0,0-.5-.47Zm.61,4.77h-.1a.49.49,0,0,0-.39.58c0,.16.06.31.1.47h0v0h0v0h0q.19.9.45,1.71a.49.49,0,0,0,.47.36.4.4,0,0,0,.15,0,.49.49,0,0,0,.33-.62c-.21-.71-.4-1.47-.56-2.27a.49.49,0,0,0-.49-.4Zm1.39,4.54a.45.45,0,0,0-.2,0,.51.51,0,0,0-.26.66l.09.19h0v0H323v0h0v0h0v0h0v0h0l0,0h0v0h0l.11.22h0l0,0h0v0h0v0h0v0h0v0h0v0h.09v0h0v0h0c.18.33.37.64.56.93a.52.52,0,0,0,.42.22.6.6,0,0,0,.28-.08.5.5,0,0,0,.13-.7,13.72,13.72,0,0,1-1.08-2,.5.5,0,0,0-.46-.3Zm2.61,3.85a.48.48,0,0,0-.36.16.49.49,0,0,0,0,.7,10.21,10.21,0,0,0,1.6,1.28h0l0,0h.07l0,0h0l.18.11a.59.59,0,0,0,.26.07.5.5,0,0,0,.25-.93,9.83,9.83,0,0,1-1.74-1.34.49.49,0,0,0-.35-.15Zm4,2.4a.5.5,0,0,0-.17,1,11.81,11.81,0,0,0,1.5.42h.29l.57.11h.09a.49.49,0,0,0,.49-.41.51.51,0,0,0-.41-.58A13.1,13.1,0,0,1,330,225l-.16,0Zm4.64.82a.5.5,0,0,0,0,1c.25,0,.5,0,.76,0H336c.29,0,.59,0,.89,0a.49.49,0,0,0,.48-.51.51.51,0,0,0-.5-.49h0l-1.09,0q-.64,0-1.26,0Zm7.18-.44h-.07c-.83.12-1.62.22-2.37.29a.5.5,0,0,0,0,1h.05l.29,0h.09c.66-.07,1.34-.16,2-.26a.5.5,0,0,0,.42-.56.51.51,0,0,0-.5-.43Zm4.78-.83h-.1c-.8.16-1.6.31-2.37.44a.5.5,0,0,0,.08,1h.09l2.4-.45a.51.51,0,0,0,.39-.59.5.5,0,0,0-.49-.4Zm4.75-1-.11,0-2.37.52a.49.49,0,0,0-.38.59.5.5,0,0,0,.49.4l.1,0,2-.43h0l.37-.08a.5.5,0,0,0-.11-1Zm4.75-1.08h-.11l-.52.12-1.86.43a.5.5,0,0,0,.11,1l.11,0,2.21-.5.17,0a.5.5,0,0,0-.11-1Zm4.75-1.08h-.11l-2.38.54a.49.49,0,0,0-.37.6.48.48,0,0,0,.48.38h.11l1.86-.42h0l.5-.11a.5.5,0,0,0-.11-1Zm4.78-1h-.1l-2.4.5a.49.49,0,0,0-.38.59.5.5,0,0,0,.49.4h.1l2.2-.46h.05l.14,0a.51.51,0,0,0,.39-.59.5.5,0,0,0-.49-.4Zm4.8-.92h-.09l-2.41.44a.51.51,0,0,0-.4.59.5.5,0,0,0,.49.4h.1l1.7-.31H370l.41-.08a.5.5,0,0,0,.41-.58.51.51,0,0,0-.49-.41Zm4.82-.77H375c-.81.11-1.62.23-2.42.36a.5.5,0,0,0,.07,1h.08l.47-.07h.17l1.78-.26a.5.5,0,0,0-.08-1Zm4.86-.58h0c-.82.08-1.63.17-2.44.27a.5.5,0,0,0,.06,1h.29l1-.12h.51l.64-.07a.49.49,0,0,0,.45-.54.5.5,0,0,0-.5-.45Zm4.88-.37h0c-.83,0-1.64.09-2.46.15a.5.5,0,0,0,0,1h0l1-.07h.74l.71,0a.5.5,0,0,0,.47-.53.49.49,0,0,0-.5-.47Zm4.58-.12-2.14,0a.5.5,0,0,0-.49.52.5.5,0,0,0,.5.48h2.45a.5.5,0,0,0,0-1Zm2.77,0a.51.51,0,0,0-.5.49.5.5,0,0,0,.48.51c.82,0,1.63.06,2.44.11h0a.5.5,0,0,0,.5-.47.51.51,0,0,0-.47-.53l-2.46-.11Zm4.89.28a.5.5,0,0,0,0,1l.42,0h.32l1.68.17h.06a.49.49,0,0,0,.49-.45.5.5,0,0,0-.44-.55l-2.45-.23Zm4.87.51a.5.5,0,0,0-.07,1l1.33.17h.25l.84.12h.07a.51.51,0,0,0,.5-.42.5.5,0,0,0-.43-.57q-1.2-.18-2.43-.33Zm4.84.71a.5.5,0,0,0-.5.42.5.5,0,0,0,.42.57l.54.09h.28l1,.18h0l.08,0h.17l.28.05h.09a.51.51,0,0,0,.49-.41.5.5,0,0,0-.41-.58l-2.41-.42Zm4.81.86a.49.49,0,0,0-.49.41.5.5,0,0,0,.39.59c.56.1,1.12.22,1.67.33h.4l.08,0h0l.24,0h.1a.51.51,0,0,0,.49-.4.49.49,0,0,0-.39-.59l-2.4-.49Zm4.78,1a.5.5,0,0,0-.49.4.49.49,0,0,0,.38.59l.1,0h.05l2.23.5h.11a.5.5,0,0,0,.11-1l-2.39-.53Zm4.76,1.07a.49.49,0,0,0-.49.38.5.5,0,0,0,.38.6l2.37.55h.11a.49.49,0,0,0,.49-.39.5.5,0,0,0-.38-.59l-.1,0-2.27-.52Zm4.75,1.09a.5.5,0,0,0-.12,1l.66.15h.14l1,.22h.11l.48.11h.11a.5.5,0,0,0,.11-1l-2.37-.53Zm4.75,1a.5.5,0,0,0-.11,1l2.39.48h.1a.51.51,0,0,0,.49-.4.5.5,0,0,0-.4-.59l-2.37-.48Zm4.76.91a.5.5,0,0,0-.49.42.48.48,0,0,0,.4.57c.83.14,1.63.27,2.42.37h.06a.5.5,0,0,0,.07-1c-.75-.1-1.55-.22-2.38-.36Zm4.79.63a.5.5,0,0,0,0,1c.83.08,1.65.12,2.43.13h0a.5.5,0,0,0,0-1c-.74,0-1.54-.05-2.37-.12Zm7.13-.27h-.1a19.27,19.27,0,0,1-2.28.32.49.49,0,0,0-.46.53.5.5,0,0,0,.49.47h.5a17.1,17.1,0,0,0,2-.29.51.51,0,0,0,.38-.6.5.5,0,0,0-.49-.39Zm4.29-1.77a.5.5,0,0,0-.28.08,10.39,10.39,0,0,1-1.95,1.05.5.5,0,0,0-.28.65.51.51,0,0,0,.47.31.39.39,0,0,0,.18,0,10.67,10.67,0,0,0,2-1.05h.14a.5.5,0,0,0-.29-.91Zm3.14-3.4a.51.51,0,0,0-.43.24,11.18,11.18,0,0,1-1.33,1.8.5.5,0,0,0,.37.83.49.49,0,0,0,.37-.16l0,0h0l0,0h0v0h.07v0h0l0,0h0q.33-.39.66-.84h0l0,0h0l0,0h.08v0h0l0,0h0l.39-.6a.51.51,0,0,0-.18-.69.45.45,0,0,0-.25-.07Zm1.78-4.37a.5.5,0,0,0-.48.37,18.3,18.3,0,0,1-.73,2.2.5.5,0,0,0,.28.65.58.58,0,0,0,.19,0,.51.51,0,0,0,.46-.31c.14-.34.27-.69.39-1.06h0v0h0q.17-.54.33-1.11a.5.5,0,0,0-.35-.61l-.14,0Zm.86-4.71a.51.51,0,0,0-.5.44c-.09.82-.2,1.61-.33,2.35a.5.5,0,0,0,.4.58h.09a.49.49,0,0,0,.49-.42c0-.23.08-.46.12-.7h0v0h0v0h0v0h0v0h0v0h0v0h0v0h0v0h0v0h0v0h0c.05-.37.09-.73.14-1.11a.51.51,0,0,0-.45-.55Zm.28-4.82a.5.5,0,0,0-.5.5c0,.82,0,1.63-.08,2.39a.5.5,0,0,0,.47.53h0a.5.5,0,0,0,.5-.47l0-.53h0v0h0v0h0c0-.58,0-1.18.05-1.79a.52.52,0,0,0-.49-.51Zm-.1-4.83h0a.49.49,0,0,0-.47.52c0,.8.07,1.61.09,2.4a.5.5,0,0,0,.5.49h0a.49.49,0,0,0,.49-.51c0-.7,0-1.41-.08-2.11h0v0h0v0h0v0h0v0h0v0h0v0h0V202a.5.5,0,0,0-.5-.47Zm-.44-4.82h-.07a.49.49,0,0,0-.43.55c.1.79.19,1.6.26,2.39a.49.49,0,0,0,.5.45h0a.5.5,0,0,0,.46-.54c0-.41-.08-.83-.13-1.24h0v0h0v0h0v0h0v0h0v0h0v0h0v0h0v0h0c0-.31-.07-.61-.11-.92a.5.5,0,0,0-.49-.44Zm-.78-4.77h-.1a.49.49,0,0,0-.39.59c.15.78.3,1.57.43,2.36a.5.5,0,0,0,.49.42h.08a.49.49,0,0,0,.41-.57c0-.16,0-.32-.08-.48h0v0h0v0h0v0h0v0h0v-.05h0c-.09-.54-.19-1.07-.3-1.61h0v-.05h0v0h0a.5.5,0,0,0-.49-.4Zm-1.12-4.71-.13,0a.51.51,0,0,0-.35.62c.21.76.41,1.55.59,2.32a.51.51,0,0,0,.49.39l.12,0a.5.5,0,0,0,.37-.6l-.3-1.2h0v-.06h0l0-.07h0l0,0h0l0-.05h0v0h0v0h0v0h0v0h0v0h0v0h0v0h0v0h0v0h0v0h0v0h0v0h0v0h0v0h0v0h0v0h0v0h0v0h0v0h0v0h0v0h0v0h0v0h0v0h0v0h0v0a.5.5,0,0,0-.48-.37Zm-1.45-4.61-.17,0a.5.5,0,0,0-.3.64c.27.75.52,1.51.76,2.27a.49.49,0,0,0,.48.35.39.39,0,0,0,.15,0,.49.49,0,0,0,.32-.62c-.14-.47-.29-.93-.45-1.39h0l0-.07h0v0h0v0h0v-.08h0v0h0v0h0l0-.07h0c-.06-.18-.12-.36-.19-.54a.5.5,0,0,0-.47-.33Zm-1.77-4.5a.65.65,0,0,0-.2,0,.5.5,0,0,0-.26.66c.32.73.63,1.48.92,2.22a.49.49,0,0,0,.46.32.65.65,0,0,0,.19,0,.51.51,0,0,0,.28-.65l-.43-1.06h0v0h0l0,0h0v0h0l0,0h0v0h0l0,0h0v0h0v-.06h0v-.06h0v-.06h0v0h0l0,0h0v0h0l0,0h0v0h0l0,0h0v0h0l0-.07h0l0-.06h0l-.11-.24h0l0-.07h0v0a.49.49,0,0,0-.45-.3Zm-2.1-4.36a.53.53,0,0,0-.23.06.5.5,0,0,0-.21.67c.37.71.73,1.43,1.08,2.15a.48.48,0,0,0,.45.28.38.38,0,0,0,.21-.05.49.49,0,0,0,.24-.66c-.11-.24-.23-.47-.34-.7h0l0-.07h0l0-.07h0l0-.07h0l0-.07h0v0h0l0,0h0v0h0l0,0h0v0h0l0,0h0v0h0V175h0v0h0v0h0v-.06h0v0h0v0h0v0h0l0,0h0v0h0v0h0l0,0h0l0,0h0v0h0v0h0l0,0h0l0-.07h0c-.06-.1-.11-.2-.16-.3a.51.51,0,0,0-.45-.27Zm-2.39-4.2a.51.51,0,0,0-.43.76c.42.68.84,1.38,1.23,2.07a.5.5,0,0,0,.43.25.54.54,0,0,0,.25-.06.51.51,0,0,0,.19-.69h0l0-.06h0l0-.07h0c-.16-.29-.33-.57-.5-.85h0l0-.07h0l0-.06h0l0,0h0l0,0h0l0,0h0l0,0h0l0,0h0l0,0h0l0,0h0l0,0h0l0,0h0l0,0h0l0,0h0v0h0v0h0v0h0v0h0v0h0l0-.06h0l0-.06h0l0-.06h0a2.39,2.39,0,0,0-.13-.21.49.49,0,0,0-.42-.24Zm-2.69-4a.46.46,0,0,0-.29.1.5.5,0,0,0-.11.69c.46.65.92,1.31,1.37,2a.49.49,0,0,0,.69.13.5.5,0,0,0,.14-.69c-.45-.68-.92-1.34-1.39-2a.49.49,0,0,0-.41-.21Zm-3-3.82a.49.49,0,0,0-.32.12.5.5,0,0,0-.07.7c.51.61,1,1.24,1.51,1.87a.49.49,0,0,0,.39.19.49.49,0,0,0,.4-.8l-.41-.53h0l-.05-.06h0l-.05-.06h0v0h0l0,0h0v0h0l0,0h0v0h0v0h0v0h0v0h0l0,0h0l0,0h0l0,0h0l0,0h0l0,0h0l0,0h0l-.65-.79a.49.49,0,0,0-.38-.18Zm-3.23-3.6a.45.45,0,0,0-.34.14.49.49,0,0,0,0,.7c.55.58,1.1,1.17,1.63,1.76a.52.52,0,0,0,.38.17.46.46,0,0,0,.33-.13.49.49,0,0,0,0-.7h0v0h0q-.74-.83-1.5-1.62h0l-.06-.06h0l0,0a.51.51,0,0,0-.36-.15Zm-3.47-3.37a.54.54,0,0,0-.37.16.5.5,0,0,0,0,.71c.59.53,1.18,1.09,1.75,1.64a.47.47,0,0,0,.35.14.51.51,0,0,0,.36-.15.51.51,0,0,0,0-.71h-.05l0,0h0l0,0h0l0,0h0l0,0h0l0,0h0l0,0h0l-1.56-1.45a.5.5,0,0,0-.34-.13Zm-3.7-3.11a.48.48,0,0,0-.39.19.5.5,0,0,0,.08.7c.63.49,1.26,1,1.87,1.51a.47.47,0,0,0,.32.12.5.5,0,0,0,.32-.88l-.89-.74h0l0-.05h0v0h0l0,0h0v0h-.06l0,0h0l0,0h0l0,0h0l0,0h0l0,0h0l0,0h0l0,0h0l0,0h0l0,0h0l-.54-.43a.5.5,0,0,0-.31-.1Zm-3.91-2.85a.5.5,0,0,0-.28.91c.66.45,1.32.91,2,1.38a.46.46,0,0,0,.29.1.5.5,0,0,0,.3-.9l-.39-.28h0l0,0h-.05l0,0h0l0,0h0l0,0h0l-.06,0h0l-.44-.31h0l0,0h0l0,0h0l0,0h0l0,0h0l0,0h0l0,0h-.09l0,0h0l0,0h0l-.55-.38a.57.57,0,0,0-.28-.08Zm-4.1-2.56a.5.5,0,0,0-.25.93c.69.4,1.38.81,2.06,1.24a.48.48,0,0,0,.26.07.5.5,0,0,0,.27-.92c-.6-.38-1.21-.75-1.83-1.1h0l0,0h0l-.06,0h0l0,0h0l0,0h0l0,0h-.07a.54.54,0,0,0-.25-.06ZM419.19,144a.5.5,0,0,0-.22.95c.72.35,1.44.72,2.14,1.09a.46.46,0,0,0,.23.06.51.51,0,0,0,.45-.27.51.51,0,0,0-.21-.67l-.86-.45h0l-.07,0h0l-.07,0h0l0,0h0l0,0h-.26l0,0H420l0,0h-.11l-.06,0h0l-.06,0h0l-.3-.14a.54.54,0,0,0-.21-.05Zm-4.42-1.95a.51.51,0,0,0-.47.31.5.5,0,0,0,.28.65c.74.3,1.48.61,2.21.93a.53.53,0,0,0,.2.05.51.51,0,0,0,.46-.3.5.5,0,0,0-.25-.66l-.21-.09h0l-.07,0h-.16l-1-.42h0l-.07,0h0l0,0h-.1l-.06,0h0l-.49-.2a.57.57,0,0,0-.18,0Zm-4.56-1.64a.5.5,0,0,0-.15,1c.76.24,1.53.5,2.28.77a.45.45,0,0,0,.16,0,.52.52,0,0,0,.48-.33.51.51,0,0,0-.31-.64c-.76-.28-1.53-.54-2.3-.78a.41.41,0,0,0-.16,0Zm-4.65-1.3a.5.5,0,0,0-.49.38.5.5,0,0,0,.37.6c.78.19,1.56.39,2.32.61l.14,0a.5.5,0,0,0,.13-1l-1.13-.31h-.08l-.05,0h-.66l-.43-.11Zm-4.74-1a.5.5,0,0,0-.08,1c.78.13,1.58.28,2.36.44h.1a.51.51,0,0,0,.49-.4.5.5,0,0,0-.39-.59q-1.19-.24-2.4-.45ZM396,137.5a.5.5,0,0,0,0,1c.79.08,1.6.17,2.39.27h.06a.5.5,0,0,0,.07-1l-.28,0h-.08l-2.07-.23Zm-4.83-.29a.5.5,0,0,0,0,1c.79,0,1.6,0,2.4.1h0a.5.5,0,0,0,.5-.47.52.52,0,0,0-.47-.53h-1l-1.43,0Z"/><path class="cls-4" d="M371,202.49h-6.53a1.93,1.93,0,1,0,0,3.86h49.94a1.93,1.93,0,1,0,0-3.86H408.8l-3.34-23.25h2a.65.65,0,0,0,.65-.65v-8.21a.65.65,0,0,0-.65-.65h-3.75a.83.83,0,0,0,0-.15c.29-6-6.5-8.7-6.79-8.81a1.29,1.29,0,1,0-.93,2.4c.05,0,5.35,2.15,5.15,6.28a1,1,0,0,0,0,.29h-2.15a1.3,1.3,0,0,0-.16-.54c-5.23-9-15.33-5.91-15.43-5.88a1.29,1.29,0,1,0,.78,2.46c.33-.1,7.62-2.31,11.91,4h-8a.64.64,0,0,0-.64.64v8.21a.65.65,0,0,0,.64.65h2l-3.41,23.25Z"/><path class="cls-4" d="M377.24,166.55c.55,0,1.12,0,1.71-.05a1.29,1.29,0,0,0,1.22-1.36,1.31,1.31,0,0,0-1.36-1.22c-11,.6-13-5-13.13-5.32a1.29,1.29,0,0,0-2.46.76c.09.31,2.35,7.19,14,7.19Z"/><path class="cls-13" d="M369.49,203.24l1.11-11.31a1.26,1.26,0,0,1-1.05-1.27v-5.14a1.24,1.24,0,0,1,1.2-1.27h9.93a1.24,1.24,0,0,1,1.2,1.27v5.14a1.26,1.26,0,0,1-1.05,1.27l1.11,11.31Z"/><path class="cls-4" d="M380.68,184.83a.66.66,0,0,1,.62.69v5.14a.66.66,0,0,1-.62.69h-.5l1.12,11.3H370.13l1.12-11.3h-.5a.66.66,0,0,1-.62-.69v-5.14a.66.66,0,0,1,.62-.69h9.93m0-1.17h-9.93a1.83,1.83,0,0,0-1.79,1.86v5.14a1.89,1.89,0,0,0,1,1.68l-1,10.2-.13,1.28h13.75l-.13-1.28-1-10.2a1.87,1.87,0,0,0,1-1.68v-5.14a1.83,1.83,0,0,0-1.79-1.86Z"/><path class="cls-14" d="M402.25,145.06a6.82,6.82,0,0,1-2.06-13.33,6.87,6.87,0,0,1,2.06-.32,6.83,6.83,0,0,1,2.07,13.33A7,7,0,0,1,402.25,145.06Z"/><path class="cls-15" d="M402.25,131.91h0a6.32,6.32,0,0,1,1.91,12.35,6.2,6.2,0,0,1-1.91.3,6.32,6.32,0,0,1-1.91-12.35,6.2,6.2,0,0,1,1.91-.3m0-1a7.49,7.49,0,0,0-2.22.34,7.33,7.33,0,0,0,2.22,14.31,7.49,7.49,0,0,0,2.22-.34,7.33,7.33,0,0,0-2.22-14.31Z"/><path class="cls-16" d="M402.25,140.69a2.46,2.46,0,0,1-.74-4.8,2.65,2.65,0,0,1,.74-.11,2.44,2.44,0,0,1,2.34,1.71,2.47,2.47,0,0,1-1.6,3.09A2.65,2.65,0,0,1,402.25,140.69Z"/><path class="cls-4" d="M402.25,136.13h0a2.11,2.11,0,0,1,.64,4.11,2.37,2.37,0,0,1-.64.1,2.11,2.11,0,0,1-.64-4.11,2,2,0,0,1,.64-.1m0-.71a2.81,2.81,0,1,0,2.68,2,2.8,2.8,0,0,0-2.68-2Z"/><path class="cls-17" d="M372.45,148.17a9.43,9.43,0,0,1-8.37-13.77,9.48,9.48,0,0,1,8.37-5.1,9.43,9.43,0,0,1,2.85,18.42A9.28,9.28,0,0,1,372.45,148.17Z"/><path class="cls-15" d="M372.45,129.8h0a9,9,0,1,1-2.7.43,8.9,8.9,0,0,1,2.7-.43m0-1a10.21,10.21,0,0,0-3,.47,9.93,9.93,0,0,0,3,19.4,9.78,9.78,0,0,0,3-.47,9.93,9.93,0,0,0-3-19.4Z"/><path class="cls-18" d="M339.1,171.66a13.37,13.37,0,1,1,4-.63A13.33,13.33,0,0,1,339.1,171.66Z"/><path class="cls-15" d="M339.11,145.42h0a12.84,12.84,0,1,1-3.9.6,12.84,12.84,0,0,1,3.9-.6m0-1a13.87,13.87,0,0,0,0,27.74,13.63,13.63,0,0,0,4.2-.66,13.86,13.86,0,0,0-4.19-27.08Z"/><path class="cls-19" d="M322.78,196.38a7.78,7.78,0,0,1-2.35-15.19,7.9,7.9,0,0,1,2.35-.37,7.78,7.78,0,0,1,2.36,15.2A7.9,7.9,0,0,1,322.78,196.38Z"/><path class="cls-15" d="M322.79,181.32h0a7.33,7.33,0,1,1-2.21.35,7.24,7.24,0,0,1,2.21-.35m0-1a8.28,8.28,0,0,0,0,16.56,8.16,8.16,0,0,0,2.51-.39,8.28,8.28,0,0,0-2.51-16.17Z"/><path class="cls-20" d="M322.78,191.86a3.26,3.26,0,0,1-1-6.36,3,3,0,0,1,1-.16,3.26,3.26,0,0,1,1,6.37A3.35,3.35,0,0,1,322.78,191.86Z"/><path class="cls-4" d="M322.78,185.7h0a2.91,2.91,0,1,1-2.77,3.78,2.92,2.92,0,0,1,1.89-3.65,3,3,0,0,1,.88-.13m0-.71a3.44,3.44,0,0,0-1.09.17,3.61,3.61,0,0,0,1.09,7.06,3.87,3.87,0,0,0,1.1-.17,3.61,3.61,0,0,0-1.1-7.06Z"/><text class="cls-6" transform="translate(346.39 266.05)">Minting Center</text><text class="cls-21" transform="translate(330.5 160.86)">USDC</text><text class="cls-22" transform="translate(367.23 140.58)">USDT</text><polygon class="cls-4" points="394.37 113.43 389.42 123.3 384.47 113.43 394.37 113.43"/><line class="cls-8" x1="389.42" y1="55.99" x2="389.42" y2="56.99"/><line class="cls-23" x1="389.42" y1="59.04" x2="389.42" y2="111.39"/><line class="cls-8" x1="389.42" y1="112.41" x2="389.42" y2="113.41"/><polygon class="cls-4" points="812.79 200.99 822.67 205.94 812.79 210.89 812.79 200.99"/><line class="cls-8" x1="709.43" y1="205.94" x2="710.43" y2="205.94"/><line class="cls-24" x1="712.42" y1="205.94" x2="810.79" y2="205.94"/><line class="cls-8" x1="811.78" y1="205.94" x2="812.78" y2="205.94"/><polygon class="cls-4" points="820.7 279.77 831.75 279.73 825.18 288.61 820.7 279.77"/><polygon class="cls-4" points="721.67 463.54 711.8 458.58 721.67 453.63 721.67 463.54"/><line class="cls-8" x1="810.55" y1="458.58" x2="809.55" y2="458.58"/><line class="cls-25" x1="807.53" y1="458.58" x2="723.68" y2="458.58"/><line class="cls-8" x1="722.67" y1="458.58" x2="721.67" y2="458.58"/><polygon class="cls-4" points="874.32 97.65 879.27 87.78 884.22 97.65 874.32 97.65"/><line class="cls-8" x1="879.27" y1="132.67" x2="879.27" y2="131.67"/><line class="cls-26" x1="879.27" y1="129.73" x2="879.27" y2="99.64"/><line class="cls-8" x1="879.27" y1="98.66" x2="879.27" y2="97.66"/><polygon class="cls-4" points="640.68 88.52 645.63 78.64 650.58 88.52 640.68 88.52"/><line class="cls-8" x1="645.63" y1="122.53" x2="645.63" y2="121.53"/><line class="cls-27" x1="645.63" y1="119.64" x2="645.63" y2="90.47"/><line class="cls-8" x1="645.63" y1="89.53" x2="645.63" y2="88.53"/><polygon class="cls-4" points="874.32 296.31 879.27 286.44 884.22 296.31 874.32 296.31"/><line class="cls-8" x1="879.27" y1="418.94" x2="879.27" y2="417.94"/><line class="cls-28" x1="879.27" y1="415.96" x2="879.27" y2="298.31"/><line class="cls-8" x1="879.27" y1="297.32" x2="879.27" y2="296.32"/><polygon class="cls-4" points="573.99 200.99 583.86 205.94 573.99 210.89 573.99 200.99"/><line class="cls-8" x1="522.51" y1="205.94" x2="523.51" y2="205.94"/><line class="cls-29" x1="525.49" y1="205.94" x2="571.98" y2="205.94"/><line class="cls-8" x1="572.97" y1="205.94" x2="573.97" y2="205.94"/><line class="cls-8" x1="458.17" y1="459.2" x2="459.08" y2="458.77"/><line class="cls-30" x1="460.88" y1="457.9" x2="820.59" y2="285.24"/><line class="cls-8" x1="821.49" y1="284.81" x2="822.39" y2="284.38"/><polygon class="cls-4" points="118.63 264.38 112.23 255.38 123.27 255.63 118.63 264.38"/><line class="cls-8" x1="365.82" y1="395.35" x2="364.94" y2="394.87"/><line class="cls-31" x1="363.19" y1="393.91" x2="122.58" y2="261.21"/><line class="cls-8" x1="121.71" y1="260.72" x2="120.83" y2="260.24"/><polygon class="cls-4" points="394.37 390.42 389.42 400.29 384.47 390.42 394.37 390.42"/><line class="cls-8" x1="389.42" y1="286.06" x2="389.42" y2="287.06"/><line class="cls-32" x1="389.42" y1="289.07" x2="389.42" y2="388.42"/><line class="cls-8" x1="389.42" y1="389.42" x2="389.42" y2="390.42"/><rect class="cls-15" x="320.66" y="9.53" width="137.51" height="37.39" rx="18.7"/><text class="cls-6" transform="translate(338.25 31.64)">Price from Oracle</text><rect class="cls-15" x="827.26" y="25.82" width="104.02" height="55.48" rx="18.7"/><text class="cls-6" transform="translate(845.68 48.21)">Stake Node</text><text class="cls-6" transform="translate(860.85 68.78)">(CTO)</text><rect class="cls-15" x="827.26" y="430.27" width="104.02" height="56.63" rx="18.7"/><text class="cls-6" transform="translate(847.02 462.01)">Liquidation</text><rect class="cls-15" x="593.62" y="430.27" width="104.02" height="56.63" rx="18.7"/><text class="cls-6" transform="translate(616.3 462.01)">Liquidator</text><path class="cls-15" d="M347.65,446.25c-34.12,0-72.95-8.73-90.32-20.31-35.42-23.6-143.64-21.5-144.74-21.48l0-.45c.28,0,27.72-.57,59.2,1.8,29.11,2.19,67.73,7.42,86.42,19.88,16.93,11.27,56.23,20.1,89.49,20.1Z"/><path class="cls-15" d="M347.65,450.26c-60.9,0-85.61-8.14-101.95-13.52-2.66-.88-5.16-1.7-7.51-2.38-17.86-5.18-51.11-7.24-75.86-8.06-26.86-.88-49.77-.54-50-.53l0-.46c.9,0,92-1.34,126.44,8.67,2.37.68,4.89,1.51,7.55,2.39,16.24,5.35,40.79,13.44,101.36,13.44Z"/><path class="cls-15" d="M347.63,455c-68.86-1.24-89.47-4.06-106-6.32l-2.53-.35c-54.53-7.36-126-5.93-126.73-5.92l0-.45c.71,0,72.36-1.45,127.07,5.94l2.54.34c16.5,2.26,37,5.06,105.77,6.31Z"/><path class="cls-15" d="M120.65,513.18c-5.05,0-8-.06-8.11-.06l0-.45c1.1,0,109.32,2.11,144.74-21.48,17.37-11.58,56.2-20.31,90.32-20.31v.45c-33.26,0-72.56,8.83-89.49,20.11-18.69,12.45-57.31,17.68-86.42,19.88C150.51,512.92,131.11,513.18,120.65,513.18Z"/><path class="cls-15" d="M123.75,491.88c-7,0-11.26-.06-11.45-.07l0-.45c.23,0,23.14.35,50-.53,24.75-.82,58-2.88,75.86-8.06,2.35-.68,4.85-1.51,7.51-2.38C262,475,286.75,466.86,347.65,466.86v.46c-60.57,0-85.12,8.09-101.36,13.44-2.66.87-5.18,1.7-7.55,2.39C211.61,491,149.47,491.88,123.75,491.88Z"/><path class="cls-15" d="M127.86,475.26c-9.52,0-15.37-.12-15.57-.12l0-.46c.72,0,72.19,1.45,126.73-5.92l2.53-.34c16.56-2.26,37.17-5.08,106-6.33l0,.46c-68.74,1.24-89.27,4.05-105.77,6.3l-2.54.35C200.09,474.5,152.08,475.26,127.86,475.26Z"/><rect class="cls-15" x="112.31" y="458.35" width="235.34" height="0.46"/><polygon class="cls-4" points="113.57 406.27 107.48 404.14 113.57 402.01 113.57 406.27"/><polygon class="cls-4" points="113.4 427.66 107.32 425.53 113.4 423.41 113.4 427.66"/><polygon class="cls-4" points="113.4 444.21 107.32 442.08 113.4 439.95 113.4 444.21"/><polygon class="cls-4" points="113.4 460.75 107.32 458.63 113.4 456.5 113.4 460.75"/><polygon class="cls-4" points="113.4 477.03 107.32 474.9 113.4 472.78 113.4 477.03"/><polygon class="cls-4" points="113.4 493.76 107.32 491.64 113.4 489.51 113.4 493.76"/><polygon class="cls-4" points="113.4 514.96 107.32 512.83 113.4 510.71 113.4 514.96"/><circle class="cls-4" cx="235.3" cy="415.35" r="2.11"/><circle class="cls-33" cx="278.53" cy="458.58" r="2.26"/><circle class="cls-34" cx="193.17" cy="509.21" r="2.97"/><circle class="cls-4" cx="257.33" cy="491.19" r="4.2"/><circle class="cls-35" cx="218.97" cy="487.36" r="2.3"/><circle class="cls-36" cx="154.59" cy="475.26" r="3.16"/><circle class="cls-4" cx="263.67" cy="470.44" r="1.64"/><circle class="cls-4" cx="210.34" cy="444.21" r="2.92"/><circle class="cls-4" cx="173.07" cy="425.53" r="3.04"/><text class="cls-37" transform="matrix(0.88, 0.48, -0.48, 0.88, 228.5, 303.46)">Claim CTO</text><text class="cls-37" transform="matrix(0.88, 0.48, -0.48, 0.88, 147.64, 295.67)">Receive deposit income to reduce the margin</text><path class="cls-38" d="M27.44,524.49A15.6,15.6,0,0,1,11.85,508.9V410.52a17.86,17.86,0,0,1,17.84-17.84H77.13A17.86,17.86,0,0,1,95,410.52V508.9a15.61,15.61,0,0,1-15.59,15.59Z"/><path class="cls-4" d="M77.13,393a17.5,17.5,0,0,1,17.48,17.49V508.9a15.25,15.25,0,0,1-15.23,15.24H27.44A15.26,15.26,0,0,1,12.2,508.9V410.52A17.51,17.51,0,0,1,29.69,393H77.13m0-.71H29.69a18.19,18.19,0,0,0-18.19,18.2V508.9a16,16,0,0,0,15.94,16H79.38a16,16,0,0,0,15.94-16V410.52a18.19,18.19,0,0,0-18.19-18.2Z"/><text class="cls-39" transform="translate(24.52 463.35)">Earning Interest <tspan x="0" y="11.75">by crossing to</tspan><tspan x="0" y="23.5">other parachains</tspan><tspan x="0" y="35.25">or Kusama</tspan></text><path class="cls-4" d="M32.61,412.55a1.5,1.5,0,0,1,1.51,1.51v1.59c3.46.44,5.7,2.48,5.74,5.17H36.11c-.1-1.17-1.2-2.29-3.4-2.29-2,0-3.17.82-3.17,2.1,0,1,.89,1.63,2.59,1.94l2.89.57c2.79.53,5.14,1.77,5.14,5,0,3-2.26,5-6,5.48v1.6a1.51,1.51,0,1,1-3,0v-1.58c-4.49-.45-6-3.05-6-5.3h3.87c.11,1.24,1.38,2.36,3.79,2.36,2.25,0,3.45-.89,3.45-2.18s-1-1.71-2.9-2.1l-2.86-.57c-2.68-.52-4.91-1.9-4.91-4.9s2.36-4.8,5.6-5.25v-1.62a1.5,1.5,0,0,1,1.5-1.51Zm16.61,0a1.5,1.5,0,0,1,1.51,1.51v3h3a1.51,1.51,0,1,1,0,3h-3v3a1.51,1.51,0,0,1-3,0v-3h-3a1.51,1.51,0,0,1,0-3h3v-3a1.51,1.51,0,0,1,1.51-1.51Z"/><rect class="cls-40" x="325.71" y="414.37" width="127.42" height="94.49" rx="23.91"/><path class="cls-4" d="M429.22,414.73a23.57,23.57,0,0,1,23.55,23.55V485a23.58,23.58,0,0,1-23.55,23.56h-79.6A23.59,23.59,0,0,1,326.06,485V438.28a23.58,23.58,0,0,1,23.56-23.55h79.6m0-.71h-79.6a24.26,24.26,0,0,0-24.26,24.26V485a24.26,24.26,0,0,0,24.26,24.26h79.6A24.26,24.26,0,0,0,453.48,485V438.28A24.26,24.26,0,0,0,429.22,414Z"/><rect class="cls-41" x="325.71" y="411.34" width="127.42" height="94.49" rx="23.91"/><path class="cls-4" d="M429.22,411.7a23.57,23.57,0,0,1,23.55,23.55v46.67a23.57,23.57,0,0,1-23.55,23.55h-79.6a23.58,23.58,0,0,1-23.56-23.55V435.25a23.58,23.58,0,0,1,23.56-23.55h79.6m0-.71h-79.6a24.26,24.26,0,0,0-24.26,24.26v46.67a24.26,24.26,0,0,0,24.26,24.26h79.6a24.26,24.26,0,0,0,24.26-24.26V435.25A24.26,24.26,0,0,0,429.22,411Z"/><text class="cls-42" transform="translate(349.92 481.15)">Earn interest from<tspan x="0" y="10.92" xml:space="preserve">   Multi-Chains</tspan></text><path class="cls-43" d="M370.68,441c1.16-2.89,14-15.82,19.12,5.26,3.09,12.78,9.72,17.82,18.18,7.17"/><circle class="cls-44" cx="365.82" cy="440.75" r="6.87"/><circle class="cls-45" cx="409.64" cy="440.75" r="10.26"/><rect class="cls-46" x="607.43" y="138.52" width="76.4" height="33.29" rx="14.4"/><path class="cls-4" d="M669.42,138.87a14.06,14.06,0,0,1,14.05,14v4.48a14.06,14.06,0,0,1-14.05,14H621.83a14.06,14.06,0,0,1-14.05-14v-4.48a14.06,14.06,0,0,1,14.05-14h47.59m0-.71H621.83a14.75,14.75,0,0,0-14.75,14.76v4.48a14.75,14.75,0,0,0,14.75,14.76h47.59a14.76,14.76,0,0,0,14.76-14.76v-4.48a14.76,14.76,0,0,0-14.76-14.76Z"/><rect class="cls-47" x="607.43" y="163.11" width="76.4" height="33.29" rx="14.4"/><path class="cls-4" d="M669.42,163.46a14.06,14.06,0,0,1,14.05,14V182a14.06,14.06,0,0,1-14.05,14H621.83a14.06,14.06,0,0,1-14.05-14v-4.48a14.06,14.06,0,0,1,14.05-14h47.59m0-.7H621.83a14.75,14.75,0,0,0-14.75,14.75V182a14.75,14.75,0,0,0,14.75,14.76h47.59A14.76,14.76,0,0,0,684.18,182v-4.48a14.75,14.75,0,0,0-14.76-14.75Z"/><rect class="cls-48" x="607.43" y="187.7" width="76.4" height="33.29" rx="14.4"/><path class="cls-4" d="M669.42,188.05a14.07,14.07,0,0,1,14.05,14v4.49a14.06,14.06,0,0,1-14.05,14H621.83a14.06,14.06,0,0,1-14.05-14V202.1a14.07,14.07,0,0,1,14.05-14h47.59m0-.7H621.83a14.75,14.75,0,0,0-14.75,14.75v4.49a14.75,14.75,0,0,0,14.75,14.75h47.59a14.76,14.76,0,0,0,14.76-14.75V202.1a14.75,14.75,0,0,0-14.76-14.75Z"/><rect class="cls-4" x="627.7" y="266.9" width="6.57" height="21.02" rx="3.29"/><rect class="cls-4" x="656.99" y="266.9" width="6.57" height="21.02" rx="3.29"/><rect class="cls-49" x="607.43" y="212.29" width="76.4" height="33.29" rx="14.4"/><path class="cls-4" d="M669.42,212.65a14.06,14.06,0,0,1,14.05,14v4.48a14.07,14.07,0,0,1-14.05,14H621.83a14.07,14.07,0,0,1-14.05-14V226.7a14.06,14.06,0,0,1,14.05-14h47.59m0-.71H621.83a14.75,14.75,0,0,0-14.75,14.76v4.48a14.75,14.75,0,0,0,14.75,14.75h47.59a14.75,14.75,0,0,0,14.76-14.75V226.7a14.76,14.76,0,0,0-14.76-14.76Z"/><rect class="cls-50" x="607.43" y="236.89" width="76.4" height="33.29" rx="14.4"/><path class="cls-4" d="M669.42,237.24a14.06,14.06,0,0,1,14.05,14v4.48a14.06,14.06,0,0,1-14.05,14H621.83a14.06,14.06,0,0,1-14.05-14v-4.48a14.06,14.06,0,0,1,14.05-14h47.59m0-.71H621.83a14.75,14.75,0,0,0-14.75,14.76v4.48a14.75,14.75,0,0,0,14.75,14.76h47.59a14.76,14.76,0,0,0,14.76-14.76v-4.48a14.76,14.76,0,0,0-14.76-14.76Z"/><path class="cls-10" d="M660.27,297a12.39,12.39,0,0,1-12.38-12.38v-5h-4.52v5a12.39,12.39,0,0,1-24.77,0V279.4A23.88,23.88,0,0,1,598,255.77v-4.48a23.83,23.83,0,0,1,2.22-10.06,23.82,23.82,0,0,1-2.22-10V226.7a23.83,23.83,0,0,1,2.22-10.06,23.82,23.82,0,0,1-2.22-10V202.1a23.82,23.82,0,0,1,2.22-10A23.83,23.83,0,0,1,598,182v-4.48a23.82,23.82,0,0,1,2.22-10A23.87,23.87,0,0,1,598,157.4v-4.48a23.88,23.88,0,0,1,23.85-23.85h47.59a23.88,23.88,0,0,1,23.86,23.85v4.48a23.72,23.72,0,0,1-2.23,10.06,23.68,23.68,0,0,1,2.23,10V182a23.69,23.69,0,0,1-2.23,10.06,23.68,23.68,0,0,1,2.23,10v4.49a23.68,23.68,0,0,1-2.23,10,23.69,23.69,0,0,1,2.23,10.06v4.48a23.68,23.68,0,0,1-2.23,10,23.69,23.69,0,0,1,2.23,10.06v4.48a23.88,23.88,0,0,1-20.63,23.63v5.23A12.39,12.39,0,0,1,660.27,297Z"/><text class="cls-42" transform="translate(624.32 156.21)">SWAP/LP</text><text class="cls-42" transform="translate(632.72 180.32)">USDC</text><text class="cls-42" transform="translate(633.26 205.39)">USDT</text><text class="cls-42" transform="translate(632.72 228.94)">CUSD</text><text class="cls-42" transform="translate(638.1 256.29)">DAI</text><rect class="cls-51" x="833.66" y="144.5" width="91.22" height="131.98" rx="17.84"/><path class="cls-4" d="M907,144.86a17.51,17.51,0,0,1,17.49,17.48v96.3A17.51,17.51,0,0,1,907,276.13H851.5A17.51,17.51,0,0,1,834,258.64v-96.3a17.5,17.5,0,0,1,17.48-17.48H907m0-.71H851.5a18.18,18.18,0,0,0-18.19,18.19v96.3a18.18,18.18,0,0,0,18.19,18.19H907a18.19,18.19,0,0,0,18.2-18.19v-96.3A18.19,18.19,0,0,0,907,144.15Z"/><rect class="cls-52" x="833.66" y="139.95" width="91.22" height="131.98" rx="17.84"/><path class="cls-4" d="M907,140.31a17.51,17.51,0,0,1,17.49,17.48v96.3A17.51,17.51,0,0,1,907,271.58H851.5A17.51,17.51,0,0,1,834,254.09v-96.3a17.5,17.5,0,0,1,17.48-17.48H907m0-.71H851.5a18.19,18.19,0,0,0-18.19,18.19v96.3a18.18,18.18,0,0,0,18.19,18.19H907a18.19,18.19,0,0,0,18.2-18.19v-96.3A18.2,18.2,0,0,0,907,139.6Z"/><rect class="cls-15" x="846.7" y="197.96" width="43.45" height="14.19" rx="7.1"/><rect class="cls-15" x="846.7" y="217.5" width="65.14" height="14.19" rx="7.1"/><text class="cls-6" transform="translate(858.35 256.29)">Income</text><path class="cls-4" d="M858.48,152a2.13,2.13,0,0,1,2.12,2.13v2.25c4.88.61,8,3.49,8.1,7.29H863.4c-.14-1.66-1.69-3.23-4.8-3.23-2.75,0-4.46,1.15-4.46,3,0,1.4,1.26,2.3,3.66,2.74l4.07.8c3.93.74,7.25,2.49,7.25,7,0,4.26-3.2,7.12-8.52,7.74V184a2.13,2.13,0,1,1-4.25,0v-2.23c-6.33-.64-8.45-4.29-8.52-7.47h5.47c.15,1.75,1.94,3.33,5.34,3.33,3.17,0,4.86-1.26,4.86-3.08,0-1.64-1.38-2.41-4.09-2.95l-4-.81c-3.77-.74-6.92-2.68-6.92-6.9s3.33-6.78,7.89-7.41v-2.29a2.13,2.13,0,0,1,2.13-2.13Zm23.41,0a2.13,2.13,0,0,1,2.13,2.13v4.26h4.26a2.13,2.13,0,0,1,0,4.26H884v4.26a2.13,2.13,0,1,1-4.25,0v-4.26h-4.26a2.13,2.13,0,0,1,0-4.26h4.26v-4.26a2.13,2.13,0,0,1,2.12-2.13Z"/><rect class="cls-53" x="578.13" y="0.35" width="134.99" height="70.42" rx="18.55"/><path class="cls-4" d="M694.58.71A18.19,18.19,0,0,1,712.77,18.9V52.22a18.2,18.2,0,0,1-18.19,18.2h-97.9a18.19,18.19,0,0,1-18.19-18.2V18.9A18.18,18.18,0,0,1,596.68.71h97.9m0-.71h-97.9a18.92,18.92,0,0,0-18.9,18.9V52.22a18.93,18.93,0,0,0,18.9,18.91h97.9a18.93,18.93,0,0,0,18.9-18.91V18.9A18.92,18.92,0,0,0,694.58,0Z"/><path class="cls-15" d="M596.68.71h97.9A18.19,18.19,0,0,1,712.77,18.9V37.4a0,0,0,0,1,0,0H578.49a0,0,0,0,1,0,0V18.9A18.19,18.19,0,0,1,596.68.71Z"/><text class="cls-39" transform="translate(588.28 16.88)">CUSD&lt;1 USD</text><text class="cls-54" transform="translate(588.71 27.16)">Buy CUSD to repay loan</text><text class="cls-39" transform="translate(588.61 51.65)">CUSD&gt;1 USD</text><text class="cls-54" transform="translate(589.04 61.93)">Sell CUSD to earn profit</text><path class="cls-55" d="M606.46,39.94a3,3,0,1,1,3-3A3,3,0,0,1,606.46,39.94Z"/><path class="cls-15" d="M606.46,34.42a2.51,2.51,0,1,1-2.5,2.51,2.51,2.51,0,0,1,2.5-2.51m0-1A3.51,3.51,0,1,0,610,36.93a3.51,3.51,0,0,0-3.51-3.51Z"/><path class="cls-56" d="M595.67,39.94a3,3,0,1,1,3-3A3,3,0,0,1,595.67,39.94Z"/><path class="cls-15" d="M595.67,34.42a2.51,2.51,0,1,1-2.51,2.51,2.52,2.52,0,0,1,2.51-2.51m0-1a3.51,3.51,0,1,0,3.51,3.51,3.51,3.51,0,0,0-3.51-3.51Z"/><path class="cls-57" d="M584.87,39.94a3,3,0,1,1,3-3A3,3,0,0,1,584.87,39.94Z"/><path class="cls-15" d="M584.87,34.42a2.51,2.51,0,1,1-2.51,2.51,2.52,2.52,0,0,1,2.51-2.51m0-1a3.51,3.51,0,1,0,3.51,3.51,3.51,3.51,0,0,0-3.51-3.51Z"/><path class="cls-58" d="M639.61,39.94a3,3,0,1,1,3-3A3,3,0,0,1,639.61,39.94Z"/><path class="cls-15" d="M639.61,34.42a2.51,2.51,0,1,1-2.51,2.51,2.51,2.51,0,0,1,2.51-2.51m0-1a3.51,3.51,0,1,0,3.51,3.51,3.51,3.51,0,0,0-3.51-3.51Z"/><path class="cls-59" d="M628.82,39.94a3,3,0,1,1,3-3A3,3,0,0,1,628.82,39.94Z"/><path class="cls-15" d="M628.82,34.42a2.51,2.51,0,1,1-2.51,2.51,2.51,2.51,0,0,1,2.51-2.51m0-1a3.51,3.51,0,1,0,3.5,3.51,3.51,3.51,0,0,0-3.5-3.51Z"/><path class="cls-60" d="M618,39.94a3,3,0,1,1,3-3A3,3,0,0,1,618,39.94Z"/><path class="cls-15" d="M618,34.42a2.51,2.51,0,1,1-2.51,2.51A2.52,2.52,0,0,1,618,34.42m0-1a3.51,3.51,0,1,0,3.51,3.51A3.51,3.51,0,0,0,618,33.42Z"/><path class="cls-61" d="M672.76,39.94a3,3,0,1,1,3-3A3,3,0,0,1,672.76,39.94Z"/><path class="cls-15" d="M672.76,34.42a2.51,2.51,0,1,1-2.51,2.51,2.51,2.51,0,0,1,2.51-2.51m0-1a3.51,3.51,0,1,0,3.51,3.51,3.51,3.51,0,0,0-3.51-3.51Z"/><path class="cls-62" d="M662,39.94a3,3,0,1,1,3-3A3,3,0,0,1,662,39.94Z"/><path class="cls-15" d="M662,34.42a2.51,2.51,0,1,1-2.51,2.51A2.51,2.51,0,0,1,662,34.42m0-1a3.51,3.51,0,1,0,3.5,3.51,3.51,3.51,0,0,0-3.5-3.51Z"/><path class="cls-63" d="M651.17,39.94a3,3,0,1,1,3-3A3,3,0,0,1,651.17,39.94Z"/><path class="cls-15" d="M651.17,34.42a2.51,2.51,0,1,1-2.51,2.51,2.52,2.52,0,0,1,2.51-2.51m0-1a3.51,3.51,0,1,0,3.51,3.51,3.51,3.51,0,0,0-3.51-3.51Z"/><path class="cls-64" d="M705.91,39.94a3,3,0,1,1,3-3A3,3,0,0,1,705.91,39.94Z"/><path class="cls-15" d="M705.91,34.42a2.51,2.51,0,1,1-2.51,2.51,2.52,2.52,0,0,1,2.51-2.51m0-1a3.51,3.51,0,1,0,3.51,3.51,3.51,3.51,0,0,0-3.51-3.51Z"/><path class="cls-65" d="M695.12,39.94a3,3,0,1,1,3-3A3,3,0,0,1,695.12,39.94Z"/><path class="cls-15" d="M695.12,34.42a2.51,2.51,0,1,1-2.51,2.51,2.51,2.51,0,0,1,2.51-2.51m0-1a3.51,3.51,0,1,0,3.5,3.51,3.51,3.51,0,0,0-3.5-3.51Z"/><path class="cls-66" d="M684.32,39.94a3,3,0,1,1,3-3A3,3,0,0,1,684.32,39.94Z"/><path class="cls-15" d="M684.32,34.42a2.51,2.51,0,1,1-2.51,2.51,2.52,2.52,0,0,1,2.51-2.51m0-1a3.51,3.51,0,1,0,3.51,3.51,3.51,3.51,0,0,0-3.51-3.51Z"/><path class="cls-4" d="M689.36,52.7a1.94,1.94,0,0,1-1.46,1,2.53,2.53,0,0,1-1.23-.15l-.45.82a.25.25,0,0,1-.34.1l-.56-.31a.25.25,0,0,1-.1-.34l.44-.81a2.55,2.55,0,0,1-.93-1.14,2.27,2.27,0,0,1,0-1.41.31.31,0,0,1,.18-.19.32.32,0,0,1,.27,0l.53.28a.35.35,0,0,1,.14.4,1,1,0,0,0-.07.58c.09.36.23.59.81.94a1.52,1.52,0,0,0,.78.23,1,1,0,0,0,.82-.45.82.82,0,0,0,.15-.65,1.47,1.47,0,0,0-.53-.7l0,0-.82-.64a2.74,2.74,0,0,1-.74-.94,1.48,1.48,0,0,1,.08-1.41,1.82,1.82,0,0,1,1.24-1,2.11,2.11,0,0,1,1.36.13l.44-.81a.26.26,0,0,1,.34-.1l.56.31a.24.24,0,0,1,.1.34l-.45.83a2.27,2.27,0,0,1,.68.85,2,2,0,0,1,.07,1.33.26.26,0,0,1-.16.18.28.28,0,0,1-.25,0l-.54-.29a.29.29,0,0,1-.14-.33,1,1,0,0,0,0-.49c0-.31-.39-.61-.76-.81a1.31,1.31,0,0,0-.87-.16.85.85,0,0,0-.52.44.73.73,0,0,0,0,.65,1.87,1.87,0,0,0,.68.73l.74.57a3,3,0,0,1,.67.93,1.59,1.59,0,0,1-.14,1.47Zm3.4-7.12a6.89,6.89,0,0,1-6.28,11.53.31.31,0,0,1-.22-.18.33.33,0,0,1,0-.29l.26-.46a.39.39,0,0,1,.4-.2,5.7,5.7,0,0,0,5.17-9.37.44.44,0,0,1-.05-.5l.25-.47a.3.3,0,0,1,.47-.06Zm-9.24,8.54a.39.39,0,0,1,.05.44l-.26.47a.37.37,0,0,1-.24.16.31.31,0,0,1-.27-.1,6.89,6.89,0,0,1,6.34-11.49.31.31,0,0,1,.21.16.32.32,0,0,1,0,.27l-.26.46a.42.42,0,0,1-.44.22,5.7,5.7,0,0,0-5.12,9.41Z"/><path class="cls-4" d="M688.59,31.31a1.08,1.08,0,0,1,.28,1,1.41,1.41,0,0,1-.31.64l.36.39a.15.15,0,0,1,0,.2l-.28.25a.14.14,0,0,1-.2,0l-.35-.39a1.38,1.38,0,0,1-.78.28,1.24,1.24,0,0,1-.76-.27.21.21,0,0,1-.07-.13.17.17,0,0,1,.06-.14l.26-.23a.17.17,0,0,1,.23,0,.7.7,0,0,0,.3.14.78.78,0,0,0,.66-.26.87.87,0,0,0,.27-.37.59.59,0,0,0-.09-.53.48.48,0,0,0-.32-.2.84.84,0,0,0-.48.15h0l-.5.32a1.63,1.63,0,0,1-.64.22.82.82,0,0,1-.74-.31,1,1,0,0,1-.3-.85,1.24,1.24,0,0,1,.32-.7l-.34-.39a.13.13,0,0,1,0-.2l.27-.24a.13.13,0,0,1,.2,0l.36.39a1.3,1.3,0,0,1,.58-.2,1.1,1.1,0,0,1,.73.21.14.14,0,0,1,.06.12.13.13,0,0,1-.05.13l-.26.23a.15.15,0,0,1-.2,0,.52.52,0,0,0-.26-.1.75.75,0,0,0-.58.25.77.77,0,0,0-.25.44.5.5,0,0,0,.14.36.45.45,0,0,0,.34.15,1.21,1.21,0,0,0,.52-.23l.45-.29a1.51,1.51,0,0,1,.62-.19.89.89,0,0,1,.76.35Zm-3.18-3.15a3.91,3.91,0,0,1,5,5.52.19.19,0,0,1-.14.09.2.2,0,0,1-.15-.06l-.21-.23a.22.22,0,0,1,0-.25,3.22,3.22,0,0,0-.44-3.68,3.26,3.26,0,0,0-3.62-.85.23.23,0,0,1-.27-.06l-.2-.22a.16.16,0,0,1,0-.26Zm2.85,6.55a.2.2,0,0,1,.24.06l.21.22a.22.22,0,0,1,0,.16.17.17,0,0,1-.1.12,3.91,3.91,0,0,1-5-5.54.18.18,0,0,1,.12-.09.17.17,0,0,1,.14.06l.21.22a.24.24,0,0,1,0,.28,3.24,3.24,0,0,0,4.09,4.51Z"/><path class="cls-4" d="M699,19.72a1.32,1.32,0,0,1-.31,1.18,1.51,1.51,0,0,1-.7.46l.13.63a.16.16,0,0,1-.13.2l-.43.09a.16.16,0,0,1-.2-.13l-.13-.61a1.81,1.81,0,0,1-1-.18,1.55,1.55,0,0,1-.62-.74.23.23,0,0,1,0-.18.21.21,0,0,1,.15-.11l.4-.09a.22.22,0,0,1,.25.15.69.69,0,0,0,.22.33,1,1,0,0,0,.84.13,1.1,1.1,0,0,0,.51-.23.68.68,0,0,0,.22-.6.54.54,0,0,0-.21-.4.91.91,0,0,0-.59-.13h0l-.71,0a2,2,0,0,1-.8-.16,1,1,0,0,1-.58-.77,1.22,1.22,0,0,1,.2-1.06,1.51,1.51,0,0,1,.76-.54l-.13-.61a.17.17,0,0,1,.14-.2l.43-.09a.17.17,0,0,1,.2.13l.13.63a1.56,1.56,0,0,1,.73.14,1.33,1.33,0,0,1,.63.65.2.2,0,0,1,0,.17.17.17,0,0,1-.13.1l-.41.09a.2.2,0,0,1-.22-.11.75.75,0,0,0-.21-.26,1,1,0,0,0-.75-.09.91.91,0,0,0-.52.31.58.58,0,0,0-.08.46.51.51,0,0,0,.27.36,1.3,1.3,0,0,0,.68.07l.63,0a1.93,1.93,0,0,1,.76.18,1.12,1.12,0,0,1,.59.83Zm-1.41-5.2a4.7,4.7,0,0,1,1.87,8.76.25.25,0,0,1-.19,0,.23.23,0,0,1-.13-.16l-.07-.35a.26.26,0,0,1,.12-.28,3.89,3.89,0,0,0-1.49-7.16.3.3,0,0,1-.25-.23l-.07-.35a.19.19,0,0,1,.21-.24Zm-1,8.53a.26.26,0,0,1,.22.2l.07.36a.19.19,0,0,1-.05.19.2.2,0,0,1-.18.07,4.7,4.7,0,0,1-1.82-8.77.19.19,0,0,1,.18,0,.22.22,0,0,1,.11.14l.07.36a.28.28,0,0,1-.13.31,3.89,3.89,0,0,0,1.53,7.15Z"/></g></g></svg>