<svg  xmlns="http://www.w3.org/2000/svg" xmlns:xlink="http://www.w3.org/1999/xlink" width="627px" height="675px"><path fill-rule="evenodd"  opacity="0.4" fill="rgb(230, 0, 122)" d="M403.356,197.470 L403.356,197.470 C398.944,197.470 395.295,194.84 394.899,189.686 C393.223,171.81 388.835,152.934 381.790,135.544 C372.253,112.4 358.234,90.876 340.122,72.747 C322.10,54.618 300.902,40.586 277.384,31.40 C254.660,21.816 230.643,17.139 206.0,17.139 C181.357,17.139 157.340,21.816 134.615,31.40 C111.97,40.586 89.989,54.618 71.878,72.747 C53.766,90.876 39.747,112.4 30.210,135.544 C23.164,152.934 18.777,171.81 17.101,189.686 C16.705,194.84 13.56,197.470 8.643,197.470 C3.635,197.470 0.262,193.155 0.191,188.163 C4.412,141.663 24.303,96.321 59.866,60.725 C140.648,-20.133 271.352,-20.133 352.134,60.724 C387.697,96.321 407.587,141.663 411.809,188.162 C412.262,193.155 408.364,197.470 403.356,197.470 ZM176.683,286.180 C175.114,287.87 173.189,287.196 171.531,286.473 C154.448,279.29 140.482,266.538 131.144,250.350 C107.261,208.944 121.485,155.810 162.851,131.904 C179.25,122.558 197.359,118.730 215.872,120.833 C217.392,121.6 218.754,121.761 219.707,122.958 C220.659,124.157 221.89,125.653 220.917,127.175 C220.744,128.696 219.990,130.59 218.793,131.13 C217.598,131.969 216.100,132.396 214.581,132.224 C198.522,130.399 182.615,133.721 168.578,141.833 C132.681,162.578 120.338,208.687 141.63,244.618 C149.167,258.668 161.284,269.506 176.103,275.962 C177.506,276.574 178.586,277.695 179.146,279.120 C179.706,280.544 179.678,282.102 179.67,283.506 C178.574,284.639 177.750,285.564 176.683,286.180 ZM158.556,247.315 C152.154,244.659 147.334,239.703 144.619,232.984 C141.513,225.299 141.999,217.130 145.987,209.980 C149.428,203.808 155.189,198.770 162.212,195.795 C176.290,189.827 192.515,192.5 209.135,202.94 C222.673,210.312 234.955,212.176 245.652,207.641 C254.333,203.962 261.52,195.101 257.94,185.306 C255.533,181.446 252.941,178.741 249.390,177.268 C244.927,175.417 239.110,175.649 233.829,177.888 C227.381,180.624 222.70,185.472 218.47,192.303 C216.443,195.27 212.926,195.935 210.205,194.329 C208.888,193.553 207.951,192.308 207.569,190.826 C207.186,189.343 207.403,187.801 208.180,186.481 C213.478,177.484 220.606,171.37 229.362,167.332 C237.531,163.869 246.430,163.630 253.775,166.677 C260.177,169.333 264.996,174.289 267.711,181.8 C270.817,188.694 270.332,196.863 266.343,204.11 C263.582,208.961 259.345,213.182 254.92,216.217 C252.817,216.954 251.479,217.621 250.117,218.197 C236.40,224.165 219.814,221.986 203.195,211.897 C189.656,203.680 177.373,201.818 166.679,206.351 C157.992,210.38 151.276,218.888 155.236,228.685 C156.797,232.545 159.388,235.250 162.940,236.724 C167.402,238.575 173.219,238.343 178.502,236.104 C184.953,233.369 190.261,228.519 194.283,221.690 C195.61,220.371 196.305,219.435 197.785,219.50 C199.265,218.668 200.807,218.885 202.125,219.663 C203.443,220.440 204.379,221.685 204.761,223.167 C205.144,224.650 204.927,226.192 204.150,227.511 C198.869,236.477 191.731,242.942 182.968,246.661 C174.799,250.124 165.901,250.362 158.556,247.315 ZM236.228,138.30 C233.333,136.768 232.2,133.383 233.263,130.485 C233.872,129.83 234.987,128.4 236.417,127.439 C237.840,126.879 239.397,126.907 240.799,127.518 C257.882,134.961 271.847,147.452 281.185,163.642 C305.68,205.47 290.844,258.182 249.478,282.87 C233.304,291.434 214.969,295.263 196.458,293.159 C194.938,292.986 193.576,292.232 192.623,291.34 C191.670,289.836 191.241,288.339 191.413,286.818 C191.585,285.295 192.339,283.932 193.537,282.979 C194.731,282.22 196.229,281.595 197.749,281.768 C213.809,283.593 229.716,280.271 243.752,272.160 C279.650,251.415 291.993,205.305 271.267,169.373 C263.164,155.325 251.48,144.487 236.228,138.30 ZM101.697,293.885 C103.719,296.311 103.585,299.871 101.353,302.105 C98.819,304.641 94.667,304.432 92.373,301.677 C71.9,276.17 58.156,243.9 58.155,206.996 C58.155,125.191 124.272,59.12 206.0,59.12 C241.980,59.12 274.957,71.877 300.592,93.262 C303.344,95.557 303.553,99.714 301.20,102.250 L301.20,102.250 C298.788,104.484 295.231,104.619 292.808,102.594 C282.557,94.32 271.167,87.73 258.814,81.844 C242.93,74.765 224.324,71.175 206.0,71.175 C187.676,71.175 169.907,74.765 153.186,81.844 C137.29,88.684 122.517,98.479 110.51,110.956 C97.585,123.434 87.800,137.960 80.966,154.132 C73.893,170.869 70.307,188.655 70.307,206.996 C70.307,225.337 73.893,243.123 80.966,259.860 C86.190,272.224 93.142,283.625 101.697,293.885 ZM310.304,120.107 C308.281,117.681 308.416,114.121 310.648,111.887 C313.181,109.351 317.334,109.560 319.628,112.315 C340.992,137.975 353.845,170.982 353.845,206.996 C353.845,288.800 287.728,354.980 206.0,354.980 C170.21,354.980 137.44,342.115 111.408,320.730 C108.656,318.434 108.447,314.278 110.980,311.742 L110.980,311.742 C113.212,309.508 116.769,309.373 119.193,311.397 C129.443,319.960 140.834,326.918 153.186,332.148 C169.907,339.227 187.676,342.816 206.0,342.816 C224.324,342.816 242.93,339.227 258.814,332.148 C274.971,325.308 289.484,315.513 301.949,303.36 C314.415,290.558 324.201,276.32 331.35,259.860 C338.107,243.123 341.693,225.337 341.693,206.996 C341.693,188.655 338.107,170.869 331.35,154.132 C325.810,141.768 318.858,130.367 310.304,120.107 ZM8.643,216.521 L8.643,216.521 C13.56,216.521 16.705,219.907 17.101,224.305 C18.777,242.910 23.164,261.57 30.210,278.447 C39.747,301.987 53.766,323.115 71.877,341.244 C89.989,359.373 111.97,373.405 134.615,382.951 C157.340,392.175 181.357,396.851 206.0,396.851 C230.642,396.851 254.660,392.175 277.384,382.951 C300.902,373.405 322.10,359.373 340.122,341.244 C358.234,323.115 372.253,301.987 381.790,278.447 C388.835,261.57 393.223,242.910 394.899,224.305 C395.295,219.907 398.944,216.521 403.356,216.521 C408.364,216.521 412.262,220.836 411.809,225.828 C407.587,272.328 387.697,317.670 352.134,353.266 C271.352,434.124 140.648,434.125 59.866,353.267 C24.303,317.670 4.412,272.328 0.191,225.829 C0.262,220.836 3.635,216.521 8.643,216.521 Z"/><path fill-rule="evenodd"  opacity="0.4" fill="rgb(230, 0, 122)" d="M620.536,539.79 L620.536,539.79 C617.625,538.915 615.347,536.548 615.252,533.635 C614.851,521.313 612.644,509.192 608.655,497.470 C603.256,481.603 594.809,467.159 583.550,454.538 C572.290,441.918 558.899,431.884 543.748,424.718 C529.109,417.793 513.444,413.815 497.190,412.897 C480.936,411.978 464.918,414.165 449.580,419.395 C433.706,424.809 419.252,433.268 406.620,444.538 C393.987,455.809 383.940,469.208 376.759,484.364 C371.453,495.560 367.872,507.354 366.62,519.551 C365.634,522.434 363.99,524.529 360.189,524.365 C356.885,524.178 354.478,521.189 354.966,517.917 C359.511,487.434 374.348,458.299 399.152,436.169 C455.496,385.900 541.707,390.773 591.928,447.64 C614.37,471.845 625.439,502.464 626.463,533.261 C626.573,536.568 623.839,539.266 620.536,539.79 ZM559.452,509.761 C560.792,509.319 562.220,509.424 563.488,510.62 C564.748,510.698 565.686,511.787 566.127,513.129 C571.497,529.468 571.475,546.763 566.63,563.143 C552.220,605.36 506.883,627.889 464.998,614.87 C448.621,608.691 434.718,598.415 424.792,584.372 C423.977,583.219 423.660,581.818 423.899,580.426 C424.139,579.33 424.905,577.817 426.59,577.1 C427.214,576.184 428.616,575.866 430.8,576.105 C431.401,576.340 432.616,577.109 433.431,578.262 C442.43,590.445 454.106,599.360 468.317,604.43 C504.665,616.20 544.8,596.188 556.20,559.834 C560.717,545.620 560.737,530.614 556.77,516.439 C555.168,513.670 556.681,510.673 559.452,509.761 ZM453.55,536.946 C458.903,539.708 465.506,540.384 472.681,538.957 C474.67,538.683 475.476,538.965 476.651,539.747 C477.824,540.532 478.622,541.728 478.896,543.113 C479.170,544.499 478.888,545.908 478.102,547.82 C477.316,548.257 476.120,549.55 474.734,549.331 C465.315,551.203 456.475,550.259 448.528,546.509 C441.123,543.10 435.492,537.28 433.77,530.97 C430.972,524.55 431.424,517.690 434.384,511.691 C437.768,504.829 443.693,500.144 451.68,498.497 C457.434,497.75 464.444,497.947 470.809,500.956 C483.570,506.985 492.40,519.499 495.304,537.145 C497.963,551.520 504.227,561.125 513.923,565.706 C521.791,569.424 532.23,568.607 536.337,559.862 C538.37,556.415 538.308,552.967 537.140,549.616 C535.672,545.405 531.938,541.541 527.150,539.279 C521.304,536.520 514.701,535.841 507.524,537.267 C504.662,537.836 501.876,535.971 501.310,533.112 C501.35,531.727 501.317,530.317 502.103,529.143 C502.889,527.967 504.84,527.169 505.471,526.894 C514.923,525.14 523.744,525.962 531.676,529.716 C539.82,533.215 544.714,539.197 547.128,546.128 C549.233,552.170 548.781,558.535 545.822,564.534 C542.436,571.396 536.512,576.81 529.138,577.727 C524.31,578.866 518.521,578.542 513.202,576.789 C511.911,576.364 510.630,575.852 509.396,575.268 C496.635,569.239 488.165,556.725 484.902,539.79 C482.242,524.704 475.977,515.100 466.283,510.519 C458.406,506.802 448.183,507.614 443.869,516.362 C442.169,519.809 441.899,523.256 443.66,526.608 C444.532,530.818 448.267,534.683 453.55,536.946 ZM423.824,563.822 C423.186,565.82 422.96,566.21 420.754,566.463 C419.671,566.819 418.528,566.820 417.447,566.464 C415.859,565.941 414.600,564.681 414.80,563.95 C408.709,546.755 408.730,529.460 414.142,513.81 C427.985,471.188 473.323,448.334 515.207,462.136 C531.583,467.533 545.486,477.809 555.413,491.852 C556.228,493.5 556.545,494.407 556.306,495.799 C556.66,497.191 555.299,498.407 554.145,499.223 C552.991,500.39 551.589,500.357 550.197,500.119 C548.804,499.884 547.589,499.114 546.775,497.963 C538.164,485.780 526.101,476.865 511.888,472.182 C475.541,460.204 436.198,480.36 424.186,516.390 C419.488,530.606 419.469,545.611 424.128,559.786 C424.569,561.127 424.461,562.560 423.824,563.822 ZM359.467,536.918 L359.468,536.918 C362.378,537.82 364.656,539.450 364.751,542.363 C365.152,554.684 367.359,566.805 371.348,578.527 C376.747,594.394 385.194,608.838 396.453,621.459 C407.713,634.80 421.104,644.113 436.255,651.280 C450.894,658.205 466.559,662.182 482.813,663.100 C499.67,664.19 515.85,661.833 530.423,656.602 C546.297,651.189 560.751,642.729 573.383,631.459 C586.16,620.188 596.63,606.789 603.244,591.633 C608.550,580.437 612.131,568.643 613.941,556.446 C614.369,553.563 616.904,551.468 619.814,551.632 C623.117,551.819 625.525,554.808 625.37,558.81 C620.492,588.563 605.655,617.699 580.851,639.829 C524.507,690.97 438.297,685.224 388.76,628.933 C365.967,604.152 354.564,573.533 353.540,542.736 C353.430,539.429 356.164,536.731 359.467,536.918 Z"/></svg>