<svg  xmlns="http://www.w3.org/2000/svg" xmlns:xlink="http://www.w3.org/1999/xlink" width="32px" height="29px"><path fill-rule="evenodd"  fill="rgb(230, 0, 122)" d="M15.782,20.470 C19.426,20.470 22.380,22.111 22.380,24.136 C22.380,26.161 19.426,27.801 15.782,27.801 C12.137,27.801 9.184,26.161 9.184,24.136 C9.184,22.111 12.137,20.470 15.782,20.470 Z"/><path fill-rule="evenodd"  opacity="0.102" fill="rgb(230, 0, 122)" d="M6.419,10.313 L25.480,10.313 L22.548,24.242 L9.351,24.242 L6.419,10.313 Z"/><path fill-rule="evenodd"  stroke="rgb(230, 0, 122)" stroke-width="2px" stroke-dasharray="1, 4" stroke-linecap="round" stroke-linejoin="miter" fill="none" d="M15.813,9.421 C23.101,9.421 29.9,11.390 29.9,13.820 C29.9,16.249 23.101,18.218 15.813,18.218 C8.525,18.218 2.617,16.249 2.617,13.820 C2.617,11.390 8.525,9.421 15.813,9.421 Z"/><path fill-rule="evenodd"  fill="rgb(250, 204, 228)" d="M15.946,5.176 C21.210,5.176 25.477,7.474 25.477,10.308 C25.477,13.142 21.210,15.440 15.946,15.440 C10.683,15.440 6.416,13.142 6.416,10.308 C6.416,7.474 10.683,5.176 15.946,5.176 Z"/><path fill-rule="evenodd"  fill="rgb(230, 0, 122)" d="M11.551,4.448 C12.360,4.448 13.17,5.104 13.17,5.914 C13.17,6.724 12.360,7.380 11.551,7.380 C10.741,7.380 10.85,6.724 10.85,5.914 C10.85,5.104 10.741,4.448 11.551,4.448 Z"/><path fill-rule="evenodd"  fill="rgb(250, 204, 228)" d="M19.615,0.49 C20.425,0.49 21.81,0.706 21.81,1.515 C21.81,2.325 20.425,2.982 19.615,2.982 C18.805,2.982 18.149,2.325 18.149,1.515 C18.149,0.706 18.805,0.49 19.615,0.49 Z"/><path fill-rule="evenodd"  opacity="0.6" fill="rgb(230, 0, 122)" d="M18.416,7.883 C19.611,7.883 20.579,8.851 20.579,10.46 C20.579,11.241 19.611,12.209 18.416,12.209 C17.221,12.209 16.252,11.241 16.252,10.46 C16.252,8.851 17.221,7.883 18.416,7.883 Z"/></svg>