<svg xmlns="http://www.w3.org/2000/svg" xmlns:xlink="http://www.w3.org/1999/xlink" viewBox="0 0 68 68"><defs><style>.cls-1{fill:#fff;}.cls-2{fill:url(#未命名的渐变_5);}.cls-3{fill:url(#未命名的渐变_3);}</style><linearGradient id="未命名的渐变_5" x1="14" y1="41.61" x2="54" y2="41.61" gradientUnits="userSpaceOnUse"><stop offset="0" stop-color="#f9d95e"/><stop offset="1" stop-color="#ff00a9"/></linearGradient><linearGradient id="未命名的渐变_3" x1="14" y1="27.21" x2="54" y2="27.21" gradientUnits="userSpaceOnUse"><stop offset="0" stop-color="#00defa"/><stop offset="1" stop-color="#590ff7"/></linearGradient></defs><g id="图层_2" data-name="图层 2"><g id="图层_1-2" data-name="图层 1"><circle class="cls-1" cx="34" cy="34" r="34"/><path class="cls-2" d="M53,40.5l-9.58-4.43-2.05,1.08A7.38,7.38,0,0,1,38,38a7.28,7.28,0,0,1-3.08-.68L24.57,32.52l-9.69,5.1a1.66,1.66,0,0,0,.08,3l20.77,9.6a5.48,5.48,0,0,0,4.85-.13l12.54-6.59A1.66,1.66,0,0,0,53,40.5Z"/><path class="cls-3" d="M35.29,36.51,15,27.11a1.66,1.66,0,0,1-.08-3L26,18.32a8.87,8.87,0,0,1,7.83-.2L53,27a1.65,1.65,0,0,1,.08,3L41,36.37A6.47,6.47,0,0,1,35.29,36.51Z"/></g></g></svg>