<svg xmlns="http://www.w3.org/2000/svg" viewBox="0 0 68 68"><defs><style>.cls-1{fill:#fff;}.cls-2{fill:#e0005b;}</style></defs><g id="图层_2" data-name="图层 2"><g id="图层_1-2" data-name="图层 1"><circle class="cls-1" cx="34" cy="34" r="34"/><path class="cls-2" d="M31.84,51.06a2.73,2.73,0,1,0,5.46,0h0a2.73,2.73,0,1,0-5.46,0Z"/><path d="M22.7,35.51a2.22,2.22,0,0,1-2.32-.41c-.82-.69-1.5-5.05-1.36-7a13,13,0,0,1,1.23-5.05,18.42,18.42,0,0,1,4.22-5.46,14.5,14.5,0,0,1,10-3.41,15.18,15.18,0,0,1,10.92,5,14.42,14.42,0,0,1,2.73,4.64,17.72,17.72,0,0,1,.82,7.37,14.69,14.69,0,0,1-3,7.23,15.1,15.1,0,0,1-10.78,5.73,9.48,9.48,0,0,0-4,.82c-3.62,2.08-3,6.23-3.55,7.09A2.32,2.32,0,0,1,25,53.24a2.53,2.53,0,0,1-1.23-1.09,3.31,3.31,0,0,1-.13-1.36q4.5-20.74,4.64-22a1.94,1.94,0,0,1,2.45-1.64,1.91,1.91,0,0,1,1.77,2.19,6.68,6.68,0,0,1-.27,1.5c-.22,1-.52,2.23-.82,3.54s-.67,3.16-1.22,6a11.67,11.67,0,0,0,1.5-.14c.95-.14,11.18.55,13-9.55a10.48,10.48,0,0,0-6.82-11.46c-4-1.56-9.15-.27-11.33,2.32s-3.14,4.91-3.27,6.68a14.62,14.62,0,0,0,.65,4.58,2.29,2.29,0,0,1-1.2,2.65Z"/></g></g></svg>