<svg  xmlns="http://www.w3.org/2000/svg" xmlns:xlink="http://www.w3.org/1999/xlink" width="60px" height="60px"><path fill-rule="evenodd"  fill="rgb(249, 247, 248)" d="M15.999,0.0 L44.0,0.0 C52.836,0.0 59.999,7.163 59.999,15.999 L59.999,44.0 C59.999,52.836 52.836,59.999 44.0,59.999 L15.999,59.999 C7.163,59.999 0.0,52.836 0.0,44.0 L0.0,15.999 C0.0,7.163 7.163,0.0 15.999,0.0 Z"/><path fill-rule="evenodd"  fill="rgb(230, 0, 122)" d="M17.499,37.999 L42.500,37.999 C43.328,37.999 44.0,38.671 44.0,39.500 C44.0,40.328 43.328,41.0 42.500,41.0 L17.499,41.0 C16.671,41.0 15.999,40.328 15.999,39.500 C15.999,38.671 16.671,37.999 17.499,37.999 Z"/><path fill-rule="evenodd"  fill="rgb(230, 0, 122)" d="M17.499,28.999 L42.500,28.999 C43.328,28.999 44.0,29.671 44.0,30.500 C44.0,31.328 43.328,32.0 42.500,32.0 L17.499,32.0 C16.671,32.0 15.999,31.328 15.999,30.500 C15.999,29.671 16.671,28.999 17.499,28.999 Z"/><path fill-rule="evenodd"  fill="rgb(230, 0, 122)" d="M17.499,19.999 L42.500,19.999 C43.328,19.999 44.0,20.671 44.0,21.500 C44.0,22.328 43.328,23.0 42.500,23.0 L17.499,23.0 C16.671,23.0 15.999,22.328 15.999,21.500 C15.999,20.671 16.671,19.999 17.499,19.999 Z"/></svg>