<svg  xmlns="http://www.w3.org/2000/svg" xmlns:xlink="http://www.w3.org/1999/xlink" width="454px" height="156px"><defs><filter filterUnits="userSpaceOnUse" id="Filter_0" x="0px" y="6px" width="454px" height="150px"  >                <feOffset in="SourceAlpha" dx="0" dy="10" />                <feGaussianBlur result="blurOut" stdDeviation="4.472" />                <feFlood flood-color="rgb(150, 127, 139)" result="floodOut" />                <feComposite operator="atop" in="floodOut" in2="blurOut" />                <feComponentTransfer><feFuncA type="linear" slope="0.1"/></feComponentTransfer>                <feMerge>    <feMergeNode/>    <feMergeNode in="SourceGraphic"/>  </feMerge>            </filter><filter id="Filter_1">                <feOffset in="SourceAlpha" dx="0" dy="3" />                <feGaussianBlur result="blurOut" stdDeviation="2.646" />                <feFlood flood-color="rgb(0, 0, 0)" result="floodOut" />                <feComposite operator="out" in="floodOut" in2="blurOut" result="compOut" />                <feComposite operator="in" in="compOut" in2="SourceAlpha" />                <feComponentTransfer><feFuncA type="linear" slope="0.35"/></feComponentTransfer>                <feBlend mode="multiply" in2="SourceGraphic" />            </filter><linearGradient id="PSgrad_0" x1="0%" x2="100%" y1="0%" y2="0%">  <stop offset="0%" stop-color="rgb(238,85,240)" stop-opacity="1" />  <stop offset="100%" stop-color="rgb(230,0,122)" stop-opacity="1" /></linearGradient></defs><path fill-rule="evenodd"  fill="rgb(250, 204, 228)" d="M131.336,25.22 L17.999,26.0 L29.999,4.0 C29.999,4.0 32.484,0.0 39.999,0.0 C48.696,0.0 104.376,0.0 125.692,0.0 C130.833,0.0 133.999,0.0 133.999,0.0 C173.599,0.0 392.171,0.0 401.693,0.0 C410.147,0.0 412.999,4.0 412.999,4.0 L424.999,26.999 L131.336,25.22 Z"/><g filter="url(#Filter_0)"><path fill-rule="evenodd"  fill="rgb(250, 204, 228)" d="M30.110,18.417 L412.110,18.417 C419.842,18.417 426.110,24.685 426.110,32.417 L426.110,110.417 C426.110,118.149 419.842,124.417 412.110,124.417 L30.110,124.417 C22.378,124.417 16.110,118.149 16.110,110.417 L16.110,32.417 C16.110,24.685 22.378,18.417 30.110,18.417 Z"/></g><g filter="url(#Filter_1)"><path fill-rule="evenodd"  fill="rgb(242, 242, 242)" d="M34.28,26.637 L408.28,26.637 C413.551,26.637 418.28,31.114 418.28,36.637 L418.28,106.637 C418.28,112.160 413.551,116.637 408.28,116.637 L34.28,116.637 C28.505,116.637 24.28,112.160 24.28,106.637 L24.28,36.637 C24.28,31.114 28.505,26.637 34.28,26.637 Z"/></g><path fill="url(#PSgrad_0)" d="M34.28,26.637 L408.28,26.637 C413.551,26.637 418.28,31.114 418.28,36.637 L418.28,106.637 C418.28,112.160 413.551,116.637 408.28,116.637 L34.28,116.637 C28.505,116.637 24.28,112.160 24.28,106.637 L24.28,36.637 C24.28,31.114 28.505,26.637 34.28,26.637 Z"/></svg>