<svg  xmlns="http://www.w3.org/2000/svg" xmlns:xlink="http://www.w3.org/1999/xlink" width="20px" height="20px"><path fill-rule="evenodd"  fill="rgb(250, 204, 228)" d="M9.999,0.0 C15.522,0.0 19.999,4.477 19.999,9.999 C19.999,15.522 15.522,20.0 9.999,20.0 C4.477,20.0 0.0,15.522 0.0,9.999 C0.0,4.477 4.477,0.0 9.999,0.0 Z"/><path fill-rule="evenodd"  fill="rgb(230, 0, 122)" d="M13.999,9.0 L5.999,9.0 C5.447,9.0 4.999,8.552 4.999,7.999 C4.999,7.447 5.447,7.0 5.999,7.0 L11.0,7.0 L11.0,4.999 L15.0,7.0 L15.0,7.999 C15.0,8.552 14.552,9.0 13.999,9.0 Z"/><path fill-rule="evenodd"  fill="rgb(230, 0, 122)" d="M5.999,11.0 L13.999,11.0 C14.552,11.0 15.0,11.447 15.0,11.999 C15.0,12.552 14.552,13.0 13.999,13.0 L8.999,13.0 L8.999,15.0 L4.999,13.0 L4.999,11.999 C4.999,11.447 5.447,11.0 5.999,11.0 Z"/></svg>