<svg  xmlns="http://www.w3.org/2000/svg" xmlns:xlink="http://www.w3.org/1999/xlink" width="143px" height="96px"><defs><linearGradient id="PSgrad_0" x1="0%" x2="100%" y1="0%" y2="0%">  <stop offset="0%" stop-color="rgb(238,85,240)" stop-opacity="1" />  <stop offset="100%" stop-color="rgb(230,0,122)" stop-opacity="1" /></linearGradient></defs><path fill-rule="evenodd"  fill="rgb(230, 0, 122)" d="M119.569,71.997 L42.455,71.997 C12.874,71.997 5.0,90.999 5.0,90.999 L5.0,54.150 L5.0,37.418 L5.0,22.917 C5.0,13.60 12.891,5.70 22.626,5.70 L119.569,5.70 C129.304,5.70 137.195,13.60 137.195,22.917 L137.195,54.150 C137.195,64.7 129.304,71.997 119.569,71.997 Z"/><path fill="url(#PSgrad_0)" d="M119.569,71.997 L42.455,71.997 C12.874,71.997 5.0,90.999 5.0,90.999 L5.0,54.150 L5.0,37.418 L5.0,22.917 C5.0,13.60 12.891,5.70 22.626,5.70 L119.569,5.70 C129.304,5.70 137.195,13.60 137.195,22.917 L137.195,54.150 C137.195,64.7 129.304,71.997 119.569,71.997 Z"/></svg>