<svg  xmlns="http://www.w3.org/2000/svg" xmlns:xlink="http://www.w3.org/1999/xlink" width="158px" height="122px"><defs><linearGradient id="PSgrad_0" x1="0%" x2="100%" y1="0%" y2="0%">  <stop offset="0%" stop-color="rgb(238,85,240)" stop-opacity="1" />  <stop offset="100%" stop-color="rgb(230,0,122)" stop-opacity="1" /></linearGradient></defs><path fill-rule="evenodd"  fill="rgb(238, 85, 240)" d="M134.376,5.819 C144.623,5.819 152.931,14.126 152.931,24.374 C152.931,34.621 144.623,42.929 134.376,42.929 C124.128,42.929 115.821,34.621 115.821,24.374 C115.821,14.126 124.128,5.819 134.376,5.819 Z"/><path fill="url(#PSgrad_0)" d="M134.376,5.819 C144.623,5.819 152.931,14.126 152.931,24.374 C152.931,34.621 144.623,42.929 134.376,42.929 C124.128,42.929 115.821,34.621 115.821,24.374 C115.821,14.126 124.128,5.819 134.376,5.819 Z"/><path fill-rule="evenodd"  fill="rgb(238, 85, 240)" d="M67.78,101.187 C71.232,101.187 74.599,104.555 74.599,108.709 C74.599,112.863 71.232,116.230 67.78,116.230 C62.924,116.230 59.557,112.863 59.557,108.709 C59.557,104.555 62.924,101.187 67.78,101.187 Z"/><path fill="url(#PSgrad_0)" d="M67.78,101.187 C71.232,101.187 74.599,104.555 74.599,108.709 C74.599,112.863 71.232,116.230 67.78,116.230 C62.924,116.230 59.557,112.863 59.557,108.709 C59.557,104.555 62.924,101.187 67.78,101.187 Z"/><path fill-rule="evenodd"  fill="rgb(238, 85, 240)" d="M42.374,96.928 C46.528,96.928 49.895,100.296 49.895,104.450 C49.895,108.603 46.528,111.971 42.374,111.971 C38.220,111.971 34.852,108.603 34.852,104.450 C34.852,100.296 38.220,96.928 42.374,96.928 Z"/><path fill="url(#PSgrad_0)" d="M42.374,96.928 C46.528,96.928 49.895,100.296 49.895,104.450 C49.895,108.603 46.528,111.971 42.374,111.971 C38.220,111.971 34.852,108.603 34.852,104.450 C34.852,100.296 38.220,96.928 42.374,96.928 Z"/><path fill-rule="evenodd"  fill="rgb(230, 0, 122)" d="M116.288,90.404 L47.39,90.404 C13.940,90.404 5.129,111.666 5.129,111.666 L5.129,70.434 L5.129,51.711 L5.129,35.486 C5.129,24.457 13.959,15.516 24.851,15.516 L116.288,15.516 C127.181,15.516 136.11,24.457 136.11,35.486 L136.11,70.434 C136.11,81.463 127.181,90.404 116.288,90.404 Z"/><path fill="url(#PSgrad_0)" d="M116.288,90.404 L47.39,90.404 C13.940,90.404 5.129,111.666 5.129,111.666 L5.129,70.434 L5.129,51.711 L5.129,35.486 C5.129,24.457 13.959,15.516 24.851,15.516 L116.288,15.516 C127.181,15.516 136.11,24.457 136.11,35.486 L136.11,70.434 C136.11,81.463 127.181,90.404 116.288,90.404 Z"/></svg>